<svg xmlns="http://www.w3.org/2000/svg" width="24" height="24" shape-rendering="crispEdges"><path fill="#6f7b90" d="M9 3h1v1H9zm1 0h1v1h-1zm1 0h1v1h-1zm1 0h1v1h-1zm1 0h1v1h-1zm1 0h1v1h-1z"/><path fill="#5b6577" d="M6 4h1v1H6zm1 0h1v1H7z"/><path fill="#6f7b90" d="M8 4h1v1H8z"/><path fill="#8492ab" d="M9 4h1v1H9z"/><path fill="#9da9be" d="M10 4h1v1h-1z"/><path fill="#b6c0d1" d="M11 4h1v1h-1zm1 0h1v1h-1z"/><path fill="#9da9be" d="M13 4h1v1h-1z"/><path fill="#8492ab" d="M14 4h1v1h-1z"/><path fill="#6f7b90" d="M15 4h1v1h-1z"/><path fill="#5b6577" d="M16 4h1v1h-1zm1 0h1v1h-1zM3 5h1v1H3zm1 0h1v1H4zm1 0h1v1H5z"/><path fill="#6f7b90" d="M6 5h1v1H6zm1 0h1v1H7zm1 0h1v1H8z"/><path fill="#8492ab" d="M9 5h1v1H9z"/><path fill="#9da9be" d="M10 5h1v1h-1z"/><path fill="#b6c0d1" d="M11 5h1v1h-1zm1 0h1v1h-1z"/><path fill="#9da9be" d="M13 5h1v1h-1z"/><path fill="#8492ab" d="M14 5h1v1h-1z"/><path fill="#6f7b90" d="M15 5h1v1h-1zm1 0h1v1h-1zm1 0h1v1h-1z"/><path fill="#5b6577" d="M18 5h1v1h-1zm1 0h1v1h-1zm1 0h1v1h-1zM2 6h1v1H2zm1 0h1v1H3z"/><path fill="#6f7b90" d="M4 6h1v1H4zm1 0h1v1H5z"/><path fill="#8492ab" d="M6 6h1v1H6zm1 0h1v1H7zm1 0h1v1H8zm1 0h1v1H9z"/><path fill="#9da9be" d="M10 6h1v1h-1z"/><path fill="#b6c0d1" d="M11 6h1v1h-1zm1 0h1v1h-1z"/><path fill="#9da9be" d="M13 6h1v1h-1z"/><path fill="#8492ab" d="M14 6h1v1h-1zm1 0h1v1h-1zm1 0h1v1h-1zm1 0h1v1h-1z"/><path fill="#6f7b90" d="M18 6h1v1h-1zm1 0h1v1h-1z"/><path fill="#5b6577" d="M20 6h1v1h-1zm1 0h1v1h-1z"/><path fill="#414854" d="M2 7h1v1H2z"/><path fill="#9da9be" d="M3 7h1v1H3z"/><path fill="#8492ab" d="M4 7h1v1H4zm1 0h1v1H5z"/><path fill="#6f7b90" d="M6 7h1v1H6zm1 0h1v1H7zm1 0h1v1H8z"/><path fill="#8492ab" d="M9 7h1v1H9z"/><path fill="#9da9be" d="M10 7h1v1h-1z"/><path fill="#b6c0d1" d="M11 7h1v1h-1zm1 0h1v1h-1z"/><path fill="#9da9be" d="M13 7h1v1h-1z"/><path fill="#8492ab" d="M14 7h1v1h-1z"/><path fill="#6f7b90" d="M15 7h1v1h-1zm1 0h1v1h-1zm1 0h1v1h-1z"/><path fill="#8492ab" d="M18 7h1v1h-1zm1 0h1v1h-1z"/><path fill="#9da9be" d="M20 7h1v1h-1z"/><path fill="#414854" d="M21 7h1v1h-1zM2 8h1v1H2z"/><path fill="#5b6577" d="M3 8h1v1H3z"/><path fill="#6f7b90" d="M4 8h1v1H4zm1 0h1v1H5z"/><path fill="#8492ab" d="M6 8h1v1H6zm1 0h1v1H7zm1 0h1v1H8zm1 0h1v1H9z"/><path fill="#9da9be" d="M10 8h1v1h-1z"/><path fill="#b6c0d1" d="M11 8h1v1h-1zm1 0h1v1h-1z"/><path fill="#9da9be" d="M13 8h1v1h-1z"/><path fill="#8492ab" d="M14 8h1v1h-1zm1 0h1v1h-1zm1 0h1v1h-1zm1 0h1v1h-1z"/><path fill="#6f7b90" d="M18 8h1v1h-1zm1 0h1v1h-1z"/><path fill="#5b6577" d="M20 8h1v1h-1z"/><path fill="#414854" d="M21 8h1v1h-1zM2 9h1v1H2z"/><path fill="#9da9be" d="M3 9h1v1H3z"/><path fill="#8492ab" d="M4 9h1v1H4zm1 0h1v1H5z"/><path fill="#6f7b90" d="M6 9h1v1H6zm1 0h1v1H7zm1 0h1v1H8z"/><path fill="#8492ab" d="M9 9h1v1H9z"/><path fill="#9da9be" d="M10 9h1v1h-1z"/><path fill="#b6c0d1" d="M11 9h1v1h-1zm1 0h1v1h-1z"/><path fill="#9da9be" d="M13 9h1v1h-1z"/><path fill="#8492ab" d="M14 9h1v1h-1z"/><path fill="#6f7b90" d="M15 9h1v1h-1zm1 0h1v1h-1zm1 0h1v1h-1z"/><path fill="#8492ab" d="M18 9h1v1h-1zm1 0h1v1h-1z"/><path fill="#9da9be" d="M20 9h1v1h-1z"/><path fill="#414854" d="M21 9h1v1h-1zM2 10h1v1H2z"/><path fill="#5b6577" d="M3 10h1v1H3z"/><path fill="#6f7b90" d="M4 10h1v1H4zm1 0h1v1H5z"/><path fill="#8492ab" d="M6 10h1v1H6zm1 0h1v1H7zm1 0h1v1H8zm1 0h1v1H9z"/><path fill="#9da9be" d="M10 10h1v1h-1z"/><path fill="#b6c0d1" d="M11 10h1v1h-1zm1 0h1v1h-1z"/><path fill="#9da9be" d="M13 10h1v1h-1z"/><path fill="#8492ab" d="M14 10h1v1h-1zm1 0h1v1h-1zm1 0h1v1h-1zm1 0h1v1h-1z"/><path fill="#6f7b90" d="M18 10h1v1h-1zm1 0h1v1h-1z"/><path fill="#5b6577" d="M20 10h1v1h-1z"/><path fill="#414854" d="M21 10h1v1h-1zM2 11h1v1H2z"/><path fill="#9da9be" d="M3 11h1v1H3z"/><path fill="#8492ab" d="M4 11h1v1H4zm1 0h1v1H5z"/><path fill="#6f7b90" d="M6 11h1v1H6zm1 0h1v1H7zm1 0h1v1H8z"/><path fill="#8492ab" d="M9 11h1v1H9z"/><path fill="#9da9be" d="M10 11h1v1h-1z"/><path fill="#b6c0d1" d="M11 11h1v1h-1zm1 0h1v1h-1z"/><path fill="#9da9be" d="M13 11h1v1h-1z"/><path fill="#8492ab" d="M14 11h1v1h-1z"/><path fill="#6f7b90" d="M15 11h1v1h-1zm1 0h1v1h-1zm1 0h1v1h-1z"/><path fill="#8492ab" d="M18 11h1v1h-1zm1 0h1v1h-1z"/><path fill="#9da9be" d="M20 11h1v1h-1z"/><path fill="#414854" d="M21 11h1v1h-1zM2 12h1v1H2z"/><path fill="#5b6577" d="M3 12h1v1H3z"/><path fill="#6f7b90" d="M4 12h1v1H4zm1 0h1v1H5z"/><path fill="#8492ab" d="M6 12h1v1H6zm1 0h1v1H7z"/><path fill="#9da9be" d="M8 12h1v1H8z"/><path fill="#dadee5" d="M9 12h1v1H9zm1 0h1v1h-1zm1 0h1v1h-1zm1 0h1v1h-1zm1 0h1v1h-1zm1 0h1v1h-1z"/><path fill="#9da9be" d="M15 12h1v1h-1z"/><path fill="#8492ab" d="M16 12h1v1h-1zm1 0h1v1h-1z"/><path fill="#6f7b90" d="M18 12h1v1h-1zm1 0h1v1h-1z"/><path fill="#5b6577" d="M20 12h1v1h-1z"/><path fill="#414854" d="M21 12h1v1h-1z"/><path fill="#30363f" d="M2 13h1v1H2z"/><path fill="#9da9be" d="M3 13h1v1H3z"/><path fill="#8492ab" d="M4 13h1v1H4zm1 0h1v1H5z"/><path fill="#dadee5" d="M6 13h1v1H6zm1 0h1v1H7zm1 0h1v1H8z"/><path fill="#9da9be" d="M9 13h1v1H9z"/><path fill="#96645a" d="M10 13h1v1h-1z"/><path fill="#7d4a1d" d="M11 13h1v1h-1zm1 0h1v1h-1z"/><path fill="#96645a" d="M13 13h1v1h-1z"/><path fill="#9da9be" d="M14 13h1v1h-1z"/><path fill="#dadee5" d="M15 13h1v1h-1zm1 0h1v1h-1zm1 0h1v1h-1z"/><path fill="#8492ab" d="M18 13h1v1h-1zm1 0h1v1h-1z"/><path fill="#9da9be" d="M20 13h1v1h-1z"/><path fill="#414854" d="M21 13h1v1h-1z"/><path fill="#30363f" d="M2 14h1v1H2z"/><path fill="#dadee5" d="M3 14h1v1H3zm1 0h1v1H4zm1 0h1v1H5z"/><path fill="#9da9be" d="M6 14h1v1H6zm1 0h1v1H7z"/><path fill="#8492ab" d="M8 14h1v1H8z"/><path fill="#96645a" d="M9 14h1v1H9z"/><path fill="#7d4a1d" d="M10 14h1v1h-1z"/><path fill="#e4a43c" d="M11 14h1v1h-1zm1 0h1v1h-1z"/><path fill="#7d4a1d" d="M13 14h1v1h-1z"/><path fill="#96645a" d="M14 14h1v1h-1z"/><path fill="#8492ab" d="M15 14h1v1h-1z"/><path fill="#9da9be" d="M16 14h1v1h-1zm1 0h1v1h-1z"/><path fill="#dadee5" d="M18 14h1v1h-1zm1 0h1v1h-1zm1 0h1v1h-1z"/><path fill="#414854" d="M21 14h1v1h-1z"/><path fill="#93d4e0" d="M22 14h1v1h-1z"/><path fill="#30363f" d="M2 15h1v1H2z"/><path fill="#9da9be" d="M3 15h1v1H3zm1 0h1v1H4zm1 0h1v1H5zm1 0h1v1H6zm1 0h1v1H7z"/><path fill="#6f7b90" d="M8 15h1v1H8z"/><path fill="#40002a" d="M9 15h1v1H9z"/><path fill="#96645a" d="M10 15h1v1h-1z"/><path fill="#e4a43c" d="M11 15h1v1h-1zm1 0h1v1h-1z"/><path fill="#96645a" d="M13 15h1v1h-1z"/><path fill="#40002a" d="M14 15h1v1h-1z"/><path fill="#6f7b90" d="M15 15h1v1h-1z"/><path fill="#9da9be" d="M16 15h1v1h-1zm1 0h1v1h-1zm1 0h1v1h-1zm1 0h1v1h-1zm1 0h1v1h-1z"/><path fill="#414854" d="M21 15h1v1h-1z"/><path d="M2 16h1v1H2zm1 0h1v1H3z"/><path fill="#30363f" d="M4 16h1v1H4zm1 0h1v1H5zm1 0h1v1H6zm1 0h1v1H7z"/><path d="M8 16h1v1H8zm1 0h1v1H9z"/><path fill="#40002a" d="M10 16h1v1h-1z"/><path fill="#7d4a1d" d="M11 16h1v1h-1zm1 0h1v1h-1z"/><path fill="#40002a" d="M13 16h1v1h-1z"/><path d="M14 16h1v1h-1zm1 0h1v1h-1z"/><path fill="#30363f" d="M16 16h1v1h-1zm1 0h1v1h-1zm1 0h1v1h-1zm1 0h1v1h-1z"/><path d="M20 16h1v1h-1zm1 0h1v1h-1z"/><path fill="#794c53" d="M2 17h1v1H2z"/><path d="M3 17h1v1H3z"/><path fill="#414854" d="M4 17h1v1H4z"/><path fill="#5b6577" d="M5 17h1v1H5zm1 0h1v1H6zm1 0h1v1H7zm1 0h1v1H8z"/><path d="M9 17h1v1H9z"/><path fill="#6f7b90" d="M10 17h1v1h-1zm1 0h1v1h-1zm1 0h1v1h-1zm1 0h1v1h-1z"/><path d="M14 17h1v1h-1z"/><path fill="#5b6577" d="M15 17h1v1h-1zm1 0h1v1h-1zm1 0h1v1h-1zm1 0h1v1h-1z"/><path fill="#414854" d="M19 17h1v1h-1z"/><path d="M20 17h1v1h-1z"/><path fill="#794c53" d="M21 17h1v1h-1z"/><path fill="#36aad1" d="M22 17h1v1h-1z"/><path fill="#93d4e0" d="M23 17h1v1h-1z"/><path fill="#794c53" d="M2 18h1v1H2z"/><path fill="#30363f" d="M3 18h1v1H3z"/><path fill="#414854" d="M4 18h1v1H4z"/><path fill="#6f7b90" d="M5 18h1v1H5z"/><path fill="#8492ab" d="M6 18h1v1H6zm1 0h1v1H7z"/><path fill="#6f7b90" d="M8 18h1v1H8z"/><path fill="#414854" d="M9 18h1v1H9z"/><path fill="#8492ab" d="M10 18h1v1h-1z"/><path d="M11 18h1v1h-1zm1 0h1v1h-1z"/><path fill="#8492ab" d="M13 18h1v1h-1z"/><path fill="#414854" d="M14 18h1v1h-1z"/><path fill="#6f7b90" d="M15 18h1v1h-1z"/><path fill="#8492ab" d="M16 18h1v1h-1zm1 0h1v1h-1z"/><path fill="#6f7b90" d="M18 18h1v1h-1z"/><path fill="#414854" d="M19 18h1v1h-1z"/><path fill="#30363f" d="M20 18h1v1h-1z"/><path fill="#794c53" d="M21 18h1v1h-1z"/><path fill="#93d4e0" d="M23 18h1v1h-1z"/><path fill="#794c53" d="M2 19h1v1H2z"/><path fill="#30363f" d="M3 19h1v1H3z"/><path fill="#414854" d="M4 19h1v1H4z"/><path fill="#8492ab" d="M5 19h1v1H5z"/><path fill="#b6c0d1" d="M6 19h1v1H6zm1 0h1v1H7z"/><path fill="#8492ab" d="M8 19h1v1H8z"/><path fill="#414854" d="M9 19h1v1H9z"/><path fill="#8492ab" d="M10 19h1v1h-1z"/><path d="M11 19h1v1h-1zm1 0h1v1h-1z"/><path fill="#8492ab" d="M13 19h1v1h-1z"/><path fill="#414854" d="M14 19h1v1h-1z"/><path fill="#8492ab" d="M15 19h1v1h-1z"/><path fill="#b6c0d1" d="M16 19h1v1h-1zm1 0h1v1h-1z"/><path fill="#8492ab" d="M18 19h1v1h-1z"/><path fill="#414854" d="M19 19h1v1h-1z"/><path fill="#30363f" d="M20 19h1v1h-1z"/><path fill="#794c53" d="M21 19h1v1h-1z"/><path fill="#36aad1" d="M1 20h1v1H1z"/><path fill="#794c53" d="M2 20h1v1H2z"/><path fill="#30363f" d="M3 20h1v1H3zm1 0h1v1H4z"/><path fill="#8492ab" d="M5 20h1v1H5z"/><path fill="#b6c0d1" d="M6 20h1v1H6zm1 0h1v1H7z"/><path fill="#8492ab" d="M8 20h1v1H8z"/><path fill="#30363f" d="M9 20h1v1H9zm1 0h1v1h-1z"/><path d="M11 20h1v1h-1zm1 0h1v1h-1z"/><path fill="#30363f" d="M13 20h1v1h-1zm1 0h1v1h-1z"/><path fill="#8492ab" d="M15 20h1v1h-1z"/><path fill="#b6c0d1" d="M16 20h1v1h-1zm1 0h1v1h-1z"/><path fill="#8492ab" d="M18 20h1v1h-1z"/><path fill="#30363f" d="M19 20h1v1h-1zm1 0h1v1h-1z"/><path fill="#794c53" d="M21 20h1v1h-1z"/><path fill="#93d4e0" d="M1 21h1v1H1zm1 0h1v1H2z"/><path fill="#794c53" d="M3 21h1v1H3zm1 0h1v1H4z"/><path fill="#30363f" d="M5 21h1v1H5z"/><path fill="#5b6577" d="M6 21h1v1H6zm1 0h1v1H7z"/><path fill="#30363f" d="M8 21h1v1H8z"/><path fill="#794c53" d="M9 21h1v1H9zm1 0h1v1h-1zm1 0h1v1h-1zm1 0h1v1h-1zm1 0h1v1h-1zm1 0h1v1h-1z"/><path fill="#30363f" d="M15 21h1v1h-1z"/><path fill="#5b6577" d="M16 21h1v1h-1zm1 0h1v1h-1z"/><path fill="#30363f" d="M18 21h1v1h-1z"/><path fill="#794c53" d="M19 21h1v1h-1zm1 0h1v1h-1z"/><path fill="#36aad1" d="M21 21h1v1h-1z"/><path fill="#9c6b60" d="M4 22h1v1H4zm1 0h1v1H5zm1 0h1v1H6zm1 0h1v1H7zm1 0h1v1H8zm1 0h1v1H9zm1 0h1v1h-1zm1 0h1v1h-1zm1 0h1v1h-1zm1 0h1v1h-1zm1 0h1v1h-1zm1 0h1v1h-1zm1 0h1v1h-1zm1 0h1v1h-1zm1 0h1v1h-1zm1 0h1v1h-1z"/></svg>