<svg xmlns="http://www.w3.org/2000/svg" width="24" height="24" shape-rendering="crispEdges"><path fill="#f4f4e6" d="M0 0h1v1H0zm1 0h1v1H1zm1 0h1v1H2zm1 0h1v1H3zm1 0h1v1H4zm1 0h1v1H5zm1 0h1v1H6zm1 0h1v1H7zm1 0h1v1H8zm1 0h1v1H9zm1 0h1v1h-1zm1 0h1v1h-1zm1 0h1v1h-1zm1 0h1v1h-1zm1 0h1v1h-1zm1 0h1v1h-1zm1 0h1v1h-1zm1 0h1v1h-1zm1 0h1v1h-1zm1 0h1v1h-1zm1 0h1v1h-1zm1 0h1v1h-1zm1 0h1v1h-1zm1 0h1v1h-1zM0 1h1v1H0zm1 0h1v1H1zm1 0h1v1H2zm1 0h1v1H3zm1 0h1v1H4zm1 0h1v1H5zm1 0h1v1H6zm1 0h1v1H7zm1 0h1v1H8zm1 0h1v1H9zm1 0h1v1h-1zm1 0h1v1h-1zm1 0h1v1h-1zm1 0h1v1h-1zm1 0h1v1h-1zm1 0h1v1h-1z"/><path fill="#007071" d="M16 1h1v1h-1zm1 0h1v1h-1z"/><path fill="#f4f4e6" d="M18 1h1v1h-1zm1 0h1v1h-1zm1 0h1v1h-1zm1 0h1v1h-1zm1 0h1v1h-1zm1 0h1v1h-1zM0 2h1v1H0zm1 0h1v1H1zm1 0h1v1H2zm1 0h1v1H3zm1 0h1v1H4zm1 0h1v1H5zm1 0h1v1H6zm1 0h1v1H7zm1 0h1v1H8zm1 0h1v1H9zm1 0h1v1h-1zm1 0h1v1h-1zm1 0h1v1h-1zm1 0h1v1h-1zm1 0h1v1h-1z"/><path fill="#007071" d="M15 2h1v1h-1z"/><path fill="#00a837" d="M16 2h1v1h-1z"/><path fill="#7cc623" d="M17 2h1v1h-1z"/><path fill="#007071" d="M18 2h1v1h-1z"/><path fill="#f4f4e6" d="M19 2h1v1h-1zm1 0h1v1h-1zm1 0h1v1h-1zm1 0h1v1h-1zm1 0h1v1h-1zM0 3h1v1H0zm1 0h1v1H1zm1 0h1v1H2zm1 0h1v1H3zm1 0h1v1H4zm1 0h1v1H5zm1 0h1v1H6zm1 0h1v1H7zm1 0h1v1H8zm1 0h1v1H9zm1 0h1v1h-1zm1 0h1v1h-1zm1 0h1v1h-1zm1 0h1v1h-1z"/><path fill="#007071" d="M14 3h1v1h-1z"/><path fill="#00a837" d="M15 3h1v1h-1z"/><path fill="#7cc623" d="M16 3h1v1h-1zm1 0h1v1h-1zm1 0h1v1h-1z"/><path fill="#007071" d="M19 3h1v1h-1z"/><path fill="#f4f4e6" d="M20 3h1v1h-1zm1 0h1v1h-1zm1 0h1v1h-1zm1 0h1v1h-1zM0 4h1v1H0zm1 0h1v1H1zm1 0h1v1H2zm1 0h1v1H3zm1 0h1v1H4zm1 0h1v1H5zm1 0h1v1H6zm1 0h1v1H7zm1 0h1v1H8zm1 0h1v1H9zm1 0h1v1h-1zm1 0h1v1h-1zm1 0h1v1h-1zm1 0h1v1h-1z"/><path fill="#005982" d="M14 4h1v1h-1z"/><path fill="#00a837" d="M15 4h1v1h-1z"/><path fill="#7cc623" d="M16 4h1v1h-1zm1 0h1v1h-1zm1 0h1v1h-1z"/><path fill="#015557" d="M19 4h1v1h-1z"/><path fill="#f4f4e6" d="M20 4h1v1h-1zm1 0h1v1h-1zm1 0h1v1h-1zm1 0h1v1h-1zM0 5h1v1H0zm1 0h1v1H1zm1 0h1v1H2zm1 0h1v1H3zm1 0h1v1H4zm1 0h1v1H5zm1 0h1v1H6zm1 0h1v1H7zm1 0h1v1H8zm1 0h1v1H9zm1 0h1v1h-1zm1 0h1v1h-1zm1 0h1v1h-1z"/><path fill="#005982" d="M13 5h1v1h-1z"/><path fill="#00a837" d="M14 5h1v1h-1z"/><path fill="#00837f" d="M15 5h1v1h-1z"/><path fill="#00a837" d="M16 5h1v1h-1zm1 0h1v1h-1z"/><path fill="#00837f" d="M18 5h1v1h-1z"/><path fill="#7cc623" d="M19 5h1v1h-1z"/><path fill="#015557" d="M20 5h1v1h-1z"/><path fill="#f4f4e6" d="M21 5h1v1h-1zm1 0h1v1h-1zm1 0h1v1h-1zM0 6h1v1H0zm1 0h1v1H1zm1 0h1v1H2zm1 0h1v1H3zm1 0h1v1H4zm1 0h1v1H5zm1 0h1v1H6zm1 0h1v1H7zm1 0h1v1H8zm1 0h1v1H9zm1 0h1v1h-1zm1 0h1v1h-1zm1 0h1v1h-1z"/><path fill="#005982" d="M13 6h1v1h-1z"/><path fill="#00a837" d="M14 6h1v1h-1z"/><path fill="#7cc623" d="M15 6h1v1h-1zm1 0h1v1h-1zm1 0h1v1h-1zm1 0h1v1h-1zm1 0h1v1h-1z"/><path fill="#015557" d="M20 6h1v1h-1z"/><path fill="#f4f4e6" d="M21 6h1v1h-1zm1 0h1v1h-1zm1 0h1v1h-1zM0 7h1v1H0zm1 0h1v1H1zm1 0h1v1H2zm1 0h1v1H3zm1 0h1v1H4zm1 0h1v1H5zm1 0h1v1H6zm1 0h1v1H7zm1 0h1v1H8zm1 0h1v1H9zm1 0h1v1h-1zm1 0h1v1h-1z"/><path fill="#005982" d="M12 7h1v1h-1zm1 0h1v1h-1zm1 0h1v1h-1z"/><path fill="#00a837" d="M15 7h1v1h-1z"/><path fill="#7cc623" d="M16 7h1v1h-1zm1 0h1v1h-1zm1 0h1v1h-1z"/><path fill="#00837f" d="M19 7h1v1h-1zm1 0h1v1h-1z"/><path fill="#015557" d="M21 7h1v1h-1z"/><path fill="#f4f4e6" d="M22 7h1v1h-1zm1 0h1v1h-1zM0 8h1v1H0zm1 0h1v1H1zm1 0h1v1H2zm1 0h1v1H3zm1 0h1v1H4zm1 0h1v1H5zm1 0h1v1H6zm1 0h1v1H7zm1 0h1v1H8zm1 0h1v1H9zm1 0h1v1h-1zm1 0h1v1h-1z"/><path fill="#005982" d="M12 8h1v1h-1z"/><path fill="#00a837" d="M13 8h1v1h-1zm1 0h1v1h-1z"/><path fill="#005982" d="M15 8h1v1h-1zm1 0h1v1h-1z"/><path fill="#007f9c" d="M17 8h1v1h-1z"/><path fill="#00837f" d="M18 8h1v1h-1z"/><path fill="#7cc623" d="M19 8h1v1h-1zm1 0h1v1h-1z"/><path fill="#015557" d="M21 8h1v1h-1z"/><path fill="#f4f4e6" d="M22 8h1v1h-1zm1 0h1v1h-1zM0 9h1v1H0zm1 0h1v1H1zm1 0h1v1H2zm1 0h1v1H3zm1 0h1v1H4zm1 0h1v1H5z"/><path fill="#007071" d="M6 9h1v1H6zm1 0h1v1H7z"/><path fill="#f4f4e6" d="M8 9h1v1H8zm1 0h1v1H9zm1 0h1v1h-1zm1 0h1v1h-1z"/><path fill="#005982" d="M12 9h1v1h-1z"/><path fill="#00a837" d="M13 9h1v1h-1zm1 0h1v1h-1zm1 0h1v1h-1z"/><path fill="#7cc623" d="M16 9h1v1h-1zm1 0h1v1h-1zm1 0h1v1h-1zm1 0h1v1h-1z"/><path fill="#00a837" d="M20 9h1v1h-1z"/><path fill="#015557" d="M21 9h1v1h-1z"/><path fill="#f4f4e6" d="M22 9h1v1h-1zm1 0h1v1h-1zM0 10h1v1H0zm1 0h1v1H1zm1 0h1v1H2zm1 0h1v1H3zm1 0h1v1H4z"/><path fill="#007071" d="M5 10h1v1H5z"/><path fill="#00a837" d="M6 10h1v1H6z"/><path fill="#7cc623" d="M7 10h1v1H7z"/><path fill="#007071" d="M8 10h1v1H8z"/><path fill="#f4f4e6" d="M9 10h1v1H9zm1 0h1v1h-1zm1 0h1v1h-1zm1 0h1v1h-1z"/><path fill="#005982" d="M13 10h1v1h-1zm1 0h1v1h-1z"/><path fill="#00a837" d="M15 10h1v1h-1zm1 0h1v1h-1z"/><path fill="#7cc623" d="M17 10h1v1h-1zm1 0h1v1h-1z"/><path fill="#015557" d="M19 10h1v1h-1zm1 0h1v1h-1z"/><path fill="#f4f4e6" d="M21 10h1v1h-1zm1 0h1v1h-1zm1 0h1v1h-1zM0 11h1v1H0zm1 0h1v1H1zm1 0h1v1H2zm1 0h1v1H3z"/><path fill="#007071" d="M4 11h1v1H4z"/><path fill="#00a837" d="M5 11h1v1H5z"/><path fill="#7cc623" d="M6 11h1v1H6zm1 0h1v1H7zm1 0h1v1H8z"/><path fill="#007071" d="M9 11h1v1H9z"/><path fill="#f4f4e6" d="M10 11h1v1h-1zm1 0h1v1h-1z"/><path fill="#93d4e0" d="M12 11h1v1h-1z"/><path fill="#4bb8eb" d="M13 11h1v1h-1z"/><path fill="#425599" d="M14 11h1v1h-1z"/><path fill="#005982" d="M15 11h1v1h-1z"/><path fill="#be7332" d="M16 11h1v1h-1zm1 0h1v1h-1z"/><path fill="#015557" d="M18 11h1v1h-1z"/><path fill="#425599" d="M19 11h1v1h-1z"/><path fill="#4bb8eb" d="M20 11h1v1h-1z"/><path fill="#93d4e0" d="M21 11h1v1h-1z"/><path fill="#f4f4e6" d="M22 11h1v1h-1zm1 0h1v1h-1zM0 12h1v1H0zm1 0h1v1H1zm1 0h1v1H2zm1 0h1v1H3z"/><path fill="#005982" d="M4 12h1v1H4z"/><path fill="#00a837" d="M5 12h1v1H5z"/><path fill="#7cc623" d="M6 12h1v1H6zm1 0h1v1H7zm1 0h1v1H8z"/><path fill="#015557" d="M9 12h1v1H9z"/><path fill="#f4f4e6" d="M10 12h1v1h-1zm1 0h1v1h-1z"/><path fill="#4bb8eb" d="M12 12h1v1h-1zm1 0h1v1h-1zm1 0h1v1h-1z"/><path fill="#7b8ed3" d="M15 12h1v1h-1zm1 0h1v1h-1zm1 0h1v1h-1zm1 0h1v1h-1z"/><path fill="#4bb8eb" d="M19 12h1v1h-1zm1 0h1v1h-1zm1 0h1v1h-1z"/><path fill="#f4f4e6" d="M22 12h1v1h-1zm1 0h1v1h-1zM0 13h1v1H0zm1 0h1v1H1zm1 0h1v1H2z"/><path fill="#005982" d="M3 13h1v1H3z"/><path fill="#00a837" d="M4 13h1v1H4z"/><path fill="#00837f" d="M5 13h1v1H5z"/><path fill="#00a837" d="M6 13h1v1H6zm1 0h1v1H7z"/><path fill="#00837f" d="M8 13h1v1H8z"/><path fill="#7cc623" d="M9 13h1v1H9z"/><path fill="#015557" d="M10 13h1v1h-1z"/><path fill="#f4f4e6" d="M11 13h1v1h-1z"/><path fill="#93d4e0" d="M12 13h1v1h-1z"/><path fill="#4bb8eb" d="M13 13h1v1h-1zm1 0h1v1h-1zm1 0h1v1h-1zm1 0h1v1h-1zm1 0h1v1h-1zm1 0h1v1h-1zm1 0h1v1h-1zm1 0h1v1h-1z"/><path fill="#93d4e0" d="M21 13h1v1h-1z"/><path fill="#f4f4e6" d="M22 13h1v1h-1zm1 0h1v1h-1zM0 14h1v1H0zm1 0h1v1H1zm1 0h1v1H2z"/><path fill="#005982" d="M3 14h1v1H3z"/><path fill="#00a837" d="M4 14h1v1H4z"/><path fill="#7cc623" d="M5 14h1v1H5zm1 0h1v1H6zm1 0h1v1H7zm1 0h1v1H8zm1 0h1v1H9z"/><path fill="#015557" d="M10 14h1v1h-1z"/><path fill="#f4f4e6" d="M11 14h1v1h-1zm1 0h1v1h-1zm1 0h1v1h-1z"/><path fill="#93d4e0" d="M14 14h1v1h-1z"/><path fill="#4bb8eb" d="M15 14h1v1h-1zm1 0h1v1h-1zm1 0h1v1h-1zm1 0h1v1h-1z"/><path fill="#93d4e0" d="M19 14h1v1h-1z"/><path fill="#f4f4e6" d="M20 14h1v1h-1zm1 0h1v1h-1zm1 0h1v1h-1zm1 0h1v1h-1zM0 15h1v1H0zm1 0h1v1H1z"/><path fill="#005982" d="M2 15h1v1H2zm1 0h1v1H3zm1 0h1v1H4z"/><path fill="#00a837" d="M5 15h1v1H5z"/><path fill="#7cc623" d="M6 15h1v1H6zm1 0h1v1H7zm1 0h1v1H8z"/><path fill="#00837f" d="M9 15h1v1H9zm1 0h1v1h-1z"/><path fill="#015557" d="M11 15h1v1h-1z"/><path fill="#f4f4e6" d="M12 15h1v1h-1zm1 0h1v1h-1zm1 0h1v1h-1zm1 0h1v1h-1zm1 0h1v1h-1zm1 0h1v1h-1zm1 0h1v1h-1zm1 0h1v1h-1zm1 0h1v1h-1zm1 0h1v1h-1zm1 0h1v1h-1zm1 0h1v1h-1zM0 16h1v1H0zm1 0h1v1H1z"/><path fill="#005982" d="M2 16h1v1H2z"/><path fill="#00a837" d="M3 16h1v1H3zm1 0h1v1H4z"/><path fill="#005982" d="M5 16h1v1H5zm1 0h1v1H6z"/><path fill="#007f9c" d="M7 16h1v1H7z"/><path fill="#00837f" d="M8 16h1v1H8z"/><path fill="#7cc623" d="M9 16h1v1H9zm1 0h1v1h-1z"/><path fill="#015557" d="M11 16h1v1h-1z"/><path fill="#f4f4e6" d="M12 16h1v1h-1zm1 0h1v1h-1zm1 0h1v1h-1zm1 0h1v1h-1zm1 0h1v1h-1zm1 0h1v1h-1zm1 0h1v1h-1zm1 0h1v1h-1zm1 0h1v1h-1zm1 0h1v1h-1zm1 0h1v1h-1zm1 0h1v1h-1zM0 17h1v1H0zm1 0h1v1H1z"/><path fill="#005982" d="M2 17h1v1H2z"/><path fill="#00a837" d="M3 17h1v1H3zm1 0h1v1H4zm1 0h1v1H5z"/><path fill="#7cc623" d="M6 17h1v1H6zm1 0h1v1H7zm1 0h1v1H8zm1 0h1v1H9z"/><path fill="#00a837" d="M10 17h1v1h-1z"/><path fill="#015557" d="M11 17h1v1h-1z"/><path fill="#f4f4e6" d="M12 17h1v1h-1zm1 0h1v1h-1zm1 0h1v1h-1zm1 0h1v1h-1zm1 0h1v1h-1zm1 0h1v1h-1zm1 0h1v1h-1zm1 0h1v1h-1zm1 0h1v1h-1zm1 0h1v1h-1zm1 0h1v1h-1zm1 0h1v1h-1zM0 18h1v1H0zm1 0h1v1H1zm1 0h1v1H2z"/><path fill="#005982" d="M3 18h1v1H3zm1 0h1v1H4z"/><path fill="#00a837" d="M5 18h1v1H5zm1 0h1v1H6z"/><path fill="#7cc623" d="M7 18h1v1H7zm1 0h1v1H8z"/><path fill="#015557" d="M9 18h1v1H9zm1 0h1v1h-1z"/><path fill="#f4f4e6" d="M11 18h1v1h-1zm1 0h1v1h-1zm1 0h1v1h-1zm1 0h1v1h-1zm1 0h1v1h-1zm1 0h1v1h-1zm1 0h1v1h-1zm1 0h1v1h-1zm1 0h1v1h-1zm1 0h1v1h-1zm1 0h1v1h-1zm1 0h1v1h-1zm1 0h1v1h-1zM0 19h1v1H0zm1 0h1v1H1z"/><path fill="#93d4e0" d="M2 19h1v1H2z"/><path fill="#4bb8eb" d="M3 19h1v1H3z"/><path fill="#425599" d="M4 19h1v1H4z"/><path fill="#005982" d="M5 19h1v1H5z"/><path fill="#be7332" d="M6 19h1v1H6zm1 0h1v1H7z"/><path fill="#015557" d="M8 19h1v1H8z"/><path fill="#425599" d="M9 19h1v1H9z"/><path fill="#4bb8eb" d="M10 19h1v1h-1z"/><path fill="#93d4e0" d="M11 19h1v1h-1z"/><path fill="#f4f4e6" d="M12 19h1v1h-1zm1 0h1v1h-1zm1 0h1v1h-1zm1 0h1v1h-1zm1 0h1v1h-1zm1 0h1v1h-1zm1 0h1v1h-1zm1 0h1v1h-1zm1 0h1v1h-1zm1 0h1v1h-1zm1 0h1v1h-1zm1 0h1v1h-1zM0 20h1v1H0zm1 0h1v1H1z"/><path fill="#4bb8eb" d="M2 20h1v1H2zm1 0h1v1H3zm1 0h1v1H4z"/><path fill="#7b8ed3" d="M5 20h1v1H5zm1 0h1v1H6zm1 0h1v1H7zm1 0h1v1H8z"/><path fill="#4bb8eb" d="M9 20h1v1H9zm1 0h1v1h-1zm1 0h1v1h-1z"/><path fill="#f4f4e6" d="M12 20h1v1h-1zm1 0h1v1h-1zm1 0h1v1h-1zm1 0h1v1h-1zm1 0h1v1h-1zm1 0h1v1h-1zm1 0h1v1h-1zm1 0h1v1h-1zm1 0h1v1h-1zm1 0h1v1h-1zm1 0h1v1h-1zm1 0h1v1h-1zM0 21h1v1H0zm1 0h1v1H1z"/><path fill="#93d4e0" d="M2 21h1v1H2z"/><path fill="#4bb8eb" d="M3 21h1v1H3zm1 0h1v1H4zm1 0h1v1H5zm1 0h1v1H6zm1 0h1v1H7zm1 0h1v1H8zm1 0h1v1H9zm1 0h1v1h-1z"/><path fill="#93d4e0" d="M11 21h1v1h-1z"/><path fill="#f4f4e6" d="M12 21h1v1h-1zm1 0h1v1h-1zm1 0h1v1h-1zm1 0h1v1h-1zm1 0h1v1h-1zm1 0h1v1h-1zm1 0h1v1h-1zm1 0h1v1h-1zm1 0h1v1h-1zm1 0h1v1h-1zm1 0h1v1h-1zm1 0h1v1h-1zM0 22h1v1H0zm1 0h1v1H1zm1 0h1v1H2zm1 0h1v1H3z"/><path fill="#93d4e0" d="M4 22h1v1H4z"/><path fill="#4bb8eb" d="M5 22h1v1H5zm1 0h1v1H6zm1 0h1v1H7zm1 0h1v1H8z"/><path fill="#93d4e0" d="M9 22h1v1H9z"/><path fill="#f4f4e6" d="M10 22h1v1h-1zm1 0h1v1h-1zm1 0h1v1h-1zm1 0h1v1h-1zm1 0h1v1h-1zm1 0h1v1h-1zm1 0h1v1h-1zm1 0h1v1h-1zm1 0h1v1h-1zm1 0h1v1h-1zm1 0h1v1h-1zm1 0h1v1h-1zm1 0h1v1h-1zm1 0h1v1h-1zM0 23h1v1H0zm1 0h1v1H1zm1 0h1v1H2zm1 0h1v1H3zm1 0h1v1H4zm1 0h1v1H5zm1 0h1v1H6zm1 0h1v1H7zm1 0h1v1H8zm1 0h1v1H9zm1 0h1v1h-1zm1 0h1v1h-1zm1 0h1v1h-1zm1 0h1v1h-1zm1 0h1v1h-1zm1 0h1v1h-1zm1 0h1v1h-1zm1 0h1v1h-1zm1 0h1v1h-1zm1 0h1v1h-1zm1 0h1v1h-1zm1 0h1v1h-1zm1 0h1v1h-1zm1 0h1v1h-1z"/></svg>