<svg xmlns="http://www.w3.org/2000/svg" width="24" height="24" shape-rendering="crispEdges"><path fill="#f6f6de" d="M0 0h1v1H0zm1 0h1v1H1zm1 0h1v1H2zm1 0h1v1H3zm1 0h1v1H4zm1 0h1v1H5zm1 0h1v1H6zm1 0h1v1H7zm1 0h1v1H8zm1 0h1v1H9zm1 0h1v1h-1zm1 0h1v1h-1zm1 0h1v1h-1zm1 0h1v1h-1zm1 0h1v1h-1zm1 0h1v1h-1zm1 0h1v1h-1zm1 0h1v1h-1z"/><path fill="#c3e3d9" d="M18 0h1v1h-1z"/><path fill="#35a8c6" d="M19 0h1v1h-1z"/><path fill="#91d1d4" d="M20 0h1v1h-1zm1 0h1v1h-1z"/><path fill="#35a8c6" d="M22 0h1v1h-1zm1 0h1v1h-1z"/><path fill="#f6f6de" d="M0 1h1v1H0zm1 0h1v1H1zm1 0h1v1H2zm1 0h1v1H3zm1 0h1v1H4zm1 0h1v1H5zm1 0h1v1H6zm1 0h1v1H7zm1 0h1v1H8zm1 0h1v1H9zm1 0h1v1h-1zm1 0h1v1h-1zm1 0h1v1h-1zm1 0h1v1h-1zm1 0h1v1h-1zm1 0h1v1h-1zm1 0h1v1h-1zm1 0h1v1h-1z"/><path fill="#c3e3d9" d="M18 1h1v1h-1z"/><path fill="#91d1d4" d="M19 1h1v1h-1z"/><path fill="#f6f6de" d="M20 1h1v1h-1zm1 0h1v1h-1z"/><path fill="#c3e3d9" d="M22 1h1v1h-1z"/><path fill="#91d1d4" d="M23 1h1v1h-1z"/><path fill="#f6f6de" d="M0 2h1v1H0zm1 0h1v1H1zm1 0h1v1H2zm1 0h1v1H3zm1 0h1v1H4z"/><path fill="#c3e3d9" d="M5 2h1v1H5z"/><path fill="#91d1d4" d="M6 2h1v1H6zm1 0h1v1H7zm1 0h1v1H8zm1 0h1v1H9zm1 0h1v1h-1zm1 0h1v1h-1zm1 0h1v1h-1zm1 0h1v1h-1zm1 0h1v1h-1z"/><path fill="#c3e3d9" d="M15 2h1v1h-1z"/><path fill="#f6f6de" d="M16 2h1v1h-1zm1 0h1v1h-1z"/><path fill="#c3e3d9" d="M18 2h1v1h-1z"/><path fill="#91d1d4" d="M19 2h1v1h-1z"/><path fill="#f6f6de" d="M20 2h1v1h-1zm1 0h1v1h-1z"/><path fill="#c3e3d9" d="M22 2h1v1h-1z"/><path fill="#91d1d4" d="M23 2h1v1h-1z"/><path fill="#f6f6de" d="M0 3h1v1H0zm1 0h1v1H1zm1 0h1v1H2zm1 0h1v1H3z"/><path fill="#c3e3d9" d="M4 3h1v1H4zm1 0h1v1H5z"/><path fill="#91d1d4" d="M6 3h1v1H6z"/><path fill="#c3e3d9" d="M7 3h1v1H7z"/><path fill="#f6f6de" d="M8 3h1v1H8zm1 0h1v1H9zm1 0h1v1h-1zm1 0h1v1h-1zm1 0h1v1h-1zm1 0h1v1h-1zm1 0h1v1h-1z"/><path fill="#91d1d4" d="M15 3h1v1h-1z"/><path fill="#f6f6de" d="M16 3h1v1h-1zm1 0h1v1h-1z"/><path fill="#c3e3d9" d="M18 3h1v1h-1zm1 0h1v1h-1z"/><path fill="#91d1d4" d="M20 3h1v1h-1z"/><path fill="#f6f6de" d="M21 3h1v1h-1z"/><path fill="#c3e3d9" d="M22 3h1v1h-1z"/><path fill="#91d1d4" d="M23 3h1v1h-1z"/><path fill="#f6f6de" d="M0 4h1v1H0zm1 0h1v1H1zm1 0h1v1H2zm1 0h1v1H3z"/><path fill="#c3e3d9" d="M4 4h1v1H4zm1 0h1v1H5z"/><path fill="#91d1d4" d="M6 4h1v1H6z"/><path fill="#f6f6de" d="M7 4h1v1H7zm1 0h1v1H8zm1 0h1v1H9zm1 0h1v1h-1zm1 0h1v1h-1zm1 0h1v1h-1zm1 0h1v1h-1zm1 0h1v1h-1z"/><path fill="#91d1d4" d="M15 4h1v1h-1z"/><path fill="#c3e3d9" d="M16 4h1v1h-1z"/><path fill="#f6f6de" d="M17 4h1v1h-1zm1 0h1v1h-1z"/><path fill="#c3e3d9" d="M19 4h1v1h-1z"/><path fill="#91d1d4" d="M20 4h1v1h-1z"/><path fill="#f6f6de" d="M21 4h1v1h-1z"/><path fill="#c3e3d9" d="M22 4h1v1h-1z"/><path fill="#91d1d4" d="M23 4h1v1h-1z"/><path fill="#f6f6de" d="M0 5h1v1H0zm1 0h1v1H1zm1 0h1v1H2zm1 0h1v1H3z"/><path fill="#c3e3d9" d="M4 5h1v1H4zm1 0h1v1H5z"/><path fill="#91d1d4" d="M6 5h1v1H6z"/><path fill="#f6f6de" d="M7 5h1v1H7zm1 0h1v1H8zm1 0h1v1H9zm1 0h1v1h-1zm1 0h1v1h-1zm1 0h1v1h-1zm1 0h1v1h-1zm1 0h1v1h-1z"/><path fill="#91d1d4" d="M15 5h1v1h-1z"/><path fill="#c3e3d9" d="M16 5h1v1h-1z"/><path fill="#f6f6de" d="M17 5h1v1h-1zm1 0h1v1h-1z"/><path fill="#c3e3d9" d="M19 5h1v1h-1z"/><path fill="#91d1d4" d="M20 5h1v1h-1z"/><path fill="#f6f6de" d="M21 5h1v1h-1z"/><path fill="#c3e3d9" d="M22 5h1v1h-1z"/><path fill="#91d1d4" d="M23 5h1v1h-1z"/><path fill="#f6f6de" d="M0 6h1v1H0zm1 0h1v1H1zm1 0h1v1H2zm1 0h1v1H3z"/><path fill="#c3e3d9" d="M4 6h1v1H4zm1 0h1v1H5z"/><path fill="#35a8c6" d="M6 6h1v1H6z"/><path fill="#f6f6de" d="M7 6h1v1H7zm1 0h1v1H8zm1 0h1v1H9zm1 0h1v1h-1zm1 0h1v1h-1zm1 0h1v1h-1zm1 0h1v1h-1zm1 0h1v1h-1z"/><path fill="#91d1d4" d="M15 6h1v1h-1z"/><path fill="#c3e3d9" d="M16 6h1v1h-1zm1 0h1v1h-1z"/><path fill="#f6f6de" d="M18 6h1v1h-1z"/><path fill="#c3e3d9" d="M19 6h1v1h-1z"/><path fill="#91d1d4" d="M20 6h1v1h-1z"/><path fill="#f6f6de" d="M21 6h1v1h-1z"/><path fill="#c3e3d9" d="M22 6h1v1h-1z"/><path fill="#91d1d4" d="M23 6h1v1h-1z"/><path fill="#f6f6de" d="M0 7h1v1H0zm1 0h1v1H1zm1 0h1v1H2zm1 0h1v1H3zm1 0h1v1H4z"/><path fill="#c3e3d9" d="M5 7h1v1H5z"/><path fill="#91d1d4" d="M6 7h1v1H6z"/><path fill="#35a8c6" d="M7 7h1v1H7z"/><path fill="#f6f6de" d="M8 7h1v1H8zm1 0h1v1H9zm1 0h1v1h-1zm1 0h1v1h-1zm1 0h1v1h-1zm1 0h1v1h-1zm1 0h1v1h-1zm1 0h1v1h-1z"/><path fill="#91d1d4" d="M16 7h1v1h-1z"/><path fill="#c3e3d9" d="M17 7h1v1h-1z"/><path fill="#f6f6de" d="M18 7h1v1h-1z"/><path fill="#c3e3d9" d="M19 7h1v1h-1zm1 0h1v1h-1z"/><path fill="#91d1d4" d="M21 7h1v1h-1z"/><path fill="#c3e3d9" d="M22 7h1v1h-1z"/><path fill="#91d1d4" d="M23 7h1v1h-1z"/><path fill="#f6f6de" d="M0 8h1v1H0zm1 0h1v1H1zm1 0h1v1H2zm1 0h1v1H3zm1 0h1v1H4zm1 0h1v1H5zm1 0h1v1H6z"/><path fill="#91d1d4" d="M7 8h1v1H7z"/><path fill="#35a8c6" d="M8 8h1v1H8z"/><path fill="#405397" d="M9 8h1v1H9z"/><path fill="#35a8c6" d="M10 8h1v1h-1z"/><path fill="#f6f6de" d="M11 8h1v1h-1zm1 0h1v1h-1zm1 0h1v1h-1zm1 0h1v1h-1zm1 0h1v1h-1z"/><path fill="#91d1d4" d="M16 8h1v1h-1z"/><path fill="#c3e3d9" d="M17 8h1v1h-1z"/><path fill="#f6f6de" d="M18 8h1v1h-1z"/><path fill="#c3e3d9" d="M19 8h1v1h-1zm1 0h1v1h-1z"/><path fill="#91d1d4" d="M21 8h1v1h-1zm1 0h1v1h-1zm1 0h1v1h-1z"/><path fill="#f6f6de" d="M0 9h1v1H0zm1 0h1v1H1zm1 0h1v1H2zm1 0h1v1H3zm1 0h1v1H4z"/><path fill="#c3e3d9" d="M5 9h1v1H5zm1 0h1v1H6z"/><path fill="#35a8c6" d="M7 9h1v1H7z"/><path fill="#c3e3d9" d="M8 9h1v1H8z"/><path fill="#f6f6de" d="M9 9h1v1H9zm1 0h1v1h-1z"/><path fill="#405397" d="M11 9h1v1h-1z"/><path fill="#f6f6de" d="M12 9h1v1h-1zm1 0h1v1h-1zm1 0h1v1h-1zm1 0h1v1h-1z"/><path fill="#91d1d4" d="M16 9h1v1h-1z"/><path fill="#c3e3d9" d="M17 9h1v1h-1z"/><path fill="#f6f6de" d="M18 9h1v1h-1zm1 0h1v1h-1z"/><path fill="#c3e3d9" d="M20 9h1v1h-1z"/><path fill="#35a8c6" d="M21 9h1v1h-1z"/><path fill="#91d1d4" d="M22 9h1v1h-1zm1 0h1v1h-1z"/><path fill="#f6f6de" d="M0 10h1v1H0zm1 0h1v1H1zm1 0h1v1H2zm1 0h1v1H3zm1 0h1v1H4zm1 0h1v1H5zm1 0h1v1H6zm1 0h1v1H7zm1 0h1v1H8zm1 0h1v1H9zm1 0h1v1h-1z"/><path fill="#91d1d4" d="M11 10h1v1h-1z"/><path fill="#35a8c6" d="M12 10h1v1h-1z"/><path fill="#405397" d="M13 10h1v1h-1z"/><path fill="#f6f6de" d="M14 10h1v1h-1zm1 0h1v1h-1z"/><path fill="#35a8c6" d="M16 10h1v1h-1z"/><path fill="#c3e3d9" d="M17 10h1v1h-1z"/><path fill="#f6f6de" d="M18 10h1v1h-1zm1 0h1v1h-1zm1 0h1v1h-1z"/><path fill="#405397" d="M21 10h1v1h-1z"/><path fill="#35a8c6" d="M22 10h1v1h-1zm1 0h1v1h-1z"/><path fill="#f6f6de" d="M0 11h1v1H0zm1 0h1v1H1zm1 0h1v1H2zm1 0h1v1H3zm1 0h1v1H4zm1 0h1v1H5zm1 0h1v1H6zm1 0h1v1H7z"/><path fill="#c3e3d9" d="M8 11h1v1H8z"/><path fill="#91d1d4" d="M9 11h1v1H9zm1 0h1v1h-1z"/><path fill="#f6f6de" d="M11 11h1v1h-1z"/><path fill="#c3e3d9" d="M12 11h1v1h-1z"/><path fill="#91d1d4" d="M13 11h1v1h-1z"/><path fill="#405397" d="M14 11h1v1h-1z"/><path fill="#35a8c6" d="M15 11h1v1h-1z"/><path fill="#91d1d4" d="M16 11h1v1h-1z"/><path fill="#c3e3d9" d="M17 11h1v1h-1z"/><path fill="#f6f6de" d="M18 11h1v1h-1zm1 0h1v1h-1zm1 0h1v1h-1z"/><path fill="#c3e3d9" d="M21 11h1v1h-1z"/><path fill="#405397" d="M22 11h1v1h-1zm1 0h1v1h-1z"/><path fill="#f6f6de" d="M0 12h1v1H0zm1 0h1v1H1zm1 0h1v1H2zm1 0h1v1H3zm1 0h1v1H4zm1 0h1v1H5zm1 0h1v1H6zm1 0h1v1H7zm1 0h1v1H8zm1 0h1v1H9zm1 0h1v1h-1zm1 0h1v1h-1zm1 0h1v1h-1zm1 0h1v1h-1z"/><path fill="#c3e3d9" d="M14 12h1v1h-1zm1 0h1v1h-1zm1 0h1v1h-1z"/><path fill="#f6f6de" d="M17 12h1v1h-1zm1 0h1v1h-1zm1 0h1v1h-1zm1 0h1v1h-1zm1 0h1v1h-1zm1 0h1v1h-1z"/><path fill="#91d1d4" d="M23 12h1v1h-1z"/><path fill="#f6f6de" d="M0 13h1v1H0zm1 0h1v1H1zm1 0h1v1H2zm1 0h1v1H3zm1 0h1v1H4zm1 0h1v1H5zm1 0h1v1H6zm1 0h1v1H7zm1 0h1v1H8zm1 0h1v1H9zm1 0h1v1h-1zm1 0h1v1h-1zm1 0h1v1h-1zm1 0h1v1h-1zm1 0h1v1h-1zm1 0h1v1h-1zm1 0h1v1h-1zm1 0h1v1h-1zm1 0h1v1h-1zm1 0h1v1h-1zm1 0h1v1h-1zm1 0h1v1h-1zm1 0h1v1h-1zm1 0h1v1h-1zM0 14h1v1H0zm1 0h1v1H1zm1 0h1v1H2zm1 0h1v1H3zm1 0h1v1H4zm1 0h1v1H5zm1 0h1v1H6zm1 0h1v1H7zm1 0h1v1H8zm1 0h1v1H9zm1 0h1v1h-1zm1 0h1v1h-1zm1 0h1v1h-1zm1 0h1v1h-1zm1 0h1v1h-1zm1 0h1v1h-1z"/><path fill="#91d1d4" d="M16 14h1v1h-1z"/><path fill="#35a8c6" d="M17 14h1v1h-1z"/><path fill="#c3e3d9" d="M18 14h1v1h-1z"/><path fill="#f6f6de" d="M19 14h1v1h-1zm1 0h1v1h-1zm1 0h1v1h-1zm1 0h1v1h-1zm1 0h1v1h-1zM0 15h1v1H0zm1 0h1v1H1zm1 0h1v1H2zm1 0h1v1H3zm1 0h1v1H4zm1 0h1v1H5zm1 0h1v1H6zm1 0h1v1H7zm1 0h1v1H8zm1 0h1v1H9zm1 0h1v1h-1zm1 0h1v1h-1zm1 0h1v1h-1zm1 0h1v1h-1zm1 0h1v1h-1z"/><path fill="#91d1d4" d="M15 15h1v1h-1z"/><path fill="#f6f6de" d="M16 15h1v1h-1zm1 0h1v1h-1z"/><path fill="#35a8c6" d="M18 15h1v1h-1z"/><path fill="#c3e3d9" d="M19 15h1v1h-1z"/><path fill="#f6f6de" d="M20 15h1v1h-1zm1 0h1v1h-1zm1 0h1v1h-1zm1 0h1v1h-1zM0 16h1v1H0zm1 0h1v1H1zm1 0h1v1H2zm1 0h1v1H3zm1 0h1v1H4zm1 0h1v1H5zm1 0h1v1H6zm1 0h1v1H7zm1 0h1v1H8zm1 0h1v1H9zm1 0h1v1h-1zm1 0h1v1h-1zm1 0h1v1h-1zm1 0h1v1h-1zm1 0h1v1h-1zm1 0h1v1h-1zm1 0h1v1h-1z"/><path fill="#c3e3d9" d="M17 16h1v1h-1zm1 0h1v1h-1zm1 0h1v1h-1zm1 0h1v1h-1z"/><path fill="#f6f6de" d="M21 16h1v1h-1zm1 0h1v1h-1zm1 0h1v1h-1zM0 17h1v1H0zm1 0h1v1H1zm1 0h1v1H2zm1 0h1v1H3zm1 0h1v1H4zm1 0h1v1H5zm1 0h1v1H6zm1 0h1v1H7zm1 0h1v1H8zm1 0h1v1H9zm1 0h1v1h-1zm1 0h1v1h-1zm1 0h1v1h-1zm1 0h1v1h-1zm1 0h1v1h-1zm1 0h1v1h-1zm1 0h1v1h-1zm1 0h1v1h-1zm1 0h1v1h-1zm1 0h1v1h-1zm1 0h1v1h-1zm1 0h1v1h-1zm1 0h1v1h-1zm1 0h1v1h-1zM0 18h1v1H0zm1 0h1v1H1zm1 0h1v1H2zm1 0h1v1H3zm1 0h1v1H4zm1 0h1v1H5zm1 0h1v1H6zm1 0h1v1H7zm1 0h1v1H8zm1 0h1v1H9zm1 0h1v1h-1zm1 0h1v1h-1zm1 0h1v1h-1zm1 0h1v1h-1zm1 0h1v1h-1zm1 0h1v1h-1zm1 0h1v1h-1zm1 0h1v1h-1zm1 0h1v1h-1zm1 0h1v1h-1zm1 0h1v1h-1zm1 0h1v1h-1zm1 0h1v1h-1zm1 0h1v1h-1zM0 19h1v1H0zm1 0h1v1H1zm1 0h1v1H2zm1 0h1v1H3zm1 0h1v1H4zm1 0h1v1H5zm1 0h1v1H6zm1 0h1v1H7zm1 0h1v1H8zm1 0h1v1H9zm1 0h1v1h-1zm1 0h1v1h-1zm1 0h1v1h-1zm1 0h1v1h-1zm1 0h1v1h-1zm1 0h1v1h-1zm1 0h1v1h-1zm1 0h1v1h-1zm1 0h1v1h-1zm1 0h1v1h-1zm1 0h1v1h-1zm1 0h1v1h-1zm1 0h1v1h-1zm1 0h1v1h-1zM0 20h1v1H0zm1 0h1v1H1zm1 0h1v1H2zm1 0h1v1H3zm1 0h1v1H4zm1 0h1v1H5zm1 0h1v1H6zm1 0h1v1H7zm1 0h1v1H8zm1 0h1v1H9zm1 0h1v1h-1zm1 0h1v1h-1zm1 0h1v1h-1zm1 0h1v1h-1zm1 0h1v1h-1zm1 0h1v1h-1zm1 0h1v1h-1zm1 0h1v1h-1zm1 0h1v1h-1zm1 0h1v1h-1zm1 0h1v1h-1zm1 0h1v1h-1zm1 0h1v1h-1zm1 0h1v1h-1zM0 21h1v1H0zm1 0h1v1H1zm1 0h1v1H2zm1 0h1v1H3zm1 0h1v1H4zm1 0h1v1H5zm1 0h1v1H6zm1 0h1v1H7zm1 0h1v1H8zm1 0h1v1H9zm1 0h1v1h-1zm1 0h1v1h-1zm1 0h1v1h-1zm1 0h1v1h-1zm1 0h1v1h-1zm1 0h1v1h-1zm1 0h1v1h-1zm1 0h1v1h-1zm1 0h1v1h-1zm1 0h1v1h-1zm1 0h1v1h-1zm1 0h1v1h-1zm1 0h1v1h-1zm1 0h1v1h-1zM0 22h1v1H0zm1 0h1v1H1zm1 0h1v1H2zm1 0h1v1H3zm1 0h1v1H4zm1 0h1v1H5zm1 0h1v1H6zm1 0h1v1H7zm1 0h1v1H8zm1 0h1v1H9zm1 0h1v1h-1zm1 0h1v1h-1zm1 0h1v1h-1zm1 0h1v1h-1zm1 0h1v1h-1zm1 0h1v1h-1zm1 0h1v1h-1zm1 0h1v1h-1zm1 0h1v1h-1zm1 0h1v1h-1zm1 0h1v1h-1zm1 0h1v1h-1zm1 0h1v1h-1zm1 0h1v1h-1zM0 23h1v1H0zm1 0h1v1H1zm1 0h1v1H2zm1 0h1v1H3zm1 0h1v1H4zm1 0h1v1H5zm1 0h1v1H6zm1 0h1v1H7zm1 0h1v1H8zm1 0h1v1H9zm1 0h1v1h-1zm1 0h1v1h-1zm1 0h1v1h-1zm1 0h1v1h-1zm1 0h1v1h-1zm1 0h1v1h-1zm1 0h1v1h-1zm1 0h1v1h-1zm1 0h1v1h-1zm1 0h1v1h-1zm1 0h1v1h-1zm1 0h1v1h-1zm1 0h1v1h-1zm1 0h1v1h-1z"/></svg>