<svg xmlns="http://www.w3.org/2000/svg" width="24" height="24" shape-rendering="crispEdges"><path fill="#7789b8" d="M0 0h1v1H0z"/><path fill="#35a8c6" d="M1 0h1v1H1zm1 0h1v1H2z"/><path fill="#c3e3d9" d="M3 0h1v1H3z"/><path fill="#35a8c6" d="M4 0h1v1H4z"/><path fill="#91d1d4" d="M5 0h1v1H5z"/><path fill="#35a8c6" d="M6 0h1v1H6z"/><path fill="#c3e3d9" d="M7 0h1v1H7z"/><path fill="#f6f6de" d="M8 0h1v1H8zm1 0h1v1H9zm1 0h1v1h-1z"/><path fill="#c3e3d9" d="M11 0h1v1h-1z"/><path fill="#91d1d4" d="M12 0h1v1h-1z"/><path fill="#c3e3d9" d="M13 0h1v1h-1zm1 0h1v1h-1z"/><path fill="#f6f6de" d="M15 0h1v1h-1zm1 0h1v1h-1zm1 0h1v1h-1zm1 0h1v1h-1zm1 0h1v1h-1zm1 0h1v1h-1zm1 0h1v1h-1zm1 0h1v1h-1zm1 0h1v1h-1z"/><path fill="#91d1d4" d="M0 1h1v1H0zm1 0h1v1H1z"/><path fill="#f6f6de" d="M2 1h1v1H2z"/><path fill="#35a8c6" d="M3 1h1v1H3z"/><path fill="#f6f6de" d="M4 1h1v1H4zm1 0h1v1H5z"/><path fill="#91d1d4" d="M6 1h1v1H6z"/><path fill="#f6f6de" d="M7 1h1v1H7zm1 0h1v1H8zm1 0h1v1H9zm1 0h1v1h-1zm1 0h1v1h-1zm1 0h1v1h-1z"/><path fill="#91d1d4" d="M13 1h1v1h-1z"/><path fill="#c3e3d9" d="M14 1h1v1h-1z"/><path fill="#f6f6de" d="M15 1h1v1h-1zm1 0h1v1h-1zm1 0h1v1h-1zm1 0h1v1h-1zm1 0h1v1h-1zm1 0h1v1h-1zm1 0h1v1h-1zm1 0h1v1h-1zm1 0h1v1h-1z"/><path fill="#91d1d4" d="M0 2h1v1H0zm1 0h1v1H1z"/><path fill="#f6f6de" d="M2 2h1v1H2zm1 0h1v1H3z"/><path fill="#91d1d4" d="M4 2h1v1H4z"/><path fill="#f6f6de" d="M5 2h1v1H5z"/><path fill="#c3e3d9" d="M6 2h1v1H6z"/><path fill="#f6f6de" d="M7 2h1v1H7zm1 0h1v1H8zm1 0h1v1H9zm1 0h1v1h-1zm1 0h1v1h-1zm1 0h1v1h-1z"/><path fill="#91d1d4" d="M13 2h1v1h-1z"/><path fill="#c3e3d9" d="M14 2h1v1h-1z"/><path fill="#f6f6de" d="M15 2h1v1h-1zm1 0h1v1h-1zm1 0h1v1h-1zm1 0h1v1h-1zm1 0h1v1h-1zm1 0h1v1h-1zm1 0h1v1h-1zm1 0h1v1h-1zm1 0h1v1h-1z"/><path fill="#91d1d4" d="M0 3h1v1H0zm1 0h1v1H1z"/><path fill="#f6f6de" d="M2 3h1v1H2zm1 0h1v1H3zm1 0h1v1H4z"/><path fill="#91d1d4" d="M5 3h1v1H5z"/><path fill="#f6f6de" d="M6 3h1v1H6zm1 0h1v1H7zm1 0h1v1H8zm1 0h1v1H9zm1 0h1v1h-1zm1 0h1v1h-1z"/><path fill="#c3e3d9" d="M12 3h1v1h-1z"/><path fill="#91d1d4" d="M13 3h1v1h-1z"/><path fill="#c3e3d9" d="M14 3h1v1h-1z"/><path fill="#f6f6de" d="M15 3h1v1h-1zm1 0h1v1h-1zm1 0h1v1h-1zm1 0h1v1h-1zm1 0h1v1h-1zm1 0h1v1h-1zm1 0h1v1h-1zm1 0h1v1h-1zm1 0h1v1h-1z"/><path fill="#91d1d4" d="M0 4h1v1H0zm1 0h1v1H1z"/><path fill="#f6f6de" d="M2 4h1v1H2zm1 0h1v1H3zm1 0h1v1H4z"/><path fill="#c3e3d9" d="M5 4h1v1H5z"/><path fill="#f6f6de" d="M6 4h1v1H6zm1 0h1v1H7zm1 0h1v1H8zm1 0h1v1H9zm1 0h1v1h-1zm1 0h1v1h-1zm1 0h1v1h-1z"/><path fill="#c3e3d9" d="M13 4h1v1h-1zm1 0h1v1h-1z"/><path fill="#f6f6de" d="M15 4h1v1h-1zm1 0h1v1h-1zm1 0h1v1h-1zm1 0h1v1h-1zm1 0h1v1h-1zm1 0h1v1h-1zm1 0h1v1h-1zm1 0h1v1h-1zm1 0h1v1h-1z"/><path fill="#91d1d4" d="M0 5h1v1H0zm1 0h1v1H1z"/><path fill="#f6f6de" d="M2 5h1v1H2zm1 0h1v1H3zm1 0h1v1H4z"/><path fill="#c3e3d9" d="M5 5h1v1H5z"/><path fill="#f6f6de" d="M6 5h1v1H6zm1 0h1v1H7zm1 0h1v1H8zm1 0h1v1H9z"/><path fill="#c3e3d9" d="M10 5h1v1h-1z"/><path fill="#f6f6de" d="M11 5h1v1h-1zm1 0h1v1h-1z"/><path fill="#c3e3d9" d="M13 5h1v1h-1z"/><path fill="#f6f6de" d="M14 5h1v1h-1zm1 0h1v1h-1zm1 0h1v1h-1zm1 0h1v1h-1zm1 0h1v1h-1zm1 0h1v1h-1zm1 0h1v1h-1zm1 0h1v1h-1zm1 0h1v1h-1zm1 0h1v1h-1z"/><path fill="#91d1d4" d="M0 6h1v1H0zm1 0h1v1H1z"/><path fill="#f6f6de" d="M2 6h1v1H2zm1 0h1v1H3z"/><path fill="#c3e3d9" d="M4 6h1v1H4z"/><path fill="#f6f6de" d="M5 6h1v1H5zm1 0h1v1H6zm1 0h1v1H7zm1 0h1v1H8zm1 0h1v1H9z"/><path fill="#35a8c6" d="M10 6h1v1h-1z"/><path fill="#c3e3d9" d="M11 6h1v1h-1z"/><path fill="#f6f6de" d="M12 6h1v1h-1zm1 0h1v1h-1zm1 0h1v1h-1zm1 0h1v1h-1zm1 0h1v1h-1zm1 0h1v1h-1zm1 0h1v1h-1zm1 0h1v1h-1zm1 0h1v1h-1zm1 0h1v1h-1zm1 0h1v1h-1zm1 0h1v1h-1z"/><path fill="#91d1d4" d="M0 7h1v1H0zm1 0h1v1H1z"/><path fill="#f6f6de" d="M2 7h1v1H2zm1 0h1v1H3z"/><path fill="#c3e3d9" d="M4 7h1v1H4z"/><path fill="#f6f6de" d="M5 7h1v1H5zm1 0h1v1H6zm1 0h1v1H7z"/><path fill="#35a8c6" d="M8 7h1v1H8zm1 0h1v1H9z"/><path fill="#91d1d4" d="M10 7h1v1h-1z"/><path fill="#c3e3d9" d="M11 7h1v1h-1z"/><path fill="#f6f6de" d="M12 7h1v1h-1zm1 0h1v1h-1zm1 0h1v1h-1zm1 0h1v1h-1zm1 0h1v1h-1zm1 0h1v1h-1zm1 0h1v1h-1zm1 0h1v1h-1zm1 0h1v1h-1zm1 0h1v1h-1zm1 0h1v1h-1zm1 0h1v1h-1z"/><path fill="#91d1d4" d="M0 8h1v1H0zm1 0h1v1H1z"/><path fill="#f6f6de" d="M2 8h1v1H2zm1 0h1v1H3z"/><path fill="#7789b8" d="M4 8h1v1H4zm1 0h1v1H5z"/><path fill="#35a8c6" d="M6 8h1v1H6zm1 0h1v1H7z"/><path fill="#91d1d4" d="M8 8h1v1H8z"/><path fill="#c3e3d9" d="M9 8h1v1H9z"/><path fill="#f6f6de" d="M10 8h1v1h-1zm1 0h1v1h-1zm1 0h1v1h-1zm1 0h1v1h-1zm1 0h1v1h-1zm1 0h1v1h-1z"/><path fill="#91d1d4" d="M16 8h1v1h-1z"/><path fill="#35a8c6" d="M17 8h1v1h-1z"/><path fill="#91d1d4" d="M18 8h1v1h-1z"/><path fill="#f6f6de" d="M19 8h1v1h-1zm1 0h1v1h-1zm1 0h1v1h-1zm1 0h1v1h-1zm1 0h1v1h-1z"/><path fill="#91d1d4" d="M0 9h1v1H0zm1 0h1v1H1z"/><path fill="#f6f6de" d="M2 9h1v1H2zm1 0h1v1H3z"/><path fill="#35a8c6" d="M4 9h1v1H4z"/><path fill="#91d1d4" d="M5 9h1v1H5zm1 0h1v1H6z"/><path fill="#c3e3d9" d="M7 9h1v1H7z"/><path fill="#f6f6de" d="M8 9h1v1H8zm1 0h1v1H9zm1 0h1v1h-1zm1 0h1v1h-1zm1 0h1v1h-1zm1 0h1v1h-1zm1 0h1v1h-1z"/><path fill="#91d1d4" d="M15 9h1v1h-1z"/><path fill="#f6f6de" d="M16 9h1v1h-1zm1 0h1v1h-1z"/><path fill="#35a8c6" d="M18 9h1v1h-1z"/><path fill="#91d1d4" d="M19 9h1v1h-1z"/><path fill="#f6f6de" d="M20 9h1v1h-1zm1 0h1v1h-1zm1 0h1v1h-1zm1 0h1v1h-1z"/><path fill="#91d1d4" d="M0 10h1v1H0zm1 0h1v1H1z"/><path fill="#35a8c6" d="M2 10h1v1H2zm1 0h1v1H3z"/><path fill="#91d1d4" d="M4 10h1v1H4z"/><path fill="#c3e3d9" d="M5 10h1v1H5z"/><path fill="#f6f6de" d="M6 10h1v1H6zm1 0h1v1H7zm1 0h1v1H8zm1 0h1v1H9zm1 0h1v1h-1zm1 0h1v1h-1zm1 0h1v1h-1zm1 0h1v1h-1zm1 0h1v1h-1zm1 0h1v1h-1zm1 0h1v1h-1zm1 0h1v1h-1zm1 0h1v1h-1zm1 0h1v1h-1zm1 0h1v1h-1zm1 0h1v1h-1zm1 0h1v1h-1zm1 0h1v1h-1z"/><path fill="#405397" d="M0 11h1v1H0zm1 0h1v1H1z"/><path fill="#91d1d4" d="M2 11h1v1H2z"/><path fill="#c3e3d9" d="M3 11h1v1H3z"/><path fill="#f6f6de" d="M4 11h1v1H4zm1 0h1v1H5zm1 0h1v1H6zm1 0h1v1H7zm1 0h1v1H8zm1 0h1v1H9zm1 0h1v1h-1zm1 0h1v1h-1zm1 0h1v1h-1zm1 0h1v1h-1zm1 0h1v1h-1zm1 0h1v1h-1zm1 0h1v1h-1zm1 0h1v1h-1zm1 0h1v1h-1zm1 0h1v1h-1zm1 0h1v1h-1zm1 0h1v1h-1zm1 0h1v1h-1zm1 0h1v1h-1z"/><path fill="#91d1d4" d="M0 12h1v1H0z"/><path fill="#c3e3d9" d="M1 12h1v1H1z"/><path fill="#f6f6de" d="M2 12h1v1H2zm1 0h1v1H3zm1 0h1v1H4zm1 0h1v1H5zm1 0h1v1H6zm1 0h1v1H7zm1 0h1v1H8zm1 0h1v1H9zm1 0h1v1h-1zm1 0h1v1h-1zm1 0h1v1h-1zm1 0h1v1h-1zm1 0h1v1h-1zm1 0h1v1h-1zm1 0h1v1h-1zm1 0h1v1h-1zm1 0h1v1h-1zm1 0h1v1h-1zm1 0h1v1h-1zm1 0h1v1h-1zm1 0h1v1h-1zm1 0h1v1h-1zM0 13h1v1H0zm1 0h1v1H1zm1 0h1v1H2zm1 0h1v1H3zm1 0h1v1H4zm1 0h1v1H5zm1 0h1v1H6zm1 0h1v1H7zm1 0h1v1H8zm1 0h1v1H9zm1 0h1v1h-1zm1 0h1v1h-1zm1 0h1v1h-1zm1 0h1v1h-1zm1 0h1v1h-1zm1 0h1v1h-1zm1 0h1v1h-1zm1 0h1v1h-1zm1 0h1v1h-1zm1 0h1v1h-1zm1 0h1v1h-1zm1 0h1v1h-1zm1 0h1v1h-1zm1 0h1v1h-1zM0 14h1v1H0zm1 0h1v1H1zm1 0h1v1H2zm1 0h1v1H3z"/><path fill="#91d1d4" d="M4 14h1v1H4z"/><path fill="#c3e3d9" d="M5 14h1v1H5z"/><path fill="#f6f6de" d="M6 14h1v1H6zm1 0h1v1H7zm1 0h1v1H8zm1 0h1v1H9zm1 0h1v1h-1zm1 0h1v1h-1zm1 0h1v1h-1zm1 0h1v1h-1zm1 0h1v1h-1zm1 0h1v1h-1zm1 0h1v1h-1zm1 0h1v1h-1zm1 0h1v1h-1zm1 0h1v1h-1zm1 0h1v1h-1zm1 0h1v1h-1zm1 0h1v1h-1zm1 0h1v1h-1zM0 15h1v1H0zm1 0h1v1H1zm1 0h1v1H2z"/><path fill="#91d1d4" d="M3 15h1v1H3z"/><path fill="#f6f6de" d="M4 15h1v1H4z"/><path fill="#35a8c6" d="M5 15h1v1H5z"/><path fill="#c3e3d9" d="M6 15h1v1H6z"/><path fill="#f6f6de" d="M7 15h1v1H7zm1 0h1v1H8zm1 0h1v1H9zm1 0h1v1h-1zm1 0h1v1h-1zm1 0h1v1h-1zm1 0h1v1h-1zm1 0h1v1h-1zm1 0h1v1h-1zm1 0h1v1h-1zm1 0h1v1h-1zm1 0h1v1h-1zm1 0h1v1h-1zm1 0h1v1h-1zm1 0h1v1h-1zm1 0h1v1h-1zm1 0h1v1h-1zM0 16h1v1H0zm1 0h1v1H1zm1 0h1v1H2zm1 0h1v1H3zm1 0h1v1H4zm1 0h1v1H5zm1 0h1v1H6zm1 0h1v1H7zm1 0h1v1H8zm1 0h1v1H9zm1 0h1v1h-1zm1 0h1v1h-1z"/><path fill="#c3e3d9" d="M12 16h1v1h-1z"/><path fill="#91d1d4" d="M13 16h1v1h-1z"/><path fill="#35a8c6" d="M14 16h1v1h-1zm1 0h1v1h-1zm1 0h1v1h-1z"/><path fill="#f6f6de" d="M17 16h1v1h-1zm1 0h1v1h-1zm1 0h1v1h-1zm1 0h1v1h-1zm1 0h1v1h-1zm1 0h1v1h-1zm1 0h1v1h-1zM0 17h1v1H0zm1 0h1v1H1zm1 0h1v1H2zm1 0h1v1H3zm1 0h1v1H4zm1 0h1v1H5zm1 0h1v1H6zm1 0h1v1H7zm1 0h1v1H8zm1 0h1v1H9zm1 0h1v1h-1z"/><path fill="#91d1d4" d="M11 17h1v1h-1z"/><path fill="#c3e3d9" d="M12 17h1v1h-1z"/><path fill="#f6f6de" d="M13 17h1v1h-1zm1 0h1v1h-1zm1 0h1v1h-1zm1 0h1v1h-1z"/><path fill="#35a8c6" d="M17 17h1v1h-1z"/><path fill="#91d1d4" d="M18 17h1v1h-1z"/><path fill="#f6f6de" d="M19 17h1v1h-1zm1 0h1v1h-1zm1 0h1v1h-1zm1 0h1v1h-1zm1 0h1v1h-1zM0 18h1v1H0zm1 0h1v1H1zm1 0h1v1H2zm1 0h1v1H3zm1 0h1v1H4zm1 0h1v1H5zm1 0h1v1H6zm1 0h1v1H7zm1 0h1v1H8z"/><path fill="#c3e3d9" d="M9 18h1v1H9z"/><path fill="#91d1d4" d="M10 18h1v1h-1z"/><path fill="#f6f6de" d="M11 18h1v1h-1zm1 0h1v1h-1zm1 0h1v1h-1zm1 0h1v1h-1zm1 0h1v1h-1zm1 0h1v1h-1zm1 0h1v1h-1z"/><path fill="#35a8c6" d="M18 18h1v1h-1z"/><path fill="#91d1d4" d="M19 18h1v1h-1z"/><path fill="#f6f6de" d="M20 18h1v1h-1zm1 0h1v1h-1zm1 0h1v1h-1zm1 0h1v1h-1zM0 19h1v1H0zm1 0h1v1H1zm1 0h1v1H2zm1 0h1v1H3zm1 0h1v1H4zm1 0h1v1H5zm1 0h1v1H6zm1 0h1v1H7zm1 0h1v1H8zm1 0h1v1H9zm1 0h1v1h-1zm1 0h1v1h-1zm1 0h1v1h-1zm1 0h1v1h-1zm1 0h1v1h-1zm1 0h1v1h-1zm1 0h1v1h-1zm1 0h1v1h-1zm1 0h1v1h-1zm1 0h1v1h-1z"/><path fill="#91d1d4" d="M20 19h1v1h-1z"/><path fill="#f6f6de" d="M21 19h1v1h-1zm1 0h1v1h-1zm1 0h1v1h-1zM0 20h1v1H0zm1 0h1v1H1zm1 0h1v1H2zm1 0h1v1H3zm1 0h1v1H4zm1 0h1v1H5zm1 0h1v1H6zm1 0h1v1H7zm1 0h1v1H8zm1 0h1v1H9zm1 0h1v1h-1zm1 0h1v1h-1zm1 0h1v1h-1zm1 0h1v1h-1zm1 0h1v1h-1zm1 0h1v1h-1zm1 0h1v1h-1zm1 0h1v1h-1z"/><path fill="#c3e3d9" d="M18 20h1v1h-1z"/><path fill="#91d1d4" d="M19 20h1v1h-1z"/><path fill="#f6f6de" d="M20 20h1v1h-1zm1 0h1v1h-1zm1 0h1v1h-1zm1 0h1v1h-1zM0 21h1v1H0zm1 0h1v1H1zm1 0h1v1H2zm1 0h1v1H3zm1 0h1v1H4zm1 0h1v1H5zm1 0h1v1H6zm1 0h1v1H7zm1 0h1v1H8zm1 0h1v1H9zm1 0h1v1h-1zm1 0h1v1h-1zm1 0h1v1h-1zm1 0h1v1h-1zm1 0h1v1h-1zm1 0h1v1h-1zm1 0h1v1h-1zm1 0h1v1h-1zm1 0h1v1h-1zm1 0h1v1h-1zm1 0h1v1h-1zm1 0h1v1h-1zm1 0h1v1h-1zm1 0h1v1h-1zM0 22h1v1H0zm1 0h1v1H1zm1 0h1v1H2zm1 0h1v1H3zm1 0h1v1H4zm1 0h1v1H5zm1 0h1v1H6zm1 0h1v1H7zm1 0h1v1H8zm1 0h1v1H9zm1 0h1v1h-1zm1 0h1v1h-1zm1 0h1v1h-1zm1 0h1v1h-1zm1 0h1v1h-1zm1 0h1v1h-1zm1 0h1v1h-1zm1 0h1v1h-1zm1 0h1v1h-1zm1 0h1v1h-1zm1 0h1v1h-1zm1 0h1v1h-1zm1 0h1v1h-1zm1 0h1v1h-1zM0 23h1v1H0zm1 0h1v1H1zm1 0h1v1H2zm1 0h1v1H3zm1 0h1v1H4zm1 0h1v1H5zm1 0h1v1H6zm1 0h1v1H7zm1 0h1v1H8zm1 0h1v1H9zm1 0h1v1h-1zm1 0h1v1h-1zm1 0h1v1h-1zm1 0h1v1h-1zm1 0h1v1h-1zm1 0h1v1h-1zm1 0h1v1h-1zm1 0h1v1h-1zm1 0h1v1h-1zm1 0h1v1h-1zm1 0h1v1h-1zm1 0h1v1h-1zm1 0h1v1h-1zm1 0h1v1h-1z"/></svg>