<svg xmlns="http://www.w3.org/2000/svg" width="24" height="24" shape-rendering="crispEdges"><path fill="#405397" d="M0 0h1v1H0z"/><path fill="#91d1d4" d="M1 0h1v1H1zm1 0h1v1H2z"/><path fill="#f6f6de" d="M3 0h1v1H3z"/><path fill="#7789b8" d="M4 0h1v1H4zm1 0h1v1H5z"/><path fill="#405397" d="M6 0h1v1H6z"/><path fill="#35a8c6" d="M7 0h1v1H7z"/><path fill="#f6f6de" d="M8 0h1v1H8z"/><path fill="#91d1d4" d="M9 0h1v1H9z"/><path fill="#f6f6de" d="M10 0h1v1h-1zm1 0h1v1h-1zm1 0h1v1h-1zm1 0h1v1h-1z"/><path fill="#91d1d4" d="M14 0h1v1h-1z"/><path fill="#f6f6de" d="M15 0h1v1h-1z"/><path fill="#35a8c6" d="M16 0h1v1h-1z"/><path fill="#405397" d="M17 0h1v1h-1z"/><path fill="#7789b8" d="M18 0h1v1h-1zm1 0h1v1h-1z"/><path fill="#f6f6de" d="M20 0h1v1h-1z"/><path fill="#91d1d4" d="M21 0h1v1h-1zm1 0h1v1h-1z"/><path fill="#405397" d="M23 0h1v1h-1z"/><path fill="#35a8c6" d="M0 1h1v1H0z"/><path fill="#91d1d4" d="M1 1h1v1H1zm1 0h1v1H2z"/><path fill="#f6f6de" d="M3 1h1v1H3z"/><path fill="#7789b8" d="M4 1h1v1H4z"/><path fill="#35a8c6" d="M5 1h1v1H5zm1 0h1v1H6z"/><path fill="#405397" d="M7 1h1v1H7z"/><path fill="#f6f6de" d="M8 1h1v1H8z"/><path fill="#91d1d4" d="M9 1h1v1H9z"/><path fill="#f6f6de" d="M10 1h1v1h-1zm1 0h1v1h-1zm1 0h1v1h-1zm1 0h1v1h-1z"/><path fill="#91d1d4" d="M14 1h1v1h-1z"/><path fill="#f6f6de" d="M15 1h1v1h-1z"/><path fill="#405397" d="M16 1h1v1h-1z"/><path fill="#35a8c6" d="M17 1h1v1h-1zm1 0h1v1h-1z"/><path fill="#7789b8" d="M19 1h1v1h-1z"/><path fill="#f6f6de" d="M20 1h1v1h-1z"/><path fill="#91d1d4" d="M21 1h1v1h-1zm1 0h1v1h-1z"/><path fill="#7789b8" d="M23 1h1v1h-1z"/><path fill="#35a8c6" d="M0 2h1v1H0z"/><path fill="#91d1d4" d="M1 2h1v1H1zm1 0h1v1H2z"/><path fill="#f6f6de" d="M3 2h1v1H3z"/><path fill="#7789b8" d="M4 2h1v1H4z"/><path fill="#35a8c6" d="M5 2h1v1H5zm1 0h1v1H6z"/><path fill="#405397" d="M7 2h1v1H7z"/><path fill="#f6f6de" d="M8 2h1v1H8z"/><path fill="#35a8c6" d="M9 2h1v1H9z"/><path fill="#f6f6de" d="M10 2h1v1h-1zm1 0h1v1h-1zm1 0h1v1h-1zm1 0h1v1h-1z"/><path fill="#35a8c6" d="M14 2h1v1h-1z"/><path fill="#f6f6de" d="M15 2h1v1h-1z"/><path fill="#405397" d="M16 2h1v1h-1z"/><path fill="#35a8c6" d="M17 2h1v1h-1zm1 0h1v1h-1z"/><path fill="#7789b8" d="M19 2h1v1h-1z"/><path fill="#f6f6de" d="M20 2h1v1h-1z"/><path fill="#91d1d4" d="M21 2h1v1h-1zm1 0h1v1h-1z"/><path fill="#7789b8" d="M23 2h1v1h-1z"/><path fill="#35a8c6" d="M0 3h1v1H0z"/><path fill="#91d1d4" d="M1 3h1v1H1zm1 0h1v1H2z"/><path fill="#f6f6de" d="M3 3h1v1H3z"/><path fill="#7789b8" d="M4 3h1v1H4z"/><path fill="#35a8c6" d="M5 3h1v1H5zm1 0h1v1H6z"/><path fill="#405397" d="M7 3h1v1H7z"/><path fill="#f6f6de" d="M8 3h1v1H8z"/><path fill="#35a8c6" d="M9 3h1v1H9z"/><path fill="#f6f6de" d="M10 3h1v1h-1zm1 0h1v1h-1zm1 0h1v1h-1zm1 0h1v1h-1z"/><path fill="#35a8c6" d="M14 3h1v1h-1z"/><path fill="#f6f6de" d="M15 3h1v1h-1z"/><path fill="#405397" d="M16 3h1v1h-1z"/><path fill="#35a8c6" d="M17 3h1v1h-1zm1 0h1v1h-1z"/><path fill="#7789b8" d="M19 3h1v1h-1z"/><path fill="#f6f6de" d="M20 3h1v1h-1z"/><path fill="#91d1d4" d="M21 3h1v1h-1zm1 0h1v1h-1z"/><path fill="#35a8c6" d="M23 3h1v1h-1zM0 4h1v1H0z"/><path fill="#91d1d4" d="M1 4h1v1H1zm1 0h1v1H2z"/><path fill="#f6f6de" d="M3 4h1v1H3z"/><path fill="#7789b8" d="M4 4h1v1H4zm1 0h1v1H5z"/><path fill="#405397" d="M6 4h1v1H6z"/><path fill="#35a8c6" d="M7 4h1v1H7z"/><path fill="#f6f6de" d="M8 4h1v1H8z"/><path fill="#7789b8" d="M9 4h1v1H9z"/><path fill="#f6f6de" d="M10 4h1v1h-1zm1 0h1v1h-1zm1 0h1v1h-1zm1 0h1v1h-1z"/><path fill="#7789b8" d="M14 4h1v1h-1z"/><path fill="#f6f6de" d="M15 4h1v1h-1z"/><path fill="#35a8c6" d="M16 4h1v1h-1z"/><path fill="#405397" d="M17 4h1v1h-1z"/><path fill="#7789b8" d="M18 4h1v1h-1zm1 0h1v1h-1z"/><path fill="#f6f6de" d="M20 4h1v1h-1z"/><path fill="#91d1d4" d="M21 4h1v1h-1zm1 0h1v1h-1z"/><path fill="#35a8c6" d="M23 4h1v1h-1zM0 5h1v1H0z"/><path fill="#91d1d4" d="M1 5h1v1H1zm1 0h1v1H2z"/><path fill="#f6f6de" d="M3 5h1v1H3z"/><path fill="#7789b8" d="M4 5h1v1H4z"/><path fill="#91d1d4" d="M5 5h1v1H5z"/><path fill="#35a8c6" d="M6 5h1v1H6z"/><path fill="#f6f6de" d="M7 5h1v1H7zm1 0h1v1H8z"/><path fill="#7789b8" d="M9 5h1v1H9z"/><path fill="#405397" d="M10 5h1v1h-1zm1 0h1v1h-1zm1 0h1v1h-1zm1 0h1v1h-1z"/><path fill="#7789b8" d="M14 5h1v1h-1z"/><path fill="#f6f6de" d="M15 5h1v1h-1zm1 0h1v1h-1z"/><path fill="#35a8c6" d="M17 5h1v1h-1z"/><path fill="#91d1d4" d="M18 5h1v1h-1z"/><path fill="#7789b8" d="M19 5h1v1h-1z"/><path fill="#f6f6de" d="M20 5h1v1h-1z"/><path fill="#91d1d4" d="M21 5h1v1h-1zm1 0h1v1h-1z"/><path fill="#35a8c6" d="M23 5h1v1h-1zM0 6h1v1H0z"/><path fill="#91d1d4" d="M1 6h1v1H1zm1 0h1v1H2z"/><path fill="#f6f6de" d="M3 6h1v1H3z"/><path fill="#35a8c6" d="M4 6h1v1H4z"/><path fill="#91d1d4" d="M5 6h1v1H5z"/><path fill="#35a8c6" d="M6 6h1v1H6z"/><path fill="#f6f6de" d="M7 6h1v1H7zm1 0h1v1H8z"/><path fill="#7789b8" d="M9 6h1v1H9z"/><path fill="#91d1d4" d="M10 6h1v1h-1z"/><path fill="#35a8c6" d="M11 6h1v1h-1zm1 0h1v1h-1z"/><path fill="#91d1d4" d="M13 6h1v1h-1z"/><path fill="#7789b8" d="M14 6h1v1h-1z"/><path fill="#f6f6de" d="M15 6h1v1h-1zm1 0h1v1h-1z"/><path fill="#35a8c6" d="M17 6h1v1h-1z"/><path fill="#91d1d4" d="M18 6h1v1h-1z"/><path fill="#35a8c6" d="M19 6h1v1h-1z"/><path fill="#f6f6de" d="M20 6h1v1h-1z"/><path fill="#91d1d4" d="M21 6h1v1h-1zm1 0h1v1h-1z"/><path fill="#35a8c6" d="M23 6h1v1h-1zM0 7h1v1H0z"/><path fill="#91d1d4" d="M1 7h1v1H1zm1 0h1v1H2z"/><path fill="#f6f6de" d="M3 7h1v1H3z"/><path fill="#35a8c6" d="M4 7h1v1H4z"/><path fill="#91d1d4" d="M5 7h1v1H5z"/><path fill="#35a8c6" d="M6 7h1v1H6z"/><path fill="#f6f6de" d="M7 7h1v1H7z"/><path fill="#7789b8" d="M8 7h1v1H8zm1 0h1v1H9z"/><path fill="#91d1d4" d="M10 7h1v1h-1z"/><path fill="#35a8c6" d="M11 7h1v1h-1zm1 0h1v1h-1z"/><path fill="#91d1d4" d="M13 7h1v1h-1z"/><path fill="#7789b8" d="M14 7h1v1h-1zm1 0h1v1h-1z"/><path fill="#f6f6de" d="M16 7h1v1h-1z"/><path fill="#35a8c6" d="M17 7h1v1h-1z"/><path fill="#91d1d4" d="M18 7h1v1h-1z"/><path fill="#35a8c6" d="M19 7h1v1h-1z"/><path fill="#f6f6de" d="M20 7h1v1h-1z"/><path fill="#91d1d4" d="M21 7h1v1h-1zm1 0h1v1h-1z"/><path fill="#35a8c6" d="M23 7h1v1h-1zM0 8h1v1H0z"/><path fill="#91d1d4" d="M1 8h1v1H1zm1 0h1v1H2z"/><path fill="#f6f6de" d="M3 8h1v1H3z"/><path fill="#35a8c6" d="M4 8h1v1H4z"/><path fill="#91d1d4" d="M5 8h1v1H5z"/><path fill="#35a8c6" d="M6 8h1v1H6z"/><path fill="#f6f6de" d="M7 8h1v1H7z"/><path fill="#405397" d="M8 8h1v1H8z"/><path fill="#91d1d4" d="M9 8h1v1H9zm1 0h1v1h-1z"/><path fill="#35a8c6" d="M11 8h1v1h-1zm1 0h1v1h-1z"/><path fill="#91d1d4" d="M13 8h1v1h-1zm1 0h1v1h-1z"/><path fill="#405397" d="M15 8h1v1h-1z"/><path fill="#f6f6de" d="M16 8h1v1h-1z"/><path fill="#35a8c6" d="M17 8h1v1h-1z"/><path fill="#91d1d4" d="M18 8h1v1h-1z"/><path fill="#35a8c6" d="M19 8h1v1h-1z"/><path fill="#f6f6de" d="M20 8h1v1h-1z"/><path fill="#91d1d4" d="M21 8h1v1h-1zm1 0h1v1h-1z"/><path fill="#35a8c6" d="M23 8h1v1h-1zM0 9h1v1H0z"/><path fill="#91d1d4" d="M1 9h1v1H1zm1 0h1v1H2z"/><path fill="#f6f6de" d="M3 9h1v1H3z"/><path fill="#35a8c6" d="M4 9h1v1H4z"/><path fill="#91d1d4" d="M5 9h1v1H5z"/><path fill="#405397" d="M6 9h1v1H6z"/><path fill="#f6f6de" d="M7 9h1v1H7z"/><path fill="#405397" d="M8 9h1v1H8z"/><path fill="#f6f6de" d="M9 9h1v1H9zm1 0h1v1h-1z"/><path fill="#c3e3d9" d="M11 9h1v1h-1zm1 0h1v1h-1z"/><path fill="#f6f6de" d="M13 9h1v1h-1zm1 0h1v1h-1z"/><path fill="#405397" d="M15 9h1v1h-1z"/><path fill="#f6f6de" d="M16 9h1v1h-1z"/><path fill="#405397" d="M17 9h1v1h-1z"/><path fill="#91d1d4" d="M18 9h1v1h-1z"/><path fill="#35a8c6" d="M19 9h1v1h-1z"/><path fill="#f6f6de" d="M20 9h1v1h-1z"/><path fill="#91d1d4" d="M21 9h1v1h-1zm1 0h1v1h-1z"/><path fill="#7789b8" d="M23 9h1v1h-1z"/><path fill="#405397" d="M0 10h1v1H0z"/><path fill="#91d1d4" d="M1 10h1v1H1zm1 0h1v1H2z"/><path fill="#f6f6de" d="M3 10h1v1H3z"/><path fill="#35a8c6" d="M4 10h1v1H4z"/><path fill="#91d1d4" d="M5 10h1v1H5z"/><path fill="#35a8c6" d="M6 10h1v1H6z"/><path fill="#405397" d="M7 10h1v1H7zm1 0h1v1H8zm1 0h1v1H9z"/><path fill="#35a8c6" d="M10 10h1v1h-1z"/><path fill="#c3e3d9" d="M11 10h1v1h-1zm1 0h1v1h-1z"/><path fill="#35a8c6" d="M13 10h1v1h-1z"/><path fill="#405397" d="M14 10h1v1h-1zm1 0h1v1h-1zm1 0h1v1h-1z"/><path fill="#35a8c6" d="M17 10h1v1h-1z"/><path fill="#91d1d4" d="M18 10h1v1h-1z"/><path fill="#35a8c6" d="M19 10h1v1h-1z"/><path fill="#f6f6de" d="M20 10h1v1h-1z"/><path fill="#91d1d4" d="M21 10h1v1h-1zm1 0h1v1h-1z"/><path fill="#7789b8" d="M23 10h1v1h-1z"/><path fill="#405397" d="M0 11h1v1H0z"/><path fill="#91d1d4" d="M1 11h1v1H1zm1 0h1v1H2z"/><path fill="#f6f6de" d="M3 11h1v1H3z"/><path fill="#35a8c6" d="M4 11h1v1H4z"/><path fill="#91d1d4" d="M5 11h1v1H5z"/><path fill="#405397" d="M6 11h1v1H6z"/><path fill="#35a8c6" d="M7 11h1v1H7z"/><path fill="#405397" d="M8 11h1v1H8zm1 0h1v1H9z"/><path fill="#35a8c6" d="M10 11h1v1h-1z"/><path fill="#c3e3d9" d="M11 11h1v1h-1zm1 0h1v1h-1z"/><path fill="#35a8c6" d="M13 11h1v1h-1z"/><path fill="#405397" d="M14 11h1v1h-1zm1 0h1v1h-1z"/><path fill="#35a8c6" d="M16 11h1v1h-1z"/><path fill="#405397" d="M17 11h1v1h-1z"/><path fill="#91d1d4" d="M18 11h1v1h-1z"/><path fill="#35a8c6" d="M19 11h1v1h-1z"/><path fill="#f6f6de" d="M20 11h1v1h-1z"/><path fill="#91d1d4" d="M21 11h1v1h-1zm1 0h1v1h-1z"/><path fill="#7789b8" d="M23 11h1v1h-1z"/><path fill="#405397" d="M0 12h1v1H0z"/><path fill="#91d1d4" d="M1 12h1v1H1zm1 0h1v1H2z"/><path fill="#f6f6de" d="M3 12h1v1H3z"/><path fill="#7789b8" d="M4 12h1v1H4z"/><path fill="#35a8c6" d="M5 12h1v1H5zm1 0h1v1H6z"/><path fill="#405397" d="M7 12h1v1H7zm1 0h1v1H8z"/><path fill="#91d1d4" d="M9 12h1v1H9zm1 0h1v1h-1zm1 0h1v1h-1zm1 0h1v1h-1zm1 0h1v1h-1zm1 0h1v1h-1z"/><path fill="#405397" d="M15 12h1v1h-1zm1 0h1v1h-1z"/><path fill="#35a8c6" d="M17 12h1v1h-1zm1 0h1v1h-1z"/><path fill="#7789b8" d="M19 12h1v1h-1z"/><path fill="#f6f6de" d="M20 12h1v1h-1z"/><path fill="#91d1d4" d="M21 12h1v1h-1zm1 0h1v1h-1z"/><path fill="#405397" d="M23 12h1v1h-1zM0 13h1v1H0z"/><path fill="#91d1d4" d="M1 13h1v1H1z"/><path fill="#35a8c6" d="M2 13h1v1H2z"/><path fill="#91d1d4" d="M3 13h1v1H3z"/><path fill="#f6f6de" d="M4 13h1v1H4z"/><path fill="#7789b8" d="M5 13h1v1H5z"/><path fill="#35a8c6" d="M6 13h1v1H6zm1 0h1v1H7z"/><path fill="#405397" d="M8 13h1v1H8z"/><path fill="#35a8c6" d="M9 13h1v1H9z"/><path fill="#f6f6de" d="M10 13h1v1h-1zm1 0h1v1h-1zm1 0h1v1h-1zm1 0h1v1h-1z"/><path fill="#91d1d4" d="M14 13h1v1h-1z"/><path fill="#405397" d="M15 13h1v1h-1z"/><path fill="#35a8c6" d="M16 13h1v1h-1zm1 0h1v1h-1z"/><path fill="#7789b8" d="M18 13h1v1h-1z"/><path fill="#f6f6de" d="M19 13h1v1h-1z"/><path fill="#91d1d4" d="M20 13h1v1h-1z"/><path fill="#35a8c6" d="M21 13h1v1h-1z"/><path fill="#91d1d4" d="M22 13h1v1h-1z"/><path fill="#405397" d="M23 13h1v1h-1z"/><path fill="#35a8c6" d="M0 14h1v1H0z"/><path fill="#91d1d4" d="M1 14h1v1H1z"/><path fill="#35a8c6" d="M2 14h1v1H2zm1 0h1v1H3z"/><path fill="#91d1d4" d="M4 14h1v1H4z"/><path fill="#f6f6de" d="M5 14h1v1H5z"/><path fill="#7789b8" d="M6 14h1v1H6z"/><path fill="#405397" d="M7 14h1v1H7z"/><path fill="#c3e3d9" d="M8 14h1v1H8zm1 0h1v1H9z"/><path fill="#35a8c6" d="M10 14h1v1h-1z"/><path fill="#91d1d4" d="M11 14h1v1h-1zm1 0h1v1h-1zm1 0h1v1h-1z"/><path fill="#35a8c6" d="M14 14h1v1h-1z"/><path fill="#405397" d="M15 14h1v1h-1z"/><path fill="#35a8c6" d="M16 14h1v1h-1z"/><path fill="#7789b8" d="M17 14h1v1h-1z"/><path fill="#f6f6de" d="M18 14h1v1h-1z"/><path fill="#91d1d4" d="M19 14h1v1h-1z"/><path fill="#35a8c6" d="M20 14h1v1h-1zm1 0h1v1h-1z"/><path fill="#91d1d4" d="M22 14h1v1h-1z"/><path fill="#35a8c6" d="M23 14h1v1h-1zM0 15h1v1H0z"/><path fill="#91d1d4" d="M1 15h1v1H1zm1 0h1v1H2z"/><path fill="#7789b8" d="M3 15h1v1H3z"/><path fill="#35a8c6" d="M4 15h1v1H4z"/><path fill="#91d1d4" d="M5 15h1v1H5z"/><path fill="#f6f6de" d="M6 15h1v1H6z"/><path fill="#405397" d="M7 15h1v1H7z"/><path fill="#c3e3d9" d="M8 15h1v1H8z"/><path fill="#7789b8" d="M9 15h1v1H9zm1 0h1v1h-1zm1 0h1v1h-1z"/><path fill="#35a8c6" d="M12 15h1v1h-1zm1 0h1v1h-1z"/><path fill="#405397" d="M14 15h1v1h-1zm1 0h1v1h-1z"/><path fill="#7789b8" d="M16 15h1v1h-1z"/><path fill="#f6f6de" d="M17 15h1v1h-1z"/><path fill="#91d1d4" d="M18 15h1v1h-1z"/><path fill="#35a8c6" d="M19 15h1v1h-1z"/><path fill="#7789b8" d="M20 15h1v1h-1z"/><path fill="#91d1d4" d="M21 15h1v1h-1zm1 0h1v1h-1z"/><path fill="#35a8c6" d="M23 15h1v1h-1z"/><path fill="#c3e3d9" d="M0 16h1v1H0z"/><path fill="#91d1d4" d="M1 16h1v1H1zm1 0h1v1H2zm1 0h1v1H3z"/><path fill="#7789b8" d="M4 16h1v1H4z"/><path fill="#35a8c6" d="M5 16h1v1H5z"/><path fill="#91d1d4" d="M6 16h1v1H6z"/><path fill="#405397" d="M7 16h1v1H7z"/><path fill="#7789b8" d="M8 16h1v1H8zm1 0h1v1H9z"/><path fill="#f6f6de" d="M10 16h1v1h-1zm1 0h1v1h-1z"/><path fill="#7789b8" d="M12 16h1v1h-1zm1 0h1v1h-1z"/><path fill="#f6f6de" d="M14 16h1v1h-1zm1 0h1v1h-1z"/><path fill="#35a8c6" d="M16 16h1v1h-1z"/><path fill="#91d1d4" d="M17 16h1v1h-1z"/><path fill="#35a8c6" d="M18 16h1v1h-1z"/><path fill="#7789b8" d="M19 16h1v1h-1z"/><path fill="#91d1d4" d="M20 16h1v1h-1zm1 0h1v1h-1zm1 0h1v1h-1z"/><path fill="#35a8c6" d="M23 16h1v1h-1z"/><path fill="#f6f6de" d="M0 17h1v1H0z"/><path fill="#c3e3d9" d="M1 17h1v1H1z"/><path fill="#91d1d4" d="M2 17h1v1H2zm1 0h1v1H3zm1 0h1v1H4z"/><path fill="#405397" d="M5 17h1v1H5z"/><path fill="#35a8c6" d="M6 17h1v1H6z"/><path fill="#7789b8" d="M7 17h1v1H7zm1 0h1v1H8z"/><path fill="#f6f6de" d="M9 17h1v1H9z"/><path fill="#c3e3d9" d="M10 17h1v1h-1zm1 0h1v1h-1z"/><path fill="#f6f6de" d="M12 17h1v1h-1z"/><path fill="#7789b8" d="M13 17h1v1h-1z"/><path fill="#c3e3d9" d="M14 17h1v1h-1zm1 0h1v1h-1z"/><path fill="#35a8c6" d="M16 17h1v1h-1zm1 0h1v1h-1z"/><path fill="#405397" d="M18 17h1v1h-1z"/><path fill="#91d1d4" d="M19 17h1v1h-1zm1 0h1v1h-1zm1 0h1v1h-1z"/><path fill="#35a8c6" d="M22 17h1v1h-1zm1 0h1v1h-1z"/><path fill="#f6f6de" d="M0 18h1v1H0zm1 0h1v1H1z"/><path fill="#c3e3d9" d="M2 18h1v1H2z"/><path fill="#f6f6de" d="M3 18h1v1H3z"/><path fill="#91d1d4" d="M4 18h1v1H4zm1 0h1v1H5z"/><path fill="#405397" d="M6 18h1v1H6z"/><path fill="#7789b8" d="M7 18h1v1H7z"/><path fill="#f6f6de" d="M8 18h1v1H8z"/><path fill="#c3e3d9" d="M9 18h1v1H9zm1 0h1v1h-1zm1 0h1v1h-1zm1 0h1v1h-1z"/><path fill="#f6f6de" d="M13 18h1v1h-1z"/><path fill="#35a8c6" d="M14 18h1v1h-1z"/><path fill="#c3e3d9" d="M15 18h1v1h-1z"/><path fill="#35a8c6" d="M16 18h1v1h-1z"/><path fill="#405397" d="M17 18h1v1h-1z"/><path fill="#91d1d4" d="M18 18h1v1h-1zm1 0h1v1h-1z"/><path fill="#f6f6de" d="M20 18h1v1h-1z"/><path fill="#35a8c6" d="M21 18h1v1h-1zm1 0h1v1h-1z"/><path fill="#91d1d4" d="M23 18h1v1h-1z"/><path fill="#f6f6de" d="M0 19h1v1H0zm1 0h1v1H1z"/><path fill="#c3e3d9" d="M2 19h1v1H2z"/><path fill="#91d1d4" d="M3 19h1v1H3z"/><path fill="#f6f6de" d="M4 19h1v1H4z"/><path fill="#91d1d4" d="M5 19h1v1H5zm1 0h1v1H6z"/><path fill="#35a8c6" d="M7 19h1v1H7z"/><path fill="#c3e3d9" d="M8 19h1v1H8z"/><path fill="#91d1d4" d="M9 19h1v1H9zm1 0h1v1h-1zm1 0h1v1h-1zm1 0h1v1h-1z"/><path fill="#c3e3d9" d="M13 19h1v1h-1z"/><path fill="#405397" d="M14 19h1v1h-1z"/><path fill="#35a8c6" d="M15 19h1v1h-1z"/><path fill="#405397" d="M16 19h1v1h-1z"/><path fill="#35a8c6" d="M17 19h1v1h-1z"/><path fill="#91d1d4" d="M18 19h1v1h-1z"/><path fill="#f6f6de" d="M19 19h1v1h-1z"/><path fill="#35a8c6" d="M20 19h1v1h-1zm1 0h1v1h-1z"/><path fill="#91d1d4" d="M22 19h1v1h-1z"/><path fill="#c3e3d9" d="M23 19h1v1h-1z"/><path fill="#f6f6de" d="M0 20h1v1H0z"/><path fill="#c3e3d9" d="M1 20h1v1H1z"/><path fill="#91d1d4" d="M2 20h1v1H2zm1 0h1v1H3z"/><path fill="#35a8c6" d="M4 20h1v1H4z"/><path fill="#f6f6de" d="M5 20h1v1H5z"/><path fill="#91d1d4" d="M6 20h1v1H6z"/><path fill="#35a8c6" d="M7 20h1v1H7z"/><path fill="#91d1d4" d="M8 20h1v1H8zm1 0h1v1H9zm1 0h1v1h-1zm1 0h1v1h-1z"/><path fill="#c3e3d9" d="M12 20h1v1h-1z"/><path fill="#35a8c6" d="M13 20h1v1h-1z"/><path fill="#c3e3d9" d="M14 20h1v1h-1zm1 0h1v1h-1z"/><path fill="#35a8c6" d="M16 20h1v1h-1zm1 0h1v1h-1z"/><path fill="#f6f6de" d="M18 20h1v1h-1z"/><path fill="#91d1d4" d="M19 20h1v1h-1z"/><path fill="#35a8c6" d="M20 20h1v1h-1z"/><path fill="#91d1d4" d="M21 20h1v1h-1z"/><path fill="#c3e3d9" d="M22 20h1v1h-1z"/><path fill="#f6f6de" d="M23 20h1v1h-1zM0 21h1v1H0zm1 0h1v1H1z"/><path fill="#c3e3d9" d="M2 21h1v1H2z"/><path fill="#91d1d4" d="M3 21h1v1H3zm1 0h1v1H4z"/><path fill="#35a8c6" d="M5 21h1v1H5z"/><path fill="#f6f6de" d="M6 21h1v1H6z"/><path fill="#35a8c6" d="M7 21h1v1H7z"/><path fill="#91d1d4" d="M8 21h1v1H8zm1 0h1v1H9zm1 0h1v1h-1z"/><path fill="#c3e3d9" d="M11 21h1v1h-1z"/><path fill="#405397" d="M12 21h1v1h-1z"/><path fill="#c3e3d9" d="M13 21h1v1h-1z"/><path fill="#91d1d4" d="M14 21h1v1h-1zm1 0h1v1h-1z"/><path fill="#35a8c6" d="M16 21h1v1h-1z"/><path fill="#91d1d4" d="M17 21h1v1h-1z"/><path fill="#c3e3d9" d="M18 21h1v1h-1zm1 0h1v1h-1zm1 0h1v1h-1zm1 0h1v1h-1z"/><path fill="#f6f6de" d="M22 21h1v1h-1zm1 0h1v1h-1zM0 22h1v1H0zm1 0h1v1H1zm1 0h1v1H2z"/><path fill="#c3e3d9" d="M3 22h1v1H3z"/><path fill="#f6f6de" d="M4 22h1v1H4zm1 0h1v1H5z"/><path fill="#35a8c6" d="M6 22h1v1H6z"/><path fill="#405397" d="M7 22h1v1H7z"/><path fill="#35a8c6" d="M8 22h1v1H8zm1 0h1v1H9zm1 0h1v1h-1z"/><path fill="#405397" d="M11 22h1v1h-1z"/><path fill="#91d1d4" d="M12 22h1v1h-1z"/><path fill="#c3e3d9" d="M13 22h1v1h-1z"/><path fill="#35a8c6" d="M14 22h1v1h-1zm1 0h1v1h-1z"/><path fill="#405397" d="M16 22h1v1h-1z"/><path fill="#91d1d4" d="M17 22h1v1h-1z"/><path fill="#c3e3d9" d="M18 22h1v1h-1zm1 0h1v1h-1z"/><path fill="#f6f6de" d="M20 22h1v1h-1zm1 0h1v1h-1zm1 0h1v1h-1zm1 0h1v1h-1zM0 23h1v1H0zm1 0h1v1H1zm1 0h1v1H2zm1 0h1v1H3zm1 0h1v1H4zm1 0h1v1H5z"/><path fill="#c3e3d9" d="M6 23h1v1H6z"/><path fill="#35a8c6" d="M7 23h1v1H7zm1 0h1v1H8zm1 0h1v1H9zm1 0h1v1h-1z"/><path fill="#c3e3d9" d="M11 23h1v1h-1z"/><path fill="#f6f6de" d="M12 23h1v1h-1zm1 0h1v1h-1z"/><path fill="#c3e3d9" d="M14 23h1v1h-1z"/><path fill="#35a8c6" d="M15 23h1v1h-1zm1 0h1v1h-1zm1 0h1v1h-1z"/><path fill="#91d1d4" d="M18 23h1v1h-1z"/><path fill="#c3e3d9" d="M19 23h1v1h-1z"/><path fill="#f6f6de" d="M20 23h1v1h-1zm1 0h1v1h-1zm1 0h1v1h-1zm1 0h1v1h-1z"/></svg>