<svg xmlns="http://www.w3.org/2000/svg" width="24" height="24" shape-rendering="crispEdges"><path fill="#f4f4e6" d="M0 0h1v1H0zm1 0h1v1H1zm1 0h1v1H2zm1 0h1v1H3zm1 0h1v1H4zm1 0h1v1H5zm1 0h1v1H6zm1 0h1v1H7zm1 0h1v1H8zm1 0h1v1H9zm1 0h1v1h-1zm1 0h1v1h-1zm1 0h1v1h-1zm1 0h1v1h-1zm1 0h1v1h-1zm1 0h1v1h-1zm1 0h1v1h-1zm1 0h1v1h-1zm1 0h1v1h-1zm1 0h1v1h-1zm1 0h1v1h-1zm1 0h1v1h-1zm1 0h1v1h-1zm1 0h1v1h-1zM0 1h1v1H0zm1 0h1v1H1zm1 0h1v1H2zm1 0h1v1H3zm1 0h1v1H4zm1 0h1v1H5zm1 0h1v1H6zm1 0h1v1H7zm1 0h1v1H8z"/><path fill="#36aad1" d="M9 1h1v1H9zm1 0h1v1h-1z"/><path fill="#7b8ed3" d="M11 1h1v1h-1zm1 0h1v1h-1zm1 0h1v1h-1z"/><path fill="#f4f4e6" d="M14 1h1v1h-1zm1 0h1v1h-1zm1 0h1v1h-1zm1 0h1v1h-1zm1 0h1v1h-1zm1 0h1v1h-1zm1 0h1v1h-1zm1 0h1v1h-1zm1 0h1v1h-1zm1 0h1v1h-1zM0 2h1v1H0zm1 0h1v1H1zm1 0h1v1H2zm1 0h1v1H3zm1 0h1v1H4zm1 0h1v1H5zm1 0h1v1H6zm1 0h1v1H7z"/><path fill="#36aad1" d="M8 2h1v1H8z"/><path fill="#f4f4e6" d="M9 2h1v1H9zm1 0h1v1h-1zm1 0h1v1h-1zm1 0h1v1h-1z"/><path fill="#93d4e0" d="M13 2h1v1h-1z"/><path fill="#7b8ed3" d="M14 2h1v1h-1z"/><path fill="#f4f4e6" d="M15 2h1v1h-1zm1 0h1v1h-1zm1 0h1v1h-1zm1 0h1v1h-1zm1 0h1v1h-1zm1 0h1v1h-1zm1 0h1v1h-1zm1 0h1v1h-1zm1 0h1v1h-1zM0 3h1v1H0zm1 0h1v1H1zm1 0h1v1H2zm1 0h1v1H3zm1 0h1v1H4zm1 0h1v1H5zm1 0h1v1H6z"/><path fill="#36aad1" d="M7 3h1v1H7z"/><path fill="#f4f4e6" d="M8 3h1v1H8zm1 0h1v1H9zm1 0h1v1h-1zm1 0h1v1h-1zm1 0h1v1h-1zm1 0h1v1h-1z"/><path fill="#425599" d="M14 3h1v1h-1z"/><path fill="#f4f4e6" d="M15 3h1v1h-1zm1 0h1v1h-1zm1 0h1v1h-1zm1 0h1v1h-1zm1 0h1v1h-1zm1 0h1v1h-1zm1 0h1v1h-1zm1 0h1v1h-1zm1 0h1v1h-1zM0 4h1v1H0zm1 0h1v1H1zm1 0h1v1H2zm1 0h1v1H3zm1 0h1v1H4zm1 0h1v1H5z"/><path fill="#36aad1" d="M6 4h1v1H6z"/><path fill="#f4f4e6" d="M7 4h1v1H7zm1 0h1v1H8zm1 0h1v1H9zm1 0h1v1h-1zm1 0h1v1h-1zm1 0h1v1h-1zm1 0h1v1h-1z"/><path fill="#93d4e0" d="M14 4h1v1h-1z"/><path fill="#425599" d="M15 4h1v1h-1z"/><path fill="#f4f4e6" d="M16 4h1v1h-1zm1 0h1v1h-1zm1 0h1v1h-1zm1 0h1v1h-1zm1 0h1v1h-1zm1 0h1v1h-1zm1 0h1v1h-1zm1 0h1v1h-1zM0 5h1v1H0zm1 0h1v1H1zm1 0h1v1H2zm1 0h1v1H3zm1 0h1v1H4zm1 0h1v1H5z"/><path fill="#7b8ed3" d="M6 5h1v1H6z"/><path fill="#36aad1" d="M7 5h1v1H7z"/><path fill="#f4f4e6" d="M8 5h1v1H8zm1 0h1v1H9zm1 0h1v1h-1zm1 0h1v1h-1zm1 0h1v1h-1zm1 0h1v1h-1zm1 0h1v1h-1z"/><path fill="#93d4e0" d="M15 5h1v1h-1z"/><path fill="#425599" d="M16 5h1v1h-1z"/><path fill="#f4f4e6" d="M17 5h1v1h-1zm1 0h1v1h-1zm1 0h1v1h-1zm1 0h1v1h-1zm1 0h1v1h-1zm1 0h1v1h-1zm1 0h1v1h-1zM0 6h1v1H0zm1 0h1v1H1zm1 0h1v1H2zm1 0h1v1H3zm1 0h1v1H4z"/><path fill="#36aad1" d="M5 6h1v1H5z"/><path fill="#f4f4e6" d="M6 6h1v1H6zm1 0h1v1H7z"/><path fill="#93d4e0" d="M8 6h1v1H8z"/><path fill="#f4f4e6" d="M9 6h1v1H9zm1 0h1v1h-1zm1 0h1v1h-1zm1 0h1v1h-1zm1 0h1v1h-1zm1 0h1v1h-1zm1 0h1v1h-1z"/><path fill="#2e3542" d="M16 6h1v1h-1z"/><path fill="#f4f4e6" d="M17 6h1v1h-1zm1 0h1v1h-1zm1 0h1v1h-1zm1 0h1v1h-1zm1 0h1v1h-1zm1 0h1v1h-1zm1 0h1v1h-1zM0 7h1v1H0zm1 0h1v1H1zm1 0h1v1H2zm1 0h1v1H3zm1 0h1v1H4z"/><path fill="#425599" d="M5 7h1v1H5z"/><path fill="#f4f4e6" d="M6 7h1v1H6zm1 0h1v1H7z"/><path fill="#36aad1" d="M8 7h1v1H8z"/><path fill="#f4f4e6" d="M9 7h1v1H9zm1 0h1v1h-1zm1 0h1v1h-1zm1 0h1v1h-1zm1 0h1v1h-1zm1 0h1v1h-1z"/><path fill="#93d4e0" d="M15 7h1v1h-1z"/><path fill="#7b8ed3" d="M16 7h1v1h-1z"/><path fill="#2e3542" d="M17 7h1v1h-1z"/><path fill="#f4f4e6" d="M18 7h1v1h-1zm1 0h1v1h-1zm1 0h1v1h-1zm1 0h1v1h-1zm1 0h1v1h-1zm1 0h1v1h-1zM0 8h1v1H0zm1 0h1v1H1zm1 0h1v1H2zm1 0h1v1H3z"/><path fill="#425599" d="M4 8h1v1H4z"/><path fill="#7b8ed3" d="M5 8h1v1H5z"/><path fill="#93d4e0" d="M6 8h1v1H6z"/><path fill="#f4f4e6" d="M7 8h1v1H7z"/><path fill="#7b8ed3" d="M8 8h1v1H8z"/><path fill="#f4f4e6" d="M9 8h1v1H9zm1 0h1v1h-1zm1 0h1v1h-1zm1 0h1v1h-1z"/><path fill="#93d4e0" d="M13 8h1v1h-1z"/><path fill="#36aad1" d="M14 8h1v1h-1z"/><path fill="#7b8ed3" d="M15 8h1v1h-1z"/><path fill="#425599" d="M16 8h1v1h-1z"/><path fill="#7b8ed3" d="M17 8h1v1h-1z"/><path fill="#425599" d="M18 8h1v1h-1z"/><path fill="#f4f4e6" d="M19 8h1v1h-1zm1 0h1v1h-1zm1 0h1v1h-1zm1 0h1v1h-1zm1 0h1v1h-1zM0 9h1v1H0zm1 0h1v1H1zm1 0h1v1H2z"/><path fill="#36aad1" d="M3 9h1v1H3z"/><path fill="#f4f4e6" d="M4 9h1v1H4z"/><path fill="#abbbf3" d="M5 9h1v1H5z"/><path fill="#7b8ed3" d="M6 9h1v1H6z"/><path fill="#abbbf3" d="M7 9h1v1H7z"/><path fill="#7b8ed3" d="M8 9h1v1H8z"/><path fill="#f4f4e6" d="M9 9h1v1H9zm1 0h1v1h-1z"/><path fill="#c2d7f7" d="M11 9h1v1h-1z"/><path fill="#36aad1" d="M12 9h1v1h-1z"/><path fill="#7b8ed3" d="M13 9h1v1h-1z"/><path fill="#36aad1" d="M14 9h1v1h-1z"/><path fill="#abbbf3" d="M15 9h1v1h-1z"/><path fill="#93d4e0" d="M16 9h1v1h-1zm1 0h1v1h-1z"/><path fill="#425599" d="M18 9h1v1h-1z"/><path fill="#f4f4e6" d="M19 9h1v1h-1zm1 0h1v1h-1zm1 0h1v1h-1zm1 0h1v1h-1zm1 0h1v1h-1zM0 10h1v1H0zm1 0h1v1H1zm1 0h1v1H2z"/><path fill="#36aad1" d="M3 10h1v1H3z"/><path fill="#f4f4e6" d="M4 10h1v1H4zm1 0h1v1H5z"/><path fill="#abbbf3" d="M6 10h1v1H6z"/><path fill="#425599" d="M7 10h1v1H7z"/><path fill="#f4f4e6" d="M8 10h1v1H8zm1 0h1v1H9zm1 0h1v1h-1zm1 0h1v1h-1zm1 0h1v1h-1z"/><path fill="#abbbf3" d="M13 10h1v1h-1z"/><path fill="#93d4e0" d="M14 10h1v1h-1z"/><path fill="#f4f4e6" d="M15 10h1v1h-1zm1 0h1v1h-1z"/><path fill="#93d4e0" d="M17 10h1v1h-1z"/><path fill="#c2d7f7" d="M18 10h1v1h-1z"/><path fill="#425599" d="M19 10h1v1h-1z"/><path fill="#f4f4e6" d="M20 10h1v1h-1zm1 0h1v1h-1zm1 0h1v1h-1zm1 0h1v1h-1zM0 11h1v1H0zm1 0h1v1H1z"/><path fill="#36aad1" d="M2 11h1v1H2z"/><path fill="#f4f4e6" d="M3 11h1v1H3zm1 0h1v1H4zm1 0h1v1H5zm1 0h1v1H6z"/><path fill="#425599" d="M7 11h1v1H7z"/><path fill="#93d4e0" d="M8 11h1v1H8z"/><path fill="#f4f4e6" d="M9 11h1v1H9z"/><path fill="#93d4e0" d="M10 11h1v1h-1z"/><path fill="#abbbf3" d="M11 11h1v1h-1z"/><path fill="#f4f4e6" d="M12 11h1v1h-1z"/><path fill="#abbbf3" d="M13 11h1v1h-1z"/><path fill="#f4f4e6" d="M14 11h1v1h-1zm1 0h1v1h-1zm1 0h1v1h-1zm1 0h1v1h-1zm1 0h1v1h-1z"/><path fill="#2e3542" d="M19 11h1v1h-1z"/><path fill="#abbbf3" d="M20 11h1v1h-1z"/><path fill="#f4f4e6" d="M21 11h1v1h-1zm1 0h1v1h-1zm1 0h1v1h-1zM0 12h1v1H0zm1 0h1v1H1z"/><path fill="#425599" d="M2 12h1v1H2z"/><path fill="#f4f4e6" d="M3 12h1v1H3z"/><path fill="#93d4e0" d="M4 12h1v1H4z"/><path fill="#f4f4e6" d="M5 12h1v1H5z"/><path fill="#c2d7f7" d="M6 12h1v1H6z"/><path fill="#7b8ed3" d="M7 12h1v1H7z"/><path fill="#abbbf3" d="M8 12h1v1H8z"/><path fill="#93d4e0" d="M9 12h1v1H9z"/><path fill="#abbbf3" d="M10 12h1v1h-1z"/><path fill="#f4f4e6" d="M11 12h1v1h-1z"/><path fill="#93d4e0" d="M12 12h1v1h-1z"/><path fill="#f4f4e6" d="M13 12h1v1h-1z"/><path fill="#abbbf3" d="M14 12h1v1h-1z"/><path fill="#93d4e0" d="M15 12h1v1h-1z"/><path fill="#abbbf3" d="M16 12h1v1h-1z"/><path fill="#93d4e0" d="M17 12h1v1h-1z"/><path fill="#f4f4e6" d="M18 12h1v1h-1z"/><path fill="#2e3542" d="M19 12h1v1h-1z"/><path fill="#abbbf3" d="M20 12h1v1h-1z"/><path fill="#c2d7f7" d="M21 12h1v1h-1z"/><path fill="#f4f4e6" d="M22 12h1v1h-1zm1 0h1v1h-1zM0 13h1v1H0z"/><path fill="#93d4e0" d="M1 13h1v1H1z"/><path fill="#7b8ed3" d="M2 13h1v1H2z"/><path fill="#93d4e0" d="M3 13h1v1H3z"/><path fill="#f4f4e6" d="M4 13h1v1H4z"/><path fill="#93d4e0" d="M5 13h1v1H5z"/><path fill="#36aad1" d="M6 13h1v1H6z"/><path fill="#7b8ed3" d="M7 13h1v1H7z"/><path fill="#abbbf3" d="M8 13h1v1H8z"/><path fill="#36aad1" d="M9 13h1v1H9z"/><path fill="#7b8ed3" d="M10 13h1v1h-1z"/><path fill="#93d4e0" d="M11 13h1v1h-1z"/><path fill="#f4f4e6" d="M12 13h1v1h-1z"/><path fill="#7b8ed3" d="M13 13h1v1h-1z"/><path fill="#abbbf3" d="M14 13h1v1h-1zm1 0h1v1h-1zm1 0h1v1h-1zm1 0h1v1h-1zm1 0h1v1h-1z"/><path fill="#7b8ed3" d="M19 13h1v1h-1z"/><path fill="#2e3542" d="M20 13h1v1h-1z"/><path fill="#abbbf3" d="M21 13h1v1h-1z"/><path fill="#f4f4e6" d="M22 13h1v1h-1zm1 0h1v1h-1zM0 14h1v1H0z"/><path fill="#93d4e0" d="M1 14h1v1H1z"/><path fill="#abbbf3" d="M2 14h1v1H2z"/><path fill="#f4f4e6" d="M3 14h1v1H3z"/><path fill="#36aad1" d="M4 14h1v1H4z"/><path fill="#f4f4e6" d="M5 14h1v1H5z"/><path fill="#7b8ed3" d="M6 14h1v1H6z"/><path fill="#425599" d="M7 14h1v1H7z"/><path fill="#abbbf3" d="M8 14h1v1H8z"/><path fill="#f4f4e6" d="M9 14h1v1H9zm1 0h1v1h-1z"/><path fill="#36aad1" d="M11 14h1v1h-1z"/><path fill="#93d4e0" d="M12 14h1v1h-1z"/><path fill="#425599" d="M13 14h1v1h-1z"/><path fill="#7b8ed3" d="M14 14h1v1h-1zm1 0h1v1h-1z"/><path fill="#abbbf3" d="M16 14h1v1h-1zm1 0h1v1h-1z"/><path fill="#7b8ed3" d="M18 14h1v1h-1zm1 0h1v1h-1z"/><path fill="#abbbf3" d="M20 14h1v1h-1zm1 0h1v1h-1z"/><path fill="#c2d7f7" d="M22 14h1v1h-1z"/><path fill="#f4f4e6" d="M23 14h1v1h-1z"/><path fill="#93d4e0" d="M0 15h1v1H0zm1 0h1v1H1zm1 0h1v1H2z"/><path fill="#36aad1" d="M3 15h1v1H3zm1 0h1v1H4z"/><path fill="#425599" d="M5 15h1v1H5z"/><path fill="#7b8ed3" d="M6 15h1v1H6z"/><path fill="#425599" d="M7 15h1v1H7z"/><path fill="#93d4e0" d="M8 15h1v1H8z"/><path fill="#f4f4e6" d="M9 15h1v1H9zm1 0h1v1h-1zm1 0h1v1h-1z"/><path fill="#36aad1" d="M12 15h1v1h-1z"/><path fill="#7b8ed3" d="M13 15h1v1h-1z"/><path fill="#425599" d="M14 15h1v1h-1z"/><path fill="#7b8ed3" d="M15 15h1v1h-1z"/><path fill="#425599" d="M16 15h1v1h-1z"/><path fill="#abbbf3" d="M17 15h1v1h-1z"/><path fill="#f4f4e6" d="M18 15h1v1h-1z"/><path fill="#93d4e0" d="M19 15h1v1h-1z"/><path fill="#7b8ed3" d="M20 15h1v1h-1z"/><path fill="#abbbf3" d="M21 15h1v1h-1z"/><path fill="#c2d7f7" d="M22 15h1v1h-1z"/><path fill="#f4f4e6" d="M23 15h1v1h-1zM0 16h1v1H0z"/><path fill="#93d4e0" d="M1 16h1v1H1zm1 0h1v1H2z"/><path fill="#f4f4e6" d="M3 16h1v1H3z"/><path fill="#93d4e0" d="M4 16h1v1H4z"/><path fill="#7b8ed3" d="M5 16h1v1H5zm1 0h1v1H6z"/><path fill="#425599" d="M7 16h1v1H7z"/><path fill="#93d4e0" d="M8 16h1v1H8z"/><path fill="#f4f4e6" d="M9 16h1v1H9z"/><path fill="#93d4e0" d="M10 16h1v1h-1z"/><path fill="#abbbf3" d="M11 16h1v1h-1z"/><path fill="#7b8ed3" d="M12 16h1v1h-1zm1 0h1v1h-1z"/><path fill="#425599" d="M14 16h1v1h-1zm1 0h1v1h-1z"/><path fill="#c2d7f7" d="M16 16h1v1h-1z"/><path fill="#7b8ed3" d="M17 16h1v1h-1z"/><path fill="#c2d7f7" d="M18 16h1v1h-1zm1 0h1v1h-1zm1 0h1v1h-1z"/><path fill="#abbbf3" d="M21 16h1v1h-1z"/><path fill="#c2d7f7" d="M22 16h1v1h-1z"/><path fill="#f4f4e6" d="M23 16h1v1h-1zM0 17h1v1H0z"/><path fill="#93d4e0" d="M1 17h1v1H1z"/><path fill="#c2d7f7" d="M2 17h1v1H2z"/><path fill="#abbbf3" d="M3 17h1v1H3z"/><path fill="#7b8ed3" d="M4 17h1v1H4z"/><path fill="#425599" d="M5 17h1v1H5z"/><path fill="#2e3542" d="M6 17h1v1H6z"/><path fill="#7b8ed3" d="M7 17h1v1H7z"/><path fill="#93d4e0" d="M8 17h1v1H8zm1 0h1v1H9zm1 0h1v1h-1z"/><path fill="#abbbf3" d="M11 17h1v1h-1z"/><path fill="#f4f4e6" d="M12 17h1v1h-1z"/><path fill="#7b8ed3" d="M13 17h1v1h-1z"/><path fill="#425599" d="M14 17h1v1h-1z"/><path fill="#7b8ed3" d="M15 17h1v1h-1zm1 0h1v1h-1z"/><path fill="#abbbf3" d="M17 17h1v1h-1z"/><path fill="#7b8ed3" d="M18 17h1v1h-1z"/><path fill="#abbbf3" d="M19 17h1v1h-1zm1 0h1v1h-1z"/><path fill="#c2d7f7" d="M21 17h1v1h-1zm1 0h1v1h-1z"/><path fill="#f4f4e6" d="M23 17h1v1h-1zM0 18h1v1H0zm1 0h1v1H1z"/><path fill="#c2d7f7" d="M2 18h1v1H2zm1 0h1v1H3z"/><path fill="#93d4e0" d="M4 18h1v1H4z"/><path fill="#abbbf3" d="M5 18h1v1H5zm1 0h1v1H6z"/><path fill="#7b8ed3" d="M7 18h1v1H7z"/><path fill="#abbbf3" d="M8 18h1v1H8z"/><path fill="#93d4e0" d="M9 18h1v1H9z"/><path fill="#abbbf3" d="M10 18h1v1h-1zm1 0h1v1h-1z"/><path fill="#c2d7f7" d="M12 18h1v1h-1z"/><path fill="#93d4e0" d="M13 18h1v1h-1z"/><path fill="#2e3542" d="M14 18h1v1h-1z"/><path fill="#425599" d="M15 18h1v1h-1z"/><path fill="#abbbf3" d="M16 18h1v1h-1z"/><path fill="#93d4e0" d="M17 18h1v1h-1z"/><path fill="#c2d7f7" d="M18 18h1v1h-1zm1 0h1v1h-1zm1 0h1v1h-1zm1 0h1v1h-1z"/><path fill="#f4f4e6" d="M22 18h1v1h-1zm1 0h1v1h-1zM0 19h1v1H0zm1 0h1v1H1zm1 0h1v1H2z"/><path fill="#93d4e0" d="M3 19h1v1H3z"/><path fill="#c2d7f7" d="M4 19h1v1H4zm1 0h1v1H5zm1 0h1v1H6z"/><path fill="#abbbf3" d="M7 19h1v1H7z"/><path fill="#93d4e0" d="M8 19h1v1H8z"/><path fill="#abbbf3" d="M9 19h1v1H9zm1 0h1v1h-1z"/><path fill="#7b8ed3" d="M11 19h1v1h-1zm1 0h1v1h-1z"/><path fill="#425599" d="M13 19h1v1h-1z"/><path fill="#7b8ed3" d="M14 19h1v1h-1z"/><path fill="#abbbf3" d="M15 19h1v1h-1z"/><path fill="#93d4e0" d="M16 19h1v1h-1z"/><path fill="#c2d7f7" d="M17 19h1v1h-1zm1 0h1v1h-1z"/><path fill="#f4f4e6" d="M19 19h1v1h-1z"/><path fill="#c2d7f7" d="M20 19h1v1h-1z"/><path fill="#f4f4e6" d="M21 19h1v1h-1zm1 0h1v1h-1zm1 0h1v1h-1zM0 20h1v1H0zm1 0h1v1H1zm1 0h1v1H2zm1 0h1v1H3zm1 0h1v1H4z"/><path fill="#93d4e0" d="M5 20h1v1H5z"/><path fill="#c2d7f7" d="M6 20h1v1H6z"/><path fill="#f4f4e6" d="M7 20h1v1H7z"/><path fill="#93d4e0" d="M8 20h1v1H8z"/><path fill="#c2d7f7" d="M9 20h1v1H9zm1 0h1v1h-1z"/><path fill="#93d4e0" d="M11 20h1v1h-1z"/><path fill="#abbbf3" d="M12 20h1v1h-1zm1 0h1v1h-1zm1 0h1v1h-1z"/><path fill="#c2d7f7" d="M15 20h1v1h-1zm1 0h1v1h-1z"/><path fill="#f4f4e6" d="M17 20h1v1h-1zm1 0h1v1h-1zm1 0h1v1h-1zm1 0h1v1h-1zm1 0h1v1h-1zm1 0h1v1h-1zm1 0h1v1h-1zM0 21h1v1H0zm1 0h1v1H1zm1 0h1v1H2zm1 0h1v1H3zm1 0h1v1H4zm1 0h1v1H5zm1 0h1v1H6zm1 0h1v1H7zm1 0h1v1H8z"/><path fill="#c2d7f7" d="M9 21h1v1H9zm1 0h1v1h-1zm1 0h1v1h-1zm1 0h1v1h-1zm1 0h1v1h-1zm1 0h1v1h-1zm1 0h1v1h-1z"/><path fill="#f4f4e6" d="M16 21h1v1h-1zm1 0h1v1h-1zm1 0h1v1h-1zm1 0h1v1h-1zm1 0h1v1h-1zm1 0h1v1h-1zm1 0h1v1h-1zm1 0h1v1h-1zM0 22h1v1H0zm1 0h1v1H1zm1 0h1v1H2zm1 0h1v1H3zm1 0h1v1H4zm1 0h1v1H5zm1 0h1v1H6zm1 0h1v1H7zm1 0h1v1H8zm1 0h1v1H9zm1 0h1v1h-1zm1 0h1v1h-1zm1 0h1v1h-1zm1 0h1v1h-1zm1 0h1v1h-1zm1 0h1v1h-1zm1 0h1v1h-1zm1 0h1v1h-1zm1 0h1v1h-1zm1 0h1v1h-1zm1 0h1v1h-1zm1 0h1v1h-1zm1 0h1v1h-1zm1 0h1v1h-1zM0 23h1v1H0zm1 0h1v1H1zm1 0h1v1H2zm1 0h1v1H3zm1 0h1v1H4zm1 0h1v1H5zm1 0h1v1H6zm1 0h1v1H7zm1 0h1v1H8zm1 0h1v1H9zm1 0h1v1h-1zm1 0h1v1h-1zm1 0h1v1h-1zm1 0h1v1h-1zm1 0h1v1h-1zm1 0h1v1h-1zm1 0h1v1h-1zm1 0h1v1h-1zm1 0h1v1h-1zm1 0h1v1h-1zm1 0h1v1h-1zm1 0h1v1h-1zm1 0h1v1h-1zm1 0h1v1h-1z"/></svg>