<svg xmlns="http://www.w3.org/2000/svg" width="24" height="24" shape-rendering="crispEdges"><path fill="#4b4139" d="M0 0h1v1H0z"/><path fill="#d28e44" d="M1 0h1v1H1zm1 0h1v1H2z"/><path fill="#7d4a1d" d="M3 0h1v1H3z"/><path fill="#96645a" d="M4 0h1v1H4z"/><path fill="#c0784c" d="M5 0h1v1H5zm1 0h1v1H6zm1 0h1v1H7zm1 0h1v1H8zm1 0h1v1H9zm1 0h1v1h-1zm1 0h1v1h-1zm1 0h1v1h-1zm1 0h1v1h-1zm1 0h1v1h-1zm1 0h1v1h-1zm1 0h1v1h-1zm1 0h1v1h-1z"/><path fill="#ac6e53" d="M18 0h1v1h-1z"/><path fill="#96645a" d="M19 0h1v1h-1z"/><path fill="#7d4a1d" d="M20 0h1v1h-1z"/><path fill="#d28e44" d="M21 0h1v1h-1zm1 0h1v1h-1z"/><path fill="#4b4139" d="M23 0h1v1h-1zM0 1h1v1H0z"/><path fill="#d28e44" d="M1 1h1v1H1zm1 0h1v1H2z"/><path fill="#7d4a1d" d="M3 1h1v1H3z"/><path fill="#96645a" d="M4 1h1v1H4z"/><path fill="#c0784c" d="M5 1h1v1H5zm1 0h1v1H6zm1 0h1v1H7zm1 0h1v1H8zm1 0h1v1H9zm1 0h1v1h-1zm1 0h1v1h-1zm1 0h1v1h-1zm1 0h1v1h-1zm1 0h1v1h-1zm1 0h1v1h-1zm1 0h1v1h-1zm1 0h1v1h-1z"/><path fill="#ac6e53" d="M18 1h1v1h-1z"/><path fill="#96645a" d="M19 1h1v1h-1z"/><path fill="#7d4a1d" d="M20 1h1v1h-1z"/><path fill="#d28e44" d="M21 1h1v1h-1zm1 0h1v1h-1z"/><path fill="#4b4139" d="M23 1h1v1h-1zM0 2h1v1H0z"/><path fill="#d28e44" d="M1 2h1v1H1zm1 0h1v1H2z"/><path fill="#7d4a1d" d="M3 2h1v1H3z"/><path fill="#96645a" d="M4 2h1v1H4z"/><path fill="#c0784c" d="M5 2h1v1H5zm1 0h1v1H6zm1 0h1v1H7zm1 0h1v1H8zm1 0h1v1H9zm1 0h1v1h-1zm1 0h1v1h-1zm1 0h1v1h-1zm1 0h1v1h-1zm1 0h1v1h-1zm1 0h1v1h-1zm1 0h1v1h-1zm1 0h1v1h-1z"/><path fill="#ac6e53" d="M18 2h1v1h-1z"/><path fill="#96645a" d="M19 2h1v1h-1z"/><path fill="#7d4a1d" d="M20 2h1v1h-1z"/><path fill="#d28e44" d="M21 2h1v1h-1zm1 0h1v1h-1z"/><path fill="#4b4139" d="M23 2h1v1h-1zM0 3h1v1H0z"/><path fill="#d28e44" d="M1 3h1v1H1zm1 0h1v1H2z"/><path fill="#7d4a1d" d="M3 3h1v1H3zm1 0h1v1H4z"/><path fill="#96645a" d="M5 3h1v1H5zm1 0h1v1H6zm1 0h1v1H7zm1 0h1v1H8zm1 0h1v1H9z"/><path fill="#ac6e53" d="M10 3h1v1h-1zm1 0h1v1h-1z"/><path fill="#96645a" d="M12 3h1v1h-1zm1 0h1v1h-1zm1 0h1v1h-1z"/><path fill="#ac6e53" d="M15 3h1v1h-1zm1 0h1v1h-1z"/><path fill="#96645a" d="M17 3h1v1h-1zm1 0h1v1h-1z"/><path fill="#7d4a1d" d="M19 3h1v1h-1zm1 0h1v1h-1z"/><path fill="#d28e44" d="M21 3h1v1h-1zm1 0h1v1h-1z"/><path fill="#4b4139" d="M23 3h1v1h-1zM0 4h1v1H0z"/><path fill="#d28e44" d="M1 4h1v1H1zm1 0h1v1H2z"/><path fill="#7d4a1d" d="M3 4h1v1H3z"/><path fill="#96645a" d="M4 4h1v1H4z"/><path fill="#c0784c" d="M5 4h1v1H5zm1 0h1v1H6zm1 0h1v1H7zm1 0h1v1H8zm1 0h1v1H9zm1 0h1v1h-1zm1 0h1v1h-1zm1 0h1v1h-1zm1 0h1v1h-1zm1 0h1v1h-1zm1 0h1v1h-1zm1 0h1v1h-1zm1 0h1v1h-1z"/><path fill="#ac6e53" d="M18 4h1v1h-1z"/><path fill="#96645a" d="M19 4h1v1h-1z"/><path fill="#7d4a1d" d="M20 4h1v1h-1z"/><path fill="#d28e44" d="M21 4h1v1h-1zm1 0h1v1h-1z"/><path fill="#4b4139" d="M23 4h1v1h-1zM0 5h1v1H0z"/><path fill="#d28e44" d="M1 5h1v1H1zm1 0h1v1H2z"/><path fill="#7d4a1d" d="M3 5h1v1H3z"/><path fill="#96645a" d="M4 5h1v1H4z"/><path fill="#c0784c" d="M5 5h1v1H5zm1 0h1v1H6zm1 0h1v1H7zm1 0h1v1H8zm1 0h1v1H9zm1 0h1v1h-1zm1 0h1v1h-1zm1 0h1v1h-1zm1 0h1v1h-1zm1 0h1v1h-1zm1 0h1v1h-1zm1 0h1v1h-1zm1 0h1v1h-1z"/><path fill="#ac6e53" d="M18 5h1v1h-1z"/><path fill="#96645a" d="M19 5h1v1h-1z"/><path fill="#7d4a1d" d="M20 5h1v1h-1z"/><path fill="#d28e44" d="M21 5h1v1h-1zm1 0h1v1h-1z"/><path fill="#4b4139" d="M23 5h1v1h-1zM0 6h1v1H0z"/><path fill="#d28e44" d="M1 6h1v1H1zm1 0h1v1H2z"/><path fill="#7d4a1d" d="M3 6h1v1H3z"/><path fill="#96645a" d="M4 6h1v1H4z"/><path fill="#c0784c" d="M5 6h1v1H5zm1 0h1v1H6zm1 0h1v1H7zm1 0h1v1H8zm1 0h1v1H9zm1 0h1v1h-1zm1 0h1v1h-1zm1 0h1v1h-1zm1 0h1v1h-1zm1 0h1v1h-1zm1 0h1v1h-1zm1 0h1v1h-1zm1 0h1v1h-1z"/><path fill="#ac6e53" d="M18 6h1v1h-1z"/><path fill="#96645a" d="M19 6h1v1h-1z"/><path fill="#7d4a1d" d="M20 6h1v1h-1z"/><path fill="#d28e44" d="M21 6h1v1h-1zm1 0h1v1h-1z"/><path fill="#4b4139" d="M23 6h1v1h-1zM0 7h1v1H0z"/><path fill="#d28e44" d="M1 7h1v1H1zm1 0h1v1H2z"/><path fill="#7d4a1d" d="M3 7h1v1H3zm1 0h1v1H4zm1 0h1v1H5zm1 0h1v1H6z"/><path fill="#96645a" d="M7 7h1v1H7z"/><path fill="#ac6e53" d="M8 7h1v1H8zm1 0h1v1H9zm1 0h1v1h-1zm1 0h1v1h-1z"/><path fill="#96645a" d="M12 7h1v1h-1zm1 0h1v1h-1zm1 0h1v1h-1zm1 0h1v1h-1zm1 0h1v1h-1zm1 0h1v1h-1zm1 0h1v1h-1z"/><path fill="#7d4a1d" d="M19 7h1v1h-1zm1 0h1v1h-1z"/><path fill="#d28e44" d="M21 7h1v1h-1zm1 0h1v1h-1z"/><path fill="#4b4139" d="M23 7h1v1h-1zM0 8h1v1H0z"/><path fill="#d28e44" d="M1 8h1v1H1zm1 0h1v1H2z"/><path fill="#7d4a1d" d="M3 8h1v1H3z"/><path fill="#96645a" d="M4 8h1v1H4z"/><path fill="#c0784c" d="M5 8h1v1H5zm1 0h1v1H6zm1 0h1v1H7zm1 0h1v1H8zm1 0h1v1H9zm1 0h1v1h-1zm1 0h1v1h-1zm1 0h1v1h-1zm1 0h1v1h-1zm1 0h1v1h-1zm1 0h1v1h-1zm1 0h1v1h-1zm1 0h1v1h-1z"/><path fill="#ac6e53" d="M18 8h1v1h-1z"/><path fill="#96645a" d="M19 8h1v1h-1z"/><path fill="#7d4a1d" d="M20 8h1v1h-1z"/><path fill="#d28e44" d="M21 8h1v1h-1zm1 0h1v1h-1z"/><path fill="#4b4139" d="M23 8h1v1h-1zM0 9h1v1H0z"/><path fill="#d28e44" d="M1 9h1v1H1zm1 0h1v1H2z"/><path fill="#7d4a1d" d="M3 9h1v1H3z"/><path fill="#96645a" d="M4 9h1v1H4z"/><path fill="#c0784c" d="M5 9h1v1H5zm1 0h1v1H6zm1 0h1v1H7zm1 0h1v1H8zm1 0h1v1H9zm1 0h1v1h-1zm1 0h1v1h-1zm1 0h1v1h-1zm1 0h1v1h-1zm1 0h1v1h-1zm1 0h1v1h-1zm1 0h1v1h-1zm1 0h1v1h-1z"/><path fill="#ac6e53" d="M18 9h1v1h-1z"/><path fill="#96645a" d="M19 9h1v1h-1z"/><path fill="#7d4a1d" d="M20 9h1v1h-1z"/><path fill="#d28e44" d="M21 9h1v1h-1zm1 0h1v1h-1z"/><path fill="#4b4139" d="M23 9h1v1h-1zM0 10h1v1H0z"/><path fill="#d28e44" d="M1 10h1v1H1zm1 0h1v1H2z"/><path fill="#7d4a1d" d="M3 10h1v1H3z"/><path fill="#96645a" d="M4 10h1v1H4z"/><path fill="#c0784c" d="M5 10h1v1H5zm1 0h1v1H6zm1 0h1v1H7zm1 0h1v1H8zm1 0h1v1H9zm1 0h1v1h-1zm1 0h1v1h-1zm1 0h1v1h-1zm1 0h1v1h-1zm1 0h1v1h-1zm1 0h1v1h-1zm1 0h1v1h-1zm1 0h1v1h-1z"/><path fill="#ac6e53" d="M18 10h1v1h-1z"/><path fill="#96645a" d="M19 10h1v1h-1z"/><path fill="#7d4a1d" d="M20 10h1v1h-1z"/><path fill="#d28e44" d="M21 10h1v1h-1zm1 0h1v1h-1z"/><path fill="#4b4139" d="M23 10h1v1h-1zM0 11h1v1H0z"/><path fill="#d28e44" d="M1 11h1v1H1zm1 0h1v1H2z"/><path fill="#7d4a1d" d="M3 11h1v1H3zm1 0h1v1H4z"/><path fill="#96645a" d="M5 11h1v1H5z"/><path fill="#ac6e53" d="M6 11h1v1H6z"/><path fill="#96645a" d="M7 11h1v1H7z"/><path fill="#ac6e53" d="M8 11h1v1H8zm1 0h1v1H9z"/><path fill="#96645a" d="M10 11h1v1h-1zm1 0h1v1h-1zm1 0h1v1h-1zm1 0h1v1h-1zm1 0h1v1h-1z"/><path fill="#7d4a1d" d="M15 11h1v1h-1z"/><path fill="#96645a" d="M16 11h1v1h-1z"/><path fill="#7d4a1d" d="M17 11h1v1h-1zm1 0h1v1h-1zm1 0h1v1h-1zm1 0h1v1h-1z"/><path fill="#d28e44" d="M21 11h1v1h-1zm1 0h1v1h-1z"/><path fill="#4b4139" d="M23 11h1v1h-1zM0 12h1v1H0z"/><path fill="#d28e44" d="M1 12h1v1H1zm1 0h1v1H2z"/><path fill="#7d4a1d" d="M3 12h1v1H3z"/><path fill="#96645a" d="M4 12h1v1H4z"/><path fill="#c0784c" d="M5 12h1v1H5zm1 0h1v1H6zm1 0h1v1H7zm1 0h1v1H8zm1 0h1v1H9zm1 0h1v1h-1zm1 0h1v1h-1zm1 0h1v1h-1zm1 0h1v1h-1zm1 0h1v1h-1zm1 0h1v1h-1zm1 0h1v1h-1zm1 0h1v1h-1z"/><path fill="#ac6e53" d="M18 12h1v1h-1z"/><path fill="#96645a" d="M19 12h1v1h-1z"/><path fill="#7d4a1d" d="M20 12h1v1h-1z"/><path fill="#d28e44" d="M21 12h1v1h-1zm1 0h1v1h-1z"/><path fill="#4b4139" d="M23 12h1v1h-1zM0 13h1v1H0z"/><path fill="#d28e44" d="M1 13h1v1H1zm1 0h1v1H2z"/><path fill="#7d4a1d" d="M3 13h1v1H3z"/><path fill="#96645a" d="M4 13h1v1H4z"/><path fill="#c0784c" d="M5 13h1v1H5zm1 0h1v1H6zm1 0h1v1H7zm1 0h1v1H8zm1 0h1v1H9zm1 0h1v1h-1zm1 0h1v1h-1zm1 0h1v1h-1zm1 0h1v1h-1zm1 0h1v1h-1zm1 0h1v1h-1zm1 0h1v1h-1zm1 0h1v1h-1z"/><path fill="#ac6e53" d="M18 13h1v1h-1z"/><path fill="#96645a" d="M19 13h1v1h-1z"/><path fill="#7d4a1d" d="M20 13h1v1h-1z"/><path fill="#d28e44" d="M21 13h1v1h-1zm1 0h1v1h-1z"/><path fill="#4b4139" d="M23 13h1v1h-1zM0 14h1v1H0z"/><path fill="#d28e44" d="M1 14h1v1H1zm1 0h1v1H2z"/><path fill="#7d4a1d" d="M3 14h1v1H3z"/><path fill="#96645a" d="M4 14h1v1H4z"/><path fill="#c0784c" d="M5 14h1v1H5zm1 0h1v1H6zm1 0h1v1H7zm1 0h1v1H8zm1 0h1v1H9zm1 0h1v1h-1zm1 0h1v1h-1zm1 0h1v1h-1zm1 0h1v1h-1zm1 0h1v1h-1zm1 0h1v1h-1zm1 0h1v1h-1zm1 0h1v1h-1z"/><path fill="#ac6e53" d="M18 14h1v1h-1z"/><path fill="#96645a" d="M19 14h1v1h-1z"/><path fill="#7d4a1d" d="M20 14h1v1h-1z"/><path fill="#d28e44" d="M21 14h1v1h-1zm1 0h1v1h-1z"/><path fill="#4b4139" d="M23 14h1v1h-1zM0 15h1v1H0z"/><path fill="#d28e44" d="M1 15h1v1H1zm1 0h1v1H2z"/><path fill="#7d4a1d" d="M3 15h1v1H3zm1 0h1v1H4z"/><path fill="#96645a" d="M5 15h1v1H5zm1 0h1v1H6z"/><path fill="#ac6e53" d="M7 15h1v1H7zm1 0h1v1H8zm1 0h1v1H9zm1 0h1v1h-1zm1 0h1v1h-1zm1 0h1v1h-1zm1 0h1v1h-1zm1 0h1v1h-1zm1 0h1v1h-1zm1 0h1v1h-1z"/><path fill="#96645a" d="M17 15h1v1h-1z"/><path fill="#7d4a1d" d="M18 15h1v1h-1zm1 0h1v1h-1zm1 0h1v1h-1z"/><path fill="#d28e44" d="M21 15h1v1h-1zm1 0h1v1h-1z"/><path fill="#4b4139" d="M23 15h1v1h-1zM0 16h1v1H0z"/><path fill="#d28e44" d="M1 16h1v1H1zm1 0h1v1H2z"/><path fill="#7d4a1d" d="M3 16h1v1H3z"/><path fill="#96645a" d="M4 16h1v1H4z"/><path fill="#c0784c" d="M5 16h1v1H5zm1 0h1v1H6zm1 0h1v1H7zm1 0h1v1H8zm1 0h1v1H9zm1 0h1v1h-1zm1 0h1v1h-1zm1 0h1v1h-1zm1 0h1v1h-1zm1 0h1v1h-1zm1 0h1v1h-1zm1 0h1v1h-1zm1 0h1v1h-1z"/><path fill="#ac6e53" d="M18 16h1v1h-1z"/><path fill="#96645a" d="M19 16h1v1h-1z"/><path fill="#7d4a1d" d="M20 16h1v1h-1z"/><path fill="#d28e44" d="M21 16h1v1h-1zm1 0h1v1h-1z"/><path fill="#4b4139" d="M23 16h1v1h-1zM0 17h1v1H0z"/><path fill="#d28e44" d="M1 17h1v1H1zm1 0h1v1H2z"/><path fill="#7d4a1d" d="M3 17h1v1H3z"/><path fill="#96645a" d="M4 17h1v1H4z"/><path fill="#c0784c" d="M5 17h1v1H5zm1 0h1v1H6zm1 0h1v1H7zm1 0h1v1H8zm1 0h1v1H9zm1 0h1v1h-1zm1 0h1v1h-1zm1 0h1v1h-1zm1 0h1v1h-1zm1 0h1v1h-1zm1 0h1v1h-1zm1 0h1v1h-1zm1 0h1v1h-1z"/><path fill="#ac6e53" d="M18 17h1v1h-1z"/><path fill="#96645a" d="M19 17h1v1h-1z"/><path fill="#7d4a1d" d="M20 17h1v1h-1z"/><path fill="#d28e44" d="M21 17h1v1h-1zm1 0h1v1h-1z"/><path fill="#4b4139" d="M23 17h1v1h-1zM0 18h1v1H0z"/><path fill="#d28e44" d="M1 18h1v1H1zm1 0h1v1H2z"/><path fill="#7d4a1d" d="M3 18h1v1H3z"/><path fill="#96645a" d="M4 18h1v1H4z"/><path fill="#c0784c" d="M5 18h1v1H5zm1 0h1v1H6zm1 0h1v1H7zm1 0h1v1H8zm1 0h1v1H9zm1 0h1v1h-1zm1 0h1v1h-1zm1 0h1v1h-1zm1 0h1v1h-1zm1 0h1v1h-1zm1 0h1v1h-1zm1 0h1v1h-1zm1 0h1v1h-1z"/><path fill="#ac6e53" d="M18 18h1v1h-1z"/><path fill="#96645a" d="M19 18h1v1h-1z"/><path fill="#7d4a1d" d="M20 18h1v1h-1z"/><path fill="#d28e44" d="M21 18h1v1h-1zm1 0h1v1h-1z"/><path fill="#4b4139" d="M23 18h1v1h-1zM0 19h1v1H0z"/><path fill="#d28e44" d="M1 19h1v1H1zm1 0h1v1H2z"/><path fill="#7d4a1d" d="M3 19h1v1H3zm1 0h1v1H4z"/><path fill="#96645a" d="M5 19h1v1H5zm1 0h1v1H6zm1 0h1v1H7zm1 0h1v1H8z"/><path fill="#ac6e53" d="M9 19h1v1H9z"/><path fill="#96645a" d="M10 19h1v1h-1zm1 0h1v1h-1zm1 0h1v1h-1zm1 0h1v1h-1z"/><path fill="#ac6e53" d="M14 19h1v1h-1z"/><path fill="#96645a" d="M15 19h1v1h-1z"/><path fill="#ac6e53" d="M16 19h1v1h-1zm1 0h1v1h-1z"/><path fill="#96645a" d="M18 19h1v1h-1z"/><path fill="#7d4a1d" d="M19 19h1v1h-1zm1 0h1v1h-1z"/><path fill="#d28e44" d="M21 19h1v1h-1zm1 0h1v1h-1z"/><path fill="#4b4139" d="M23 19h1v1h-1zM0 20h1v1H0z"/><path fill="#d28e44" d="M1 20h1v1H1zm1 0h1v1H2z"/><path fill="#7d4a1d" d="M3 20h1v1H3z"/><path fill="#96645a" d="M4 20h1v1H4z"/><path fill="#c0784c" d="M5 20h1v1H5zm1 0h1v1H6zm1 0h1v1H7zm1 0h1v1H8zm1 0h1v1H9zm1 0h1v1h-1zm1 0h1v1h-1zm1 0h1v1h-1zm1 0h1v1h-1zm1 0h1v1h-1zm1 0h1v1h-1zm1 0h1v1h-1zm1 0h1v1h-1z"/><path fill="#ac6e53" d="M18 20h1v1h-1z"/><path fill="#96645a" d="M19 20h1v1h-1z"/><path fill="#7d4a1d" d="M20 20h1v1h-1z"/><path fill="#d28e44" d="M21 20h1v1h-1zm1 0h1v1h-1z"/><path fill="#4b4139" d="M23 20h1v1h-1zM0 21h1v1H0z"/><path fill="#d28e44" d="M1 21h1v1H1zm1 0h1v1H2z"/><path fill="#7d4a1d" d="M3 21h1v1H3z"/><path fill="#96645a" d="M4 21h1v1H4z"/><path fill="#c0784c" d="M5 21h1v1H5zm1 0h1v1H6zm1 0h1v1H7zm1 0h1v1H8zm1 0h1v1H9zm1 0h1v1h-1zm1 0h1v1h-1zm1 0h1v1h-1zm1 0h1v1h-1zm1 0h1v1h-1zm1 0h1v1h-1zm1 0h1v1h-1zm1 0h1v1h-1z"/><path fill="#ac6e53" d="M18 21h1v1h-1z"/><path fill="#96645a" d="M19 21h1v1h-1z"/><path fill="#7d4a1d" d="M20 21h1v1h-1z"/><path fill="#d28e44" d="M21 21h1v1h-1zm1 0h1v1h-1z"/><path fill="#4b4139" d="M23 21h1v1h-1zM0 22h1v1H0z"/><path fill="#d28e44" d="M1 22h1v1H1zm1 0h1v1H2z"/><path fill="#7d4a1d" d="M3 22h1v1H3z"/><path fill="#96645a" d="M4 22h1v1H4z"/><path fill="#c0784c" d="M5 22h1v1H5zm1 0h1v1H6zm1 0h1v1H7zm1 0h1v1H8zm1 0h1v1H9zm1 0h1v1h-1zm1 0h1v1h-1zm1 0h1v1h-1zm1 0h1v1h-1zm1 0h1v1h-1zm1 0h1v1h-1zm1 0h1v1h-1zm1 0h1v1h-1z"/><path fill="#ac6e53" d="M18 22h1v1h-1z"/><path fill="#96645a" d="M19 22h1v1h-1z"/><path fill="#7d4a1d" d="M20 22h1v1h-1z"/><path fill="#d28e44" d="M21 22h1v1h-1zm1 0h1v1h-1z"/><path fill="#4b4139" d="M23 22h1v1h-1zM0 23h1v1H0z"/><path fill="#d28e44" d="M1 23h1v1H1zm1 0h1v1H2z"/><path fill="#7d4a1d" d="M3 23h1v1H3zm1 0h1v1H4z"/><path fill="#96645a" d="M5 23h1v1H5zm1 0h1v1H6zm1 0h1v1H7z"/><path fill="#ac6e53" d="M8 23h1v1H8zm1 0h1v1H9z"/><path fill="#96645a" d="M10 23h1v1h-1zm1 0h1v1h-1zm1 0h1v1h-1zm1 0h1v1h-1z"/><path fill="#ac6e53" d="M14 23h1v1h-1z"/><path fill="#96645a" d="M15 23h1v1h-1zm1 0h1v1h-1zm1 0h1v1h-1z"/><path fill="#7d4a1d" d="M18 23h1v1h-1zm1 0h1v1h-1zm1 0h1v1h-1z"/><path fill="#d28e44" d="M21 23h1v1h-1zm1 0h1v1h-1z"/><path fill="#4b4139" d="M23 23h1v1h-1z"/></svg>