<svg xmlns="http://www.w3.org/2000/svg" width="24" height="24" shape-rendering="crispEdges"><path fill="#f4f4e6" d="M0 0h1v1H0z"/><path fill="#2f353f" d="M1 0h1v1H1z"/><path fill="#5a6476" d="M2 0h1v1H2z"/><path fill="#8492ab" d="M3 0h1v1H3z"/><path fill="#2f353f" d="M4 0h1v1H4z"/><path fill="#414854" d="M5 0h1v1H5zm1 0h1v1H6z"/><path fill="#5a6476" d="M7 0h1v1H7zm1 0h1v1H8z"/><path fill="#6f7b90" d="M9 0h1v1H9zm1 0h1v1h-1zm1 0h1v1h-1zm1 0h1v1h-1zm1 0h1v1h-1zm1 0h1v1h-1z"/><path fill="#5a6476" d="M15 0h1v1h-1zm1 0h1v1h-1z"/><path fill="#414854" d="M17 0h1v1h-1zm1 0h1v1h-1z"/><path fill="#2f353f" d="M19 0h1v1h-1z"/><path fill="#8492ab" d="M20 0h1v1h-1z"/><path fill="#5a6476" d="M21 0h1v1h-1z"/><path fill="#2f353f" d="M22 0h1v1h-1z"/><path fill="#f4f4e6" d="M23 0h1v1h-1zM0 1h1v1H0z"/><path d="M1 1h1v1H1z"/><path fill="#5a6476" d="M2 1h1v1H2z"/><path fill="#b9c2d1" d="M3 1h1v1H3z"/><path fill="#2f353f" d="M4 1h1v1H4z"/><path fill="#414854" d="M5 1h1v1H5z"/><path fill="#5a6476" d="M6 1h1v1H6zm1 0h1v1H7z"/><path fill="#6f7b90" d="M8 1h1v1H8zm1 0h1v1H9zm1 0h1v1h-1zm1 0h1v1h-1zm1 0h1v1h-1zm1 0h1v1h-1zm1 0h1v1h-1zm1 0h1v1h-1z"/><path fill="#5a6476" d="M16 1h1v1h-1zm1 0h1v1h-1z"/><path fill="#414854" d="M18 1h1v1h-1z"/><path fill="#2f353f" d="M19 1h1v1h-1z"/><path fill="#b9c2d1" d="M20 1h1v1h-1z"/><path fill="#5a6476" d="M21 1h1v1h-1z"/><path d="M22 1h1v1h-1z"/><path fill="#f4f4e6" d="M23 1h1v1h-1zM0 2h1v1H0z"/><path d="M1 2h1v1H1z"/><path fill="#5a6476" d="M2 2h1v1H2z"/><path fill="#414854" d="M3 2h1v1H3zm1 0h1v1H4zm1 0h1v1H5zm1 0h1v1H6z"/><path fill="#5a6476" d="M7 2h1v1H7z"/><path fill="#6f7b90" d="M8 2h1v1H8zm1 0h1v1H9zm1 0h1v1h-1zm1 0h1v1h-1zm1 0h1v1h-1zm1 0h1v1h-1zm1 0h1v1h-1zm1 0h1v1h-1z"/><path fill="#5a6476" d="M16 2h1v1h-1z"/><path fill="#414854" d="M17 2h1v1h-1zm1 0h1v1h-1zm1 0h1v1h-1zm1 0h1v1h-1z"/><path fill="#5a6476" d="M21 2h1v1h-1z"/><path d="M22 2h1v1h-1z"/><path fill="#f4f4e6" d="M23 2h1v1h-1zM0 3h1v1H0z"/><path d="M1 3h1v1H1z"/><path fill="#414854" d="M2 3h1v1H2z"/><path fill="#8492ab" d="M3 3h1v1H3zm1 0h1v1H4zm1 0h1v1H5zm1 0h1v1H6z"/><path fill="#2f353f" d="M7 3h1v1H7z"/><path fill="#5a6476" d="M8 3h1v1H8z"/><path fill="#6f7b90" d="M9 3h1v1H9zm1 0h1v1h-1zm1 0h1v1h-1zm1 0h1v1h-1zm1 0h1v1h-1zm1 0h1v1h-1z"/><path fill="#5a6476" d="M15 3h1v1h-1z"/><path fill="#2f353f" d="M16 3h1v1h-1z"/><path fill="#8492ab" d="M17 3h1v1h-1zm1 0h1v1h-1zm1 0h1v1h-1zm1 0h1v1h-1z"/><path fill="#414854" d="M21 3h1v1h-1z"/><path d="M22 3h1v1h-1z"/><path fill="#f4f4e6" d="M23 3h1v1h-1zM0 4h1v1H0z"/><path fill="#414854" d="M1 4h1v1H1z"/><path fill="#8492ab" d="M2 4h1v1H2z"/><path fill="#5a6476" d="M3 4h1v1H3z"/><path fill="#2f353f" d="M4 4h1v1H4zm1 0h1v1H5z"/><path fill="#5a6476" d="M6 4h1v1H6z"/><path fill="#8492ab" d="M7 4h1v1H7z"/><path fill="#2f353f" d="M8 4h1v1H8z"/><path fill="#5a6476" d="M9 4h1v1H9zm1 0h1v1h-1zm1 0h1v1h-1zm1 0h1v1h-1zm1 0h1v1h-1zm1 0h1v1h-1z"/><path fill="#2f353f" d="M15 4h1v1h-1z"/><path fill="#8492ab" d="M16 4h1v1h-1z"/><path fill="#5a6476" d="M17 4h1v1h-1z"/><path fill="#2f353f" d="M18 4h1v1h-1zm1 0h1v1h-1z"/><path fill="#5a6476" d="M20 4h1v1h-1z"/><path fill="#8492ab" d="M21 4h1v1h-1z"/><path fill="#414854" d="M22 4h1v1h-1z"/><path fill="#f4f4e6" d="M23 4h1v1h-1zM0 5h1v1H0z"/><path fill="#5a6476" d="M1 5h1v1H1z"/><path fill="#8492ab" d="M2 5h1v1H2z"/><path fill="#414854" d="M3 5h1v1H3z"/><path d="M4 5h1v1H4zm1 0h1v1H5z"/><path fill="#414854" d="M6 5h1v1H6z"/><path fill="#8492ab" d="M7 5h1v1H7z"/><path fill="#2f353f" d="M8 5h1v1H8z"/><path fill="#5f0578" d="M9 5h1v1H9z"/><path fill="#db2471" d="M10 5h1v1h-1zm1 0h1v1h-1zm1 0h1v1h-1zm1 0h1v1h-1z"/><path fill="#5f0578" d="M14 5h1v1h-1z"/><path fill="#2f353f" d="M15 5h1v1h-1z"/><path fill="#8492ab" d="M16 5h1v1h-1z"/><path fill="#414854" d="M17 5h1v1h-1z"/><path d="M18 5h1v1h-1zm1 0h1v1h-1z"/><path fill="#414854" d="M20 5h1v1h-1z"/><path fill="#8492ab" d="M21 5h1v1h-1z"/><path fill="#5a6476" d="M22 5h1v1h-1z"/><path fill="#f4f4e6" d="M23 5h1v1h-1zM0 6h1v1H0z"/><path fill="#5a6476" d="M1 6h1v1H1z"/><path fill="#b9c2d1" d="M2 6h1v1H2z"/><path fill="#8492ab" d="M3 6h1v1H3z"/><path fill="#5a6476" d="M4 6h1v1H4zm1 0h1v1H5z"/><path fill="#8492ab" d="M6 6h1v1H6z"/><path fill="#b9c2d1" d="M7 6h1v1H7z"/><path fill="#414854" d="M8 6h1v1H8z"/><path fill="#f2e5c7" d="M9 6h1v1H9z"/><path fill="#f49e9c" d="M10 6h1v1h-1zm1 0h1v1h-1zm1 0h1v1h-1zm1 0h1v1h-1z"/><path fill="#f2e5c7" d="M14 6h1v1h-1z"/><path fill="#414854" d="M15 6h1v1h-1z"/><path fill="#b9c2d1" d="M16 6h1v1h-1z"/><path fill="#8492ab" d="M17 6h1v1h-1z"/><path fill="#5a6476" d="M18 6h1v1h-1zm1 0h1v1h-1z"/><path fill="#8492ab" d="M20 6h1v1h-1z"/><path fill="#b9c2d1" d="M21 6h1v1h-1z"/><path fill="#5a6476" d="M22 6h1v1h-1z"/><path fill="#f4f4e6" d="M23 6h1v1h-1zM0 7h1v1H0z"/><path fill="#414854" d="M1 7h1v1H1z"/><path fill="#6f7b90" d="M2 7h1v1H2z"/><path fill="#b9c2d1" d="M3 7h1v1H3zm1 0h1v1H4zm1 0h1v1H5zm1 0h1v1H6z"/><path fill="#6f7b90" d="M7 7h1v1H7z"/><path fill="#5a6476" d="M8 7h1v1H8z"/><path fill="#f2e5c7" d="M9 7h1v1H9z"/><path fill="#db2471" d="M10 7h1v1h-1zm1 0h1v1h-1zm1 0h1v1h-1zm1 0h1v1h-1z"/><path fill="#f2e5c7" d="M14 7h1v1h-1z"/><path fill="#5a6476" d="M15 7h1v1h-1z"/><path fill="#6f7b90" d="M16 7h1v1h-1z"/><path fill="#b9c2d1" d="M17 7h1v1h-1zm1 0h1v1h-1zm1 0h1v1h-1zm1 0h1v1h-1z"/><path fill="#6f7b90" d="M21 7h1v1h-1z"/><path fill="#414854" d="M22 7h1v1h-1z"/><path fill="#f4f4e6" d="M23 7h1v1h-1zM0 8h1v1H0z"/><path fill="#2f353f" d="M1 8h1v1H1z"/><path fill="#6f7b90" d="M2 8h1v1H2z"/><path fill="#9da9be" d="M3 8h1v1H3z"/><path fill="#8492ab" d="M4 8h1v1H4zm1 0h1v1H5z"/><path fill="#9da9be" d="M6 8h1v1H6z"/><path fill="#6f7b90" d="M7 8h1v1H7z"/><path fill="#5a6476" d="M8 8h1v1H8z"/><path fill="#f2cc72" d="M9 8h1v1H9z"/><path fill="#a10070" d="M10 8h1v1h-1zm1 0h1v1h-1zm1 0h1v1h-1zm1 0h1v1h-1z"/><path fill="#f2cc72" d="M14 8h1v1h-1z"/><path fill="#5a6476" d="M15 8h1v1h-1z"/><path fill="#6f7b90" d="M16 8h1v1h-1z"/><path fill="#9da9be" d="M17 8h1v1h-1z"/><path fill="#8492ab" d="M18 8h1v1h-1zm1 0h1v1h-1z"/><path fill="#9da9be" d="M20 8h1v1h-1z"/><path fill="#6f7b90" d="M21 8h1v1h-1z"/><path fill="#2f353f" d="M22 8h1v1h-1z"/><path fill="#f4f4e6" d="M23 8h1v1h-1zM0 9h1v1H0z"/><path fill="#2f353f" d="M1 9h1v1H1z"/><path fill="#8492ab" d="M2 9h1v1H2zm1 0h1v1H3z"/><path fill="#414854" d="M4 9h1v1H4zm1 0h1v1H5z"/><path fill="#8492ab" d="M6 9h1v1H6zm1 0h1v1H7z"/><path fill="#5a6476" d="M8 9h1v1H8z"/><path fill="#f2cc72" d="M9 9h1v1H9z"/><path fill="#a10070" d="M10 9h1v1h-1zm1 0h1v1h-1zm1 0h1v1h-1zm1 0h1v1h-1z"/><path fill="#f2cc72" d="M14 9h1v1h-1z"/><path fill="#5a6476" d="M15 9h1v1h-1z"/><path fill="#8492ab" d="M16 9h1v1h-1zm1 0h1v1h-1z"/><path fill="#414854" d="M18 9h1v1h-1zm1 0h1v1h-1z"/><path fill="#8492ab" d="M20 9h1v1h-1zm1 0h1v1h-1z"/><path fill="#2f353f" d="M22 9h1v1h-1z"/><path fill="#f4f4e6" d="M23 9h1v1h-1zM0 10h1v1H0z"/><path fill="#2f353f" d="M1 10h1v1H1z"/><path fill="#6f7b90" d="M2 10h1v1H2z"/><path fill="#9da9be" d="M3 10h1v1H3z"/><path fill="#414854" d="M4 10h1v1H4zm1 0h1v1H5z"/><path fill="#9da9be" d="M6 10h1v1H6z"/><path fill="#6f7b90" d="M7 10h1v1H7z"/><path fill="#5a6476" d="M8 10h1v1H8z"/><path fill="#f2cc72" d="M9 10h1v1H9z"/><path fill="#a10070" d="M10 10h1v1h-1zm1 0h1v1h-1zm1 0h1v1h-1zm1 0h1v1h-1z"/><path fill="#f2cc72" d="M14 10h1v1h-1z"/><path fill="#5a6476" d="M15 10h1v1h-1z"/><path fill="#6f7b90" d="M16 10h1v1h-1z"/><path fill="#9da9be" d="M17 10h1v1h-1z"/><path fill="#414854" d="M18 10h1v1h-1zm1 0h1v1h-1z"/><path fill="#9da9be" d="M20 10h1v1h-1z"/><path fill="#6f7b90" d="M21 10h1v1h-1z"/><path fill="#2f353f" d="M22 10h1v1h-1z"/><path fill="#f4f4e6" d="M23 10h1v1h-1zM0 11h1v1H0z"/><path fill="#2f353f" d="M1 11h1v1H1z"/><path fill="#8492ab" d="M2 11h1v1H2zm1 0h1v1H3z"/><path fill="#5a6476" d="M4 11h1v1H4zm1 0h1v1H5z"/><path fill="#8492ab" d="M6 11h1v1H6zm1 0h1v1H7z"/><path fill="#5a6476" d="M8 11h1v1H8z"/><path fill="#f2cc72" d="M9 11h1v1H9z"/><path fill="#a10070" d="M10 11h1v1h-1zm1 0h1v1h-1zm1 0h1v1h-1zm1 0h1v1h-1z"/><path fill="#f2cc72" d="M14 11h1v1h-1z"/><path fill="#5a6476" d="M15 11h1v1h-1z"/><path fill="#8492ab" d="M16 11h1v1h-1zm1 0h1v1h-1z"/><path fill="#5a6476" d="M18 11h1v1h-1zm1 0h1v1h-1z"/><path fill="#8492ab" d="M20 11h1v1h-1zm1 0h1v1h-1z"/><path fill="#2f353f" d="M22 11h1v1h-1z"/><path fill="#f4f4e6" d="M23 11h1v1h-1zM0 12h1v1H0z"/><path fill="#2f353f" d="M1 12h1v1H1z"/><path fill="#6f7b90" d="M2 12h1v1H2z"/><path fill="#9da9be" d="M3 12h1v1H3z"/><path fill="#b9c2d1" d="M4 12h1v1H4zm1 0h1v1H5z"/><path fill="#9da9be" d="M6 12h1v1H6z"/><path fill="#6f7b90" d="M7 12h1v1H7z"/><path fill="#5a6476" d="M8 12h1v1H8zm1 0h1v1H9z"/><path fill="#f2cc72" d="M10 12h1v1h-1z"/><path fill="#a10070" d="M11 12h1v1h-1zm1 0h1v1h-1z"/><path fill="#f2cc72" d="M13 12h1v1h-1z"/><path fill="#5a6476" d="M14 12h1v1h-1zm1 0h1v1h-1z"/><path fill="#6f7b90" d="M16 12h1v1h-1z"/><path fill="#9da9be" d="M17 12h1v1h-1z"/><path fill="#b9c2d1" d="M18 12h1v1h-1zm1 0h1v1h-1z"/><path fill="#9da9be" d="M20 12h1v1h-1z"/><path fill="#6f7b90" d="M21 12h1v1h-1z"/><path fill="#2f353f" d="M22 12h1v1h-1z"/><path fill="#f4f4e6" d="M23 12h1v1h-1zM0 13h1v1H0z"/><path fill="#2f353f" d="M1 13h1v1H1z"/><path fill="#8492ab" d="M2 13h1v1H2zm1 0h1v1H3z"/><path fill="#9da9be" d="M4 13h1v1H4zm1 0h1v1H5z"/><path fill="#8492ab" d="M6 13h1v1H6zm1 0h1v1H7z"/><path fill="#5a6476" d="M8 13h1v1H8z"/><path fill="#8492ab" d="M9 13h1v1H9z"/><path fill="#6f7b90" d="M10 13h1v1h-1z"/><path fill="#f2cc72" d="M11 13h1v1h-1zm1 0h1v1h-1z"/><path fill="#6f7b90" d="M13 13h1v1h-1z"/><path fill="#8492ab" d="M14 13h1v1h-1z"/><path fill="#5a6476" d="M15 13h1v1h-1z"/><path fill="#8492ab" d="M16 13h1v1h-1zm1 0h1v1h-1z"/><path fill="#9da9be" d="M18 13h1v1h-1zm1 0h1v1h-1z"/><path fill="#8492ab" d="M20 13h1v1h-1zm1 0h1v1h-1z"/><path fill="#2f353f" d="M22 13h1v1h-1z"/><path fill="#f4f4e6" d="M23 13h1v1h-1zM0 14h1v1H0z"/><path d="M1 14h1v1H1z"/><path fill="#6f7b90" d="M2 14h1v1H2z"/><path fill="#9da9be" d="M3 14h1v1H3z"/><path fill="#8492ab" d="M4 14h1v1H4zm1 0h1v1H5z"/><path fill="#9da9be" d="M6 14h1v1H6z"/><path fill="#6f7b90" d="M7 14h1v1H7z"/><path fill="#5a6476" d="M8 14h1v1H8z"/><path fill="#8492ab" d="M9 14h1v1H9zm1 0h1v1h-1z"/><path fill="#6f7b90" d="M11 14h1v1h-1zm1 0h1v1h-1z"/><path fill="#8492ab" d="M13 14h1v1h-1zm1 0h1v1h-1z"/><path fill="#5a6476" d="M15 14h1v1h-1z"/><path fill="#6f7b90" d="M16 14h1v1h-1z"/><path fill="#9da9be" d="M17 14h1v1h-1z"/><path fill="#8492ab" d="M18 14h1v1h-1zm1 0h1v1h-1z"/><path fill="#9da9be" d="M20 14h1v1h-1z"/><path fill="#6f7b90" d="M21 14h1v1h-1z"/><path d="M22 14h1v1h-1z"/><path fill="#f4f4e6" d="M23 14h1v1h-1zM0 15h1v1H0z"/><path d="M1 15h1v1H1z"/><path fill="#8492ab" d="M2 15h1v1H2zm1 0h1v1H3z"/><path fill="#b9c2d1" d="M4 15h1v1H4zm1 0h1v1H5z"/><path fill="#8492ab" d="M6 15h1v1H6zm1 0h1v1H7z"/><path fill="#5a6476" d="M8 15h1v1H8z"/><path fill="#8492ab" d="M9 15h1v1H9z"/><path fill="#6f7b90" d="M10 15h1v1h-1z"/><path fill="#5a6476" d="M11 15h1v1h-1zm1 0h1v1h-1z"/><path fill="#6f7b90" d="M13 15h1v1h-1z"/><path fill="#8492ab" d="M14 15h1v1h-1z"/><path fill="#5a6476" d="M15 15h1v1h-1z"/><path fill="#8492ab" d="M16 15h1v1h-1zm1 0h1v1h-1z"/><path fill="#b9c2d1" d="M18 15h1v1h-1zm1 0h1v1h-1z"/><path fill="#8492ab" d="M20 15h1v1h-1zm1 0h1v1h-1z"/><path d="M22 15h1v1h-1z"/><path fill="#f4f4e6" d="M23 15h1v1h-1zM0 16h1v1H0z"/><path d="M1 16h1v1H1z"/><path fill="#6f7b90" d="M2 16h1v1H2z"/><path fill="#9da9be" d="M3 16h1v1H3z"/><path fill="#8492ab" d="M4 16h1v1H4zm1 0h1v1H5z"/><path fill="#9da9be" d="M6 16h1v1H6z"/><path fill="#6f7b90" d="M7 16h1v1H7z"/><path fill="#414854" d="M8 16h1v1H8z"/><path fill="#6f7b90" d="M9 16h1v1H9z"/><path fill="#414854" d="M10 16h1v1h-1z"/><path d="M11 16h1v1h-1zm1 0h1v1h-1z"/><path fill="#414854" d="M13 16h1v1h-1z"/><path fill="#6f7b90" d="M14 16h1v1h-1z"/><path fill="#414854" d="M15 16h1v1h-1z"/><path fill="#6f7b90" d="M16 16h1v1h-1z"/><path fill="#9da9be" d="M17 16h1v1h-1z"/><path fill="#8492ab" d="M18 16h1v1h-1zm1 0h1v1h-1z"/><path fill="#9da9be" d="M20 16h1v1h-1z"/><path fill="#6f7b90" d="M21 16h1v1h-1z"/><path d="M22 16h1v1h-1z"/><path fill="#f4f4e6" d="M23 16h1v1h-1zM0 17h1v1H0z"/><path d="M1 17h1v1H1z"/><path fill="#8492ab" d="M2 17h1v1H2zm1 0h1v1H3z"/><path fill="#b9c2d1" d="M4 17h1v1H4zm1 0h1v1H5z"/><path fill="#8492ab" d="M6 17h1v1H6zm1 0h1v1H7z"/><path fill="#414854" d="M8 17h1v1H8z"/><path fill="#6f7b90" d="M9 17h1v1H9z"/><path d="M10 17h1v1h-1zm1 0h1v1h-1zm1 0h1v1h-1zm1 0h1v1h-1z"/><path fill="#6f7b90" d="M14 17h1v1h-1z"/><path fill="#414854" d="M15 17h1v1h-1z"/><path fill="#8492ab" d="M16 17h1v1h-1zm1 0h1v1h-1z"/><path fill="#b9c2d1" d="M18 17h1v1h-1zm1 0h1v1h-1z"/><path fill="#8492ab" d="M20 17h1v1h-1zm1 0h1v1h-1z"/><path d="M22 17h1v1h-1z"/><path fill="#f4f4e6" d="M23 17h1v1h-1zM0 18h1v1H0z"/><path d="M1 18h1v1H1z"/><path fill="#6f7b90" d="M2 18h1v1H2z"/><path fill="#9da9be" d="M3 18h1v1H3z"/><path fill="#8492ab" d="M4 18h1v1H4zm1 0h1v1H5z"/><path fill="#9da9be" d="M6 18h1v1H6z"/><path fill="#6f7b90" d="M7 18h1v1H7z"/><path fill="#2f353f" d="M8 18h1v1H8z"/><path fill="#6f7b90" d="M9 18h1v1H9z"/><path d="M10 18h1v1h-1zm1 0h1v1h-1zm1 0h1v1h-1zm1 0h1v1h-1z"/><path fill="#6f7b90" d="M14 18h1v1h-1z"/><path fill="#2f353f" d="M15 18h1v1h-1z"/><path fill="#6f7b90" d="M16 18h1v1h-1z"/><path fill="#9da9be" d="M17 18h1v1h-1z"/><path fill="#8492ab" d="M18 18h1v1h-1zm1 0h1v1h-1z"/><path fill="#9da9be" d="M20 18h1v1h-1z"/><path fill="#6f7b90" d="M21 18h1v1h-1z"/><path d="M22 18h1v1h-1z"/><path fill="#f4f4e6" d="M23 18h1v1h-1zM0 19h1v1H0z"/><path d="M1 19h1v1H1z"/><path fill="#8492ab" d="M2 19h1v1H2zm1 0h1v1H3z"/><path fill="#b9c2d1" d="M4 19h1v1H4zm1 0h1v1H5z"/><path fill="#8492ab" d="M6 19h1v1H6zm1 0h1v1H7z"/><path fill="#2f353f" d="M8 19h1v1H8z"/><path fill="#5a6476" d="M9 19h1v1H9z"/><path d="M10 19h1v1h-1zm1 0h1v1h-1zm1 0h1v1h-1zm1 0h1v1h-1z"/><path fill="#5a6476" d="M14 19h1v1h-1z"/><path fill="#2f353f" d="M15 19h1v1h-1z"/><path fill="#8492ab" d="M16 19h1v1h-1zm1 0h1v1h-1z"/><path fill="#b9c2d1" d="M18 19h1v1h-1zm1 0h1v1h-1z"/><path fill="#8492ab" d="M20 19h1v1h-1zm1 0h1v1h-1z"/><path d="M22 19h1v1h-1z"/><path fill="#f4f4e6" d="M23 19h1v1h-1zM0 20h1v1H0z"/><path d="M1 20h1v1H1z"/><path fill="#6f7b90" d="M2 20h1v1H2z"/><path fill="#9da9be" d="M3 20h1v1H3z"/><path fill="#8492ab" d="M4 20h1v1H4zm1 0h1v1H5z"/><path fill="#9da9be" d="M6 20h1v1H6z"/><path fill="#6f7b90" d="M7 20h1v1H7z"/><path d="M8 20h1v1H8z"/><path fill="#5a6476" d="M9 20h1v1H9z"/><path d="M10 20h1v1h-1zm1 0h1v1h-1zm1 0h1v1h-1zm1 0h1v1h-1z"/><path fill="#5a6476" d="M14 20h1v1h-1z"/><path d="M15 20h1v1h-1z"/><path fill="#6f7b90" d="M16 20h1v1h-1z"/><path fill="#9da9be" d="M17 20h1v1h-1z"/><path fill="#8492ab" d="M18 20h1v1h-1zm1 0h1v1h-1z"/><path fill="#9da9be" d="M20 20h1v1h-1z"/><path fill="#6f7b90" d="M21 20h1v1h-1z"/><path d="M22 20h1v1h-1z"/><path fill="#f4f4e6" d="M23 20h1v1h-1zM0 21h1v1H0z"/><path fill="#405397" d="M1 21h1v1H1z"/><path fill="#8492ab" d="M2 21h1v1H2z"/><path fill="#6f7b90" d="M3 21h1v1H3z"/><path fill="#b9c2d1" d="M4 21h1v1H4zm1 0h1v1H5z"/><path fill="#6f7b90" d="M6 21h1v1H6z"/><path fill="#8492ab" d="M7 21h1v1H7z"/><path d="M8 21h1v1H8z"/><path fill="#414854" d="M9 21h1v1H9z"/><path fill="#54282f" d="M10 21h1v1h-1zm1 0h1v1h-1zm1 0h1v1h-1zm1 0h1v1h-1z"/><path fill="#414854" d="M14 21h1v1h-1z"/><path d="M15 21h1v1h-1z"/><path fill="#8492ab" d="M16 21h1v1h-1z"/><path fill="#6f7b90" d="M17 21h1v1h-1z"/><path fill="#b9c2d1" d="M18 21h1v1h-1zm1 0h1v1h-1z"/><path fill="#6f7b90" d="M20 21h1v1h-1z"/><path fill="#8492ab" d="M21 21h1v1h-1z"/><path fill="#405397" d="M22 21h1v1h-1z"/><path fill="#f4f4e6" d="M23 21h1v1h-1zM0 22h1v1H0z"/><path fill="#93d4e0" d="M1 22h1v1H1z"/><path fill="#405397" d="M2 22h1v1H2z"/><path fill="#8492ab" d="M3 22h1v1H3z"/><path fill="#6f7b90" d="M4 22h1v1H4zm1 0h1v1H5z"/><path fill="#8492ab" d="M6 22h1v1H6z"/><path d="M7 22h1v1H7z"/><path fill="#54282f" d="M8 22h1v1H8z"/><path fill="#794c53" d="M9 22h1v1H9zm1 0h1v1h-1zm1 0h1v1h-1zm1 0h1v1h-1zm1 0h1v1h-1zm1 0h1v1h-1z"/><path fill="#54282f" d="M15 22h1v1h-1z"/><path d="M16 22h1v1h-1z"/><path fill="#8492ab" d="M17 22h1v1h-1z"/><path fill="#6f7b90" d="M18 22h1v1h-1zm1 0h1v1h-1z"/><path fill="#8492ab" d="M20 22h1v1h-1z"/><path fill="#405397" d="M21 22h1v1h-1z"/><path fill="#93d4e0" d="M22 22h1v1h-1z"/><path fill="#f4f4e6" d="M23 22h1v1h-1zM0 23h1v1H0zm1 0h1v1H1z"/><path fill="#93d4e0" d="M2 23h1v1H2z"/><path fill="#405397" d="M3 23h1v1H3zm1 0h1v1H4z"/><path fill="#54282f" d="M5 23h1v1H5zm1 0h1v1H6z"/><path fill="#794c53" d="M7 23h1v1H7z"/><path fill="#9c6b60" d="M8 23h1v1H8zm1 0h1v1H9zm1 0h1v1h-1zm1 0h1v1h-1zm1 0h1v1h-1zm1 0h1v1h-1zm1 0h1v1h-1zm1 0h1v1h-1z"/><path fill="#794c53" d="M16 23h1v1h-1z"/><path fill="#54282f" d="M17 23h1v1h-1zm1 0h1v1h-1z"/><path fill="#405397" d="M19 23h1v1h-1zm1 0h1v1h-1z"/><path fill="#93d4e0" d="M21 23h1v1h-1z"/><path fill="#f4f4e6" d="M22 23h1v1h-1zm1 0h1v1h-1z"/></svg>