<svg xmlns="http://www.w3.org/2000/svg" width="24" height="24" shape-rendering="crispEdges"><path fill="#40002a" d="M8 0h1v1H8zm1 0h1v1H9zm1 0h1v1h-1z"/><path fill="#7d4a1d" d="M11 0h1v1h-1zm1 0h1v1h-1zm1 0h1v1h-1zm1 0h1v1h-1z"/><path fill="#40002a" d="M5 1h1v1H5zm1 0h1v1H6zm1 0h1v1H7z"/><path fill="#7d4a1d" d="M8 1h1v1H8z"/><path fill="#e4a43c" d="M9 1h1v1H9zm1 0h1v1h-1z"/><path fill="#7d4a1d" d="M11 1h1v1h-1z"/><path fill="#e4a43c" d="M12 1h1v1h-1zm1 0h1v1h-1z"/><path fill="#7d4a1d" d="M14 1h1v1h-1zm1 0h1v1h-1zm1 0h1v1h-1zm1 0h1v1h-1z"/><path fill="#40002a" d="M3 2h1v1H3zm1 0h1v1H4z"/><path fill="#7d4a1d" d="M5 2h1v1H5z"/><path fill="#e4a43c" d="M6 2h1v1H6zm1 0h1v1H7z"/><path fill="#7d4a1d" d="M8 2h1v1H8z"/><path fill="#c0784c" d="M9 2h1v1H9zm1 0h1v1h-1z"/><path fill="#7d4a1d" d="M11 2h1v1h-1z"/><path fill="#c0784c" d="M12 2h1v1h-1zm1 0h1v1h-1z"/><path fill="#7d4a1d" d="M14 2h1v1h-1z"/><path fill="#e4a43c" d="M15 2h1v1h-1zm1 0h1v1h-1z"/><path fill="#7d4a1d" d="M17 2h1v1h-1zm1 0h1v1h-1zm1 0h1v1h-1z"/><path fill="#40002a" d="M2 3h1v1H2z"/><path fill="#e4a43c" d="M3 3h1v1H3zm1 0h1v1H4z"/><path fill="#7d4a1d" d="M5 3h1v1H5z"/><path fill="#c0784c" d="M6 3h1v1H6zm1 0h1v1H7z"/><path fill="#7d4a1d" d="M8 3h1v1H8z"/><path fill="#96645a" d="M9 3h1v1H9zm1 0h1v1h-1z"/><path fill="#7d4a1d" d="M11 3h1v1h-1z"/><path fill="#96645a" d="M12 3h1v1h-1zm1 0h1v1h-1z"/><path fill="#40002a" d="M14 3h1v1h-1z"/><path fill="#c0784c" d="M15 3h1v1h-1zm1 0h1v1h-1z"/><path fill="#7d4a1d" d="M17 3h1v1h-1z"/><path fill="#e4a43c" d="M18 3h1v1h-1zm1 0h1v1h-1z"/><path fill="#7d4a1d" d="M20 3h1v1h-1z"/><path fill="#40002a" d="M1 4h1v1H1z"/><path fill="#7d4a1d" d="M2 4h1v1H2z"/><path fill="#c0784c" d="M3 4h1v1H3zm1 0h1v1H4z"/><path fill="#7d4a1d" d="M5 4h1v1H5z"/><path fill="#96645a" d="M6 4h1v1H6zm1 0h1v1H7z"/><path fill="#7d4a1d" d="M8 4h1v1H8z"/><path fill="#96645a" d="M9 4h1v1H9zm1 0h1v1h-1z"/><path fill="#7d4a1d" d="M11 4h1v1h-1z"/><path fill="#96645a" d="M12 4h1v1h-1zm1 0h1v1h-1z"/><path fill="#40002a" d="M14 4h1v1h-1z"/><path fill="#7d4a1d" d="M15 4h1v1h-1zm1 0h1v1h-1z"/><path fill="#40002a" d="M17 4h1v1h-1z"/><path fill="#c0784c" d="M18 4h1v1h-1zm1 0h1v1h-1z"/><path fill="#7d4a1d" d="M20 4h1v1h-1zm1 0h1v1h-1z"/><path fill="#40002a" d="M1 5h1v1H1z"/><path fill="#7d4a1d" d="M2 5h1v1H2z"/><path fill="#96645a" d="M3 5h1v1H3zm1 0h1v1H4z"/><path fill="#7d4a1d" d="M5 5h1v1H5z"/><path fill="#96645a" d="M6 5h1v1H6zm1 0h1v1H7z"/><path fill="#7d4a1d" d="M8 5h1v1H8z"/><path fill="#96645a" d="M9 5h1v1H9zm1 0h1v1h-1z"/><path fill="#7d4a1d" d="M11 5h1v1h-1z"/><path fill="#96645a" d="M12 5h1v1h-1z"/><path fill="#7d4a1d" d="M13 5h1v1h-1z"/><path fill="#40002a" d="M14 5h1v1h-1z"/><path fill="#7d4a1d" d="M15 5h1v1h-1zm1 0h1v1h-1z"/><path fill="#40002a" d="M17 5h1v1h-1zm1 0h1v1h-1zm1 0h1v1h-1z"/><path fill="#7d4a1d" d="M20 5h1v1h-1zm1 0h1v1h-1z"/><path fill="#40002a" d="M0 6h1v1H0z"/><path fill="#e4a43c" d="M1 6h1v1H1zm1 0h1v1H2z"/><path fill="#7d4a1d" d="M3 6h1v1H3z"/><path fill="#96645a" d="M4 6h1v1H4z"/><path fill="#7d4a1d" d="M5 6h1v1H5z"/><path fill="#96645a" d="M6 6h1v1H6zm1 0h1v1H7z"/><path fill="#7d4a1d" d="M8 6h1v1H8z"/><path fill="#96645a" d="M9 6h1v1H9zm1 0h1v1h-1z"/><path fill="#7d4a1d" d="M11 6h1v1h-1zm1 0h1v1h-1zm1 0h1v1h-1z"/><path fill="#40002a" d="M14 6h1v1h-1z"/><path fill="#7d4a1d" d="M15 6h1v1h-1zm1 0h1v1h-1z"/><path fill="#40002a" d="M17 6h1v1h-1zm1 0h1v1h-1zm1 0h1v1h-1z"/><path fill="#e4a43c" d="M20 6h1v1h-1zm1 0h1v1h-1z"/><path fill="#7d4a1d" d="M22 6h1v1h-1z"/><path fill="#40002a" d="M0 7h1v1H0z"/><path fill="#c0784c" d="M1 7h1v1H1zm1 0h1v1H2z"/><path fill="#7d4a1d" d="M3 7h1v1H3z"/><path fill="#96645a" d="M4 7h1v1H4z"/><path fill="#7d4a1d" d="M5 7h1v1H5z"/><path fill="#96645a" d="M6 7h1v1H6zm1 0h1v1H7z"/><path fill="#7d4a1d" d="M8 7h1v1H8zm1 0h1v1H9zm1 0h1v1h-1z"/><path fill="#40002a" d="M11 7h1v1h-1z"/><path fill="#7d4a1d" d="M12 7h1v1h-1zm1 0h1v1h-1z"/><path fill="#40002a" d="M14 7h1v1h-1z"/><path fill="#7d4a1d" d="M15 7h1v1h-1zm1 0h1v1h-1z"/><path fill="#40002a" d="M17 7h1v1h-1zm1 0h1v1h-1zm1 0h1v1h-1z"/><path fill="#c0784c" d="M20 7h1v1h-1zm1 0h1v1h-1z"/><path fill="#7d4a1d" d="M22 7h1v1h-1z"/><path fill="#40002a" d="M0 8h1v1H0z"/><path fill="#96645a" d="M1 8h1v1H1z"/><path fill="#7d4a1d" d="M2 8h1v1H2zm1 0h1v1H3z"/><path fill="#96645a" d="M4 8h1v1H4z"/><path fill="#7d4a1d" d="M5 8h1v1H5z"/><path fill="#96645a" d="M6 8h1v1H6zm1 0h1v1H7z"/><path fill="#7d4a1d" d="M8 8h1v1H8z"/><path fill="#794c53" d="M9 8h1v1H9zm1 0h1v1h-1zm1 0h1v1h-1zm1 0h1v1h-1zm1 0h1v1h-1z"/><path fill="#40002a" d="M14 8h1v1h-1zm1 0h1v1h-1zm1 0h1v1h-1zm1 0h1v1h-1zm1 0h1v1h-1zm1 0h1v1h-1z"/><path fill="#7d4a1d" d="M20 8h1v1h-1z"/><path fill="#96645a" d="M21 8h1v1h-1z"/><path fill="#7d4a1d" d="M22 8h1v1h-1z"/><path fill="#40002a" d="M0 9h1v1H0z"/><path fill="#e4a43c" d="M1 9h1v1H1zm1 0h1v1H2z"/><path fill="#40002a" d="M3 9h1v1H3z"/><path fill="#96645a" d="M4 9h1v1H4z"/><path fill="#7d4a1d" d="M5 9h1v1H5z"/><path fill="#af7a4f" d="M6 9h1v1H6zm1 0h1v1H7zm1 0h1v1H8zm1 0h1v1H9z"/><path fill="#794c53" d="M10 9h1v1h-1zm1 0h1v1h-1zm1 0h1v1h-1zm1 0h1v1h-1zm1 0h1v1h-1zm1 0h1v1h-1zm1 0h1v1h-1z"/><path fill="#40002a" d="M17 9h1v1h-1zm1 0h1v1h-1zm1 0h1v1h-1z"/><path fill="#e4a43c" d="M20 9h1v1h-1zm1 0h1v1h-1z"/><path fill="#7d4a1d" d="M22 9h1v1h-1z"/><path fill="#40002a" d="M0 10h1v1H0z"/><path fill="#c0784c" d="M1 10h1v1H1zm1 0h1v1H2z"/><path fill="#40002a" d="M3 10h1v1H3z"/><path fill="#af7a4f" d="M4 10h1v1H4zm1 0h1v1H5zm1 0h1v1H6zm1 0h1v1H7zm1 0h1v1H8zm1 0h1v1H9zm1 0h1v1h-1zm1 0h1v1h-1zm1 0h1v1h-1z"/><path fill="#794c53" d="M13 10h1v1h-1zm1 0h1v1h-1zm1 0h1v1h-1zm1 0h1v1h-1zm1 0h1v1h-1zm1 0h1v1h-1z"/><path fill="#40002a" d="M19 10h1v1h-1z"/><path fill="#c0784c" d="M20 10h1v1h-1zm1 0h1v1h-1z"/><path fill="#7d4a1d" d="M22 10h1v1h-1z"/><path fill="#40002a" d="M0 11h1v1H0z"/><path fill="#96645a" d="M1 11h1v1H1z"/><path fill="#7d4a1d" d="M2 11h1v1H2zm1 0h1v1H3z"/><path fill="#40002a" d="M4 11h1v1H4z"/><path fill="#af7a4f" d="M5 11h1v1H5zm1 0h1v1H6zm1 0h1v1H7zm1 0h1v1H8zm1 0h1v1H9zm1 0h1v1h-1zm1 0h1v1h-1zm1 0h1v1h-1zm1 0h1v1h-1z"/><path fill="#794c53" d="M14 11h1v1h-1zm1 0h1v1h-1zm1 0h1v1h-1zm1 0h1v1h-1z"/><path fill="#40002a" d="M18 11h1v1h-1z"/><path fill="#7d4a1d" d="M19 11h1v1h-1zm1 0h1v1h-1z"/><path fill="#96645a" d="M21 11h1v1h-1z"/><path fill="#7d4a1d" d="M22 11h1v1h-1z"/><path fill="#40002a" d="M0 12h1v1H0z"/><path fill="#96645a" d="M1 12h1v1H1z"/><path fill="#7d4a1d" d="M2 12h1v1H2z"/><path fill="#e4a43c" d="M3 12h1v1H3zm1 0h1v1H4z"/><path fill="#7d4a1d" d="M5 12h1v1H5zm1 0h1v1H6zm1 0h1v1H7z"/><path fill="#af7a4f" d="M8 12h1v1H8zm1 0h1v1H9zm1 0h1v1h-1zm1 0h1v1h-1zm1 0h1v1h-1zm1 0h1v1h-1zm1 0h1v1h-1z"/><path fill="#40002a" d="M15 12h1v1h-1zm1 0h1v1h-1zm1 0h1v1h-1z"/><path fill="#e4a43c" d="M18 12h1v1h-1zm1 0h1v1h-1z"/><path fill="#7d4a1d" d="M20 12h1v1h-1z"/><path fill="#96645a" d="M21 12h1v1h-1z"/><path fill="#7d4a1d" d="M22 12h1v1h-1z"/><path fill="#40002a" d="M0 13h1v1H0z"/><path fill="#96645a" d="M1 13h1v1H1z"/><path fill="#7d4a1d" d="M2 13h1v1H2z"/><path fill="#c0784c" d="M3 13h1v1H3zm1 0h1v1H4z"/><path fill="#7d4a1d" d="M5 13h1v1H5z"/><path fill="#e4a43c" d="M6 13h1v1H6zm1 0h1v1H7z"/><path fill="#7d4a1d" d="M8 13h1v1H8z"/><path fill="#af7a4f" d="M9 13h1v1H9zm1 0h1v1h-1zm1 0h1v1h-1zm1 0h1v1h-1zm1 0h1v1h-1z"/><path fill="#40002a" d="M14 13h1v1h-1z"/><path fill="#e4a43c" d="M15 13h1v1h-1zm1 0h1v1h-1z"/><path fill="#7d4a1d" d="M17 13h1v1h-1z"/><path fill="#c0784c" d="M18 13h1v1h-1zm1 0h1v1h-1z"/><path fill="#7d4a1d" d="M20 13h1v1h-1z"/><path fill="#96645a" d="M21 13h1v1h-1z"/><path fill="#7d4a1d" d="M22 13h1v1h-1z"/><path fill="#40002a" d="M0 14h1v1H0z"/><path fill="#96645a" d="M1 14h1v1H1z"/><path fill="#40002a" d="M2 14h1v1H2z"/><path fill="#96645a" d="M3 14h1v1H3zm1 0h1v1H4z"/><path fill="#7d4a1d" d="M5 14h1v1H5z"/><path fill="#c0784c" d="M6 14h1v1H6zm1 0h1v1H7z"/><path fill="#7d4a1d" d="M8 14h1v1H8z"/><path fill="#af7a4f" d="M9 14h1v1H9zm1 0h1v1h-1zm1 0h1v1h-1zm1 0h1v1h-1zm1 0h1v1h-1z"/><path fill="#40002a" d="M14 14h1v1h-1z"/><path fill="#c0784c" d="M15 14h1v1h-1zm1 0h1v1h-1z"/><path fill="#7d4a1d" d="M17 14h1v1h-1z"/><path fill="#96645a" d="M18 14h1v1h-1zm1 0h1v1h-1z"/><path fill="#7d4a1d" d="M20 14h1v1h-1z"/><path fill="#96645a" d="M21 14h1v1h-1z"/><path fill="#7d4a1d" d="M22 14h1v1h-1z"/><path fill="#36aad1" d="M0 15h1v1H0z"/><path fill="#96645a" d="M1 15h1v1H1z"/><path fill="#40002a" d="M2 15h1v1H2z"/><path fill="#96645a" d="M3 15h1v1H3zm1 0h1v1H4z"/><path fill="#40002a" d="M5 15h1v1H5z"/><path fill="#96645a" d="M6 15h1v1H6zm1 0h1v1H7z"/><path fill="#7d4a1d" d="M8 15h1v1H8z"/><path fill="#af7a4f" d="M9 15h1v1H9zm1 0h1v1h-1zm1 0h1v1h-1zm1 0h1v1h-1zm1 0h1v1h-1z"/><path fill="#40002a" d="M14 15h1v1h-1z"/><path fill="#96645a" d="M15 15h1v1h-1zm1 0h1v1h-1z"/><path fill="#7d4a1d" d="M17 15h1v1h-1z"/><path fill="#96645a" d="M18 15h1v1h-1zm1 0h1v1h-1z"/><path fill="#7d4a1d" d="M20 15h1v1h-1z"/><path fill="#96645a" d="M21 15h1v1h-1z"/><path fill="#36aad1" d="M22 15h1v1h-1zM0 16h1v1H0z"/><path fill="#7d4a1d" d="M1 16h1v1H1z"/><path fill="#40002a" d="M2 16h1v1H2z"/><path fill="#96645a" d="M3 16h1v1H3zm1 0h1v1H4z"/><path fill="#40002a" d="M5 16h1v1H5z"/><path fill="#96645a" d="M6 16h1v1H6zm1 0h1v1H7z"/><path fill="#40002a" d="M8 16h1v1H8z"/><path fill="#af7a4f" d="M9 16h1v1H9zm1 0h1v1h-1zm1 0h1v1h-1zm1 0h1v1h-1zm1 0h1v1h-1z"/><path fill="#40002a" d="M14 16h1v1h-1z"/><path fill="#96645a" d="M15 16h1v1h-1zm1 0h1v1h-1z"/><path fill="#7d4a1d" d="M17 16h1v1h-1z"/><path fill="#96645a" d="M18 16h1v1h-1zm1 0h1v1h-1z"/><path fill="#7d4a1d" d="M20 16h1v1h-1zm1 0h1v1h-1z"/><path fill="#36aad1" d="M22 16h1v1h-1zM1 17h1v1H1z"/><path fill="#40002a" d="M2 17h1v1H2z"/><path fill="#96645a" d="M3 17h1v1H3zm1 0h1v1H4z"/><path fill="#40002a" d="M5 17h1v1H5z"/><path fill="#96645a" d="M6 17h1v1H6zm1 0h1v1H7z"/><path fill="#40002a" d="M8 17h1v1H8z"/><path fill="#af7a4f" d="M9 17h1v1H9zm1 0h1v1h-1zm1 0h1v1h-1zm1 0h1v1h-1zm1 0h1v1h-1z"/><path fill="#40002a" d="M14 17h1v1h-1z"/><path fill="#96645a" d="M15 17h1v1h-1zm1 0h1v1h-1z"/><path fill="#7d4a1d" d="M17 17h1v1h-1z"/><path fill="#96645a" d="M18 17h1v1h-1zm1 0h1v1h-1z"/><path fill="#7d4a1d" d="M20 17h1v1h-1z"/><path fill="#36aad1" d="M21 17h1v1h-1zM2 18h1v1H2z"/><path fill="#96645a" d="M3 18h1v1H3zm1 0h1v1H4z"/><path fill="#40002a" d="M5 18h1v1H5z"/><path fill="#96645a" d="M6 18h1v1H6zm1 0h1v1H7z"/><path fill="#40002a" d="M8 18h1v1H8z"/><path fill="#af7a4f" d="M9 18h1v1H9zm1 0h1v1h-1zm1 0h1v1h-1zm1 0h1v1h-1zm1 0h1v1h-1z"/><path fill="#40002a" d="M14 18h1v1h-1z"/><path fill="#96645a" d="M15 18h1v1h-1zm1 0h1v1h-1z"/><path fill="#7d4a1d" d="M17 18h1v1h-1z"/><path fill="#96645a" d="M18 18h1v1h-1zm1 0h1v1h-1z"/><path fill="#7d4a1d" d="M20 18h1v1h-1z"/><path fill="#6f7b90" d="M21 18h1v1h-1zm1 0h1v1h-1z"/><path fill="#36aad1" d="M4 19h1v1H4z"/><path fill="#40002a" d="M5 19h1v1H5z"/><path fill="#96645a" d="M6 19h1v1H6zm1 0h1v1H7z"/><path fill="#40002a" d="M8 19h1v1H8z"/><path fill="#af7a4f" d="M9 19h1v1H9zm1 0h1v1h-1zm1 0h1v1h-1zm1 0h1v1h-1zm1 0h1v1h-1z"/><path fill="#40002a" d="M14 19h1v1h-1z"/><path fill="#96645a" d="M15 19h1v1h-1zm1 0h1v1h-1z"/><path fill="#7d4a1d" d="M17 19h1v1h-1z"/><path fill="#36aad1" d="M18 19h1v1h-1zm1 0h1v1h-1z"/><path fill="#6f7b90" d="M20 19h1v1h-1z"/><path fill="#dadee5" d="M21 19h1v1h-1z"/><path fill="#414854" d="M22 19h1v1h-1z"/><path fill="#93d4e0" d="M23 19h1v1h-1z"/><path fill="#6f7b90" d="M2 20h1v1H2z"/><path fill="#9da9be" d="M3 20h1v1H3z"/><path fill="#414854" d="M4 20h1v1H4z"/><path fill="#93d4e0" d="M5 20h1v1H5z"/><path fill="#36aad1" d="M6 20h1v1H6zm1 0h1v1H7zm1 0h1v1H8z"/><path fill="#9c6b60" d="M9 20h1v1H9z"/><path fill="#af7a4f" d="M10 20h1v1h-1zm1 0h1v1h-1zm1 0h1v1h-1z"/><path fill="#9c6b60" d="M13 20h1v1h-1z"/><path fill="#36aad1" d="M14 20h1v1h-1zm1 0h1v1h-1zm1 0h1v1h-1z"/><path fill="#93d4e0" d="M17 20h1v1h-1zm2 0h1v1h-1zm1 0h1v1h-1z"/><path fill="#36aad1" d="M21 20h1v1h-1zm1 0h1v1h-1z"/><path fill="#93d4e0" d="M23 20h1v1h-1z"/><path fill="#6f7b90" d="M1 21h1v1H1z"/><path fill="#dadee5" d="M2 21h1v1H2zm1 0h1v1H3z"/><path fill="#9da9be" d="M4 21h1v1H4z"/><path fill="#414854" d="M5 21h1v1H5z"/><path fill="#93d4e0" d="M6 21h1v1H6zm1 0h1v1H7z"/><path fill="#36aad1" d="M8 21h1v1H8zm1 0h1v1H9zm1 0h1v1h-1z"/><path fill="#9c6b60" d="M11 21h1v1h-1zm1 0h1v1h-1z"/><path fill="#36aad1" d="M13 21h1v1h-1zm1 0h1v1h-1z"/><path fill="#93d4e0" d="M15 21h1v1h-1z"/><path fill="#37aee4" d="M1 22h1v1H1z"/><path fill="#dadee5" d="M2 22h1v1H2z"/><path fill="#9da9be" d="M3 22h1v1H3zm1 0h1v1H4z"/><path fill="#414854" d="M5 22h1v1H5z"/><path fill="#93d4e0" d="M6 22h1v1H6zm2 0h1v1H8zm1 0h1v1H9zm1 0h1v1h-1zm1 0h1v1h-1zm1 0h1v1h-1zm1 0h1v1h-1zM2 23h1v1H2z"/><path fill="#36aad1" d="M3 23h1v1H3zm1 0h1v1H4z"/><path fill="#93d4e0" d="M5 23h1v1H5zm1 0h1v1H6z"/></svg>