<svg xmlns="http://www.w3.org/2000/svg" width="24" height="24" shape-rendering="crispEdges"><path fill="#f4f4e6" d="M0 0h1v1H0zm1 0h1v1H1zm1 0h1v1H2zm1 0h1v1H3zm1 0h1v1H4zm1 0h1v1H5zm1 0h1v1H6zm1 0h1v1H7zm1 0h1v1H8zm1 0h1v1H9z"/><path fill="#001630" d="M10 0h1v1h-1zm1 0h1v1h-1zm1 0h1v1h-1z"/><path fill="#f4f4e6" d="M13 0h1v1h-1zm1 0h1v1h-1zm1 0h1v1h-1zm1 0h1v1h-1zm1 0h1v1h-1zm1 0h1v1h-1zm1 0h1v1h-1zm1 0h1v1h-1zm1 0h1v1h-1zm1 0h1v1h-1zm1 0h1v1h-1zM0 1h1v1H0zm1 0h1v1H1zm1 0h1v1H2zm1 0h1v1H3zm1 0h1v1H4zm1 0h1v1H5zm1 0h1v1H6zm1 0h1v1H7zm1 0h1v1H8z"/><path fill="#001630" d="M9 1h1v1H9z"/><path fill="#004172" d="M10 1h1v1h-1z"/><path fill="#007696" d="M11 1h1v1h-1z"/><path fill="#004172" d="M12 1h1v1h-1z"/><path fill="#001630" d="M13 1h1v1h-1z"/><path fill="#f4f4e6" d="M14 1h1v1h-1zm1 0h1v1h-1zm1 0h1v1h-1zm1 0h1v1h-1zm1 0h1v1h-1zm1 0h1v1h-1zm1 0h1v1h-1zm1 0h1v1h-1zm1 0h1v1h-1zm1 0h1v1h-1zM0 2h1v1H0zm1 0h1v1H1zm1 0h1v1H2zm1 0h1v1H3zm1 0h1v1H4zm1 0h1v1H5zm1 0h1v1H6zm1 0h1v1H7z"/><path fill="#001630" d="M8 2h1v1H8z"/><path fill="#002b4b" d="M9 2h1v1H9z"/><path fill="#004172" d="M10 2h1v1h-1z"/><path fill="#007696" d="M11 2h1v1h-1z"/><path fill="#004172" d="M12 2h1v1h-1z"/><path fill="#002b4b" d="M13 2h1v1h-1z"/><path fill="#001630" d="M14 2h1v1h-1z"/><path fill="#f4f4e6" d="M15 2h1v1h-1zm1 0h1v1h-1zm1 0h1v1h-1zm1 0h1v1h-1zm1 0h1v1h-1zm1 0h1v1h-1zm1 0h1v1h-1zm1 0h1v1h-1zm1 0h1v1h-1zM0 3h1v1H0zm1 0h1v1H1zm1 0h1v1H2zm1 0h1v1H3zm1 0h1v1H4zm1 0h1v1H5zm1 0h1v1H6z"/><path fill="#001630" d="M7 3h1v1H7z"/><path fill="#002b4b" d="M8 3h1v1H8zm1 0h1v1H9z"/><path fill="#004172" d="M10 3h1v1h-1z"/><path fill="#007696" d="M11 3h1v1h-1z"/><path fill="#004172" d="M12 3h1v1h-1z"/><path fill="#001630" d="M13 3h1v1h-1zm1 0h1v1h-1z"/><path fill="#30363f" d="M15 3h1v1h-1zm1 0h1v1h-1z"/><path fill="#f4f4e6" d="M17 3h1v1h-1zm1 0h1v1h-1zm1 0h1v1h-1zm1 0h1v1h-1zm1 0h1v1h-1zm1 0h1v1h-1zm1 0h1v1h-1zM0 4h1v1H0zm1 0h1v1H1zm1 0h1v1H2zm1 0h1v1H3zm1 0h1v1H4zm1 0h1v1H5z"/><path fill="#001630" d="M6 4h1v1H6z"/><path fill="#002b4b" d="M7 4h1v1H7zm1 0h1v1H8zm1 0h1v1H9z"/><path fill="#004172" d="M10 4h1v1h-1z"/><path fill="#007696" d="M11 4h1v1h-1z"/><path fill="#004172" d="M12 4h1v1h-1z"/><path fill="#8492ab" d="M13 4h1v1h-1zm1 0h1v1h-1zm1 0h1v1h-1zm1 0h1v1h-1z"/><path fill="#30363f" d="M17 4h1v1h-1z"/><path fill="#f4f4e6" d="M18 4h1v1h-1zm1 0h1v1h-1zm1 0h1v1h-1zm1 0h1v1h-1zm1 0h1v1h-1zm1 0h1v1h-1zM0 5h1v1H0zm1 0h1v1H1zm1 0h1v1H2zm1 0h1v1H3zm1 0h1v1H4z"/><path fill="#001630" d="M5 5h1v1H5z"/><path fill="#002b4b" d="M6 5h1v1H6zm1 0h1v1H7zm1 0h1v1H8zm1 0h1v1H9z"/><path fill="#004172" d="M10 5h1v1h-1z"/><path fill="#007696" d="M11 5h1v1h-1z"/><path fill="#004172" d="M12 5h1v1h-1z"/><path fill="#9da9be" d="M13 5h1v1h-1z"/><path fill="#5a6475" d="M14 5h1v1h-1zm1 0h1v1h-1z"/><path fill="#9da9be" d="M16 5h1v1h-1z"/><path fill="#30363f" d="M17 5h1v1h-1z"/><path fill="#f4f4e6" d="M18 5h1v1h-1zm1 0h1v1h-1zm1 0h1v1h-1zm1 0h1v1h-1zm1 0h1v1h-1zm1 0h1v1h-1zM0 6h1v1H0zm1 0h1v1H1zm1 0h1v1H2zm1 0h1v1H3z"/><path fill="#001630" d="M4 6h1v1H4z"/><path fill="#002b4b" d="M5 6h1v1H5zm1 0h1v1H6zm1 0h1v1H7zm1 0h1v1H8zm1 0h1v1H9z"/><path fill="#004172" d="M10 6h1v1h-1z"/><path fill="#007696" d="M11 6h1v1h-1z"/><path fill="#004172" d="M12 6h1v1h-1z"/><path fill="#9da9be" d="M13 6h1v1h-1z"/><path fill="#21252b" d="M14 6h1v1h-1zm1 0h1v1h-1z"/><path fill="#9da9be" d="M16 6h1v1h-1z"/><path fill="#002b4b" d="M17 6h1v1h-1z"/><path fill="#001630" d="M18 6h1v1h-1z"/><path fill="#f4f4e6" d="M19 6h1v1h-1zm1 0h1v1h-1zm1 0h1v1h-1zm1 0h1v1h-1zm1 0h1v1h-1zM0 7h1v1H0zm1 0h1v1H1zm1 0h1v1H2z"/><path fill="#001630" d="M3 7h1v1H3z"/><path fill="#004172" d="M4 7h1v1H4z"/><path fill="#002b4b" d="M5 7h1v1H5zm1 0h1v1H6zm1 0h1v1H7zm1 0h1v1H8zm1 0h1v1H9z"/><path fill="#004172" d="M10 7h1v1h-1z"/><path fill="#007696" d="M11 7h1v1h-1z"/><path fill="#004172" d="M12 7h1v1h-1z"/><path fill="#9da9be" d="M13 7h1v1h-1z"/><path fill="#b6c0d1" d="M14 7h1v1h-1zm1 0h1v1h-1z"/><path fill="#9da9be" d="M16 7h1v1h-1z"/><path fill="#002b4b" d="M17 7h1v1h-1z"/><path fill="#004172" d="M18 7h1v1h-1z"/><path fill="#001630" d="M19 7h1v1h-1z"/><path fill="#f4f4e6" d="M20 7h1v1h-1zm1 0h1v1h-1zm1 0h1v1h-1zm1 0h1v1h-1zM0 8h1v1H0zm1 0h1v1H1zm1 0h1v1H2z"/><path fill="#001630" d="M3 8h1v1H3z"/><path fill="#004172" d="M4 8h1v1H4z"/><path fill="#002b4b" d="M5 8h1v1H5zm1 0h1v1H6zm1 0h1v1H7zm1 0h1v1H8zm1 0h1v1H9z"/><path fill="#004172" d="M10 8h1v1h-1z"/><path fill="#007696" d="M11 8h1v1h-1z"/><path fill="#004172" d="M12 8h1v1h-1z"/><path fill="#414854" d="M13 8h1v1h-1z"/><path fill="#8492ab" d="M14 8h1v1h-1zm1 0h1v1h-1zm1 0h1v1h-1z"/><path fill="#002b4b" d="M17 8h1v1h-1z"/><path fill="#004172" d="M18 8h1v1h-1z"/><path fill="#001630" d="M19 8h1v1h-1z"/><path fill="#f4f4e6" d="M20 8h1v1h-1zm1 0h1v1h-1zm1 0h1v1h-1zm1 0h1v1h-1zM0 9h1v1H0zm1 0h1v1H1zm1 0h1v1H2z"/><path fill="#001630" d="M3 9h1v1H3z"/><path fill="#004172" d="M4 9h1v1H4z"/><path fill="#002b4b" d="M5 9h1v1H5zm1 0h1v1H6zm1 0h1v1H7zm1 0h1v1H8zm1 0h1v1H9z"/><path fill="#004172" d="M10 9h1v1h-1z"/><path fill="#007696" d="M11 9h1v1h-1z"/><path fill="#004172" d="M12 9h1v1h-1z"/><path fill="#002b4b" d="M13 9h1v1h-1z"/><path fill="#414854" d="M14 9h1v1h-1z"/><path fill="#8492ab" d="M15 9h1v1h-1zm1 0h1v1h-1z"/><path fill="#002b4b" d="M17 9h1v1h-1z"/><path fill="#004172" d="M18 9h1v1h-1z"/><path fill="#001630" d="M19 9h1v1h-1z"/><path fill="#f4f4e6" d="M20 9h1v1h-1zm1 0h1v1h-1zm1 0h1v1h-1zm1 0h1v1h-1zM0 10h1v1H0zm1 0h1v1H1zm1 0h1v1H2z"/><path fill="#001630" d="M3 10h1v1H3z"/><path fill="#004172" d="M4 10h1v1H4z"/><path fill="#002b4b" d="M5 10h1v1H5zm1 0h1v1H6zm1 0h1v1H7zm1 0h1v1H8zm1 0h1v1H9z"/><path fill="#004172" d="M10 10h1v1h-1z"/><path fill="#007696" d="M11 10h1v1h-1z"/><path fill="#004172" d="M12 10h1v1h-1z"/><path fill="#002b4b" d="M13 10h1v1h-1zm1 0h1v1h-1z"/><path fill="#414854" d="M15 10h1v1h-1z"/><path fill="#5a6475" d="M16 10h1v1h-1z"/><path fill="#002b4b" d="M17 10h1v1h-1z"/><path fill="#004172" d="M18 10h1v1h-1z"/><path fill="#001630" d="M19 10h1v1h-1z"/><path fill="#f4f4e6" d="M20 10h1v1h-1zm1 0h1v1h-1zm1 0h1v1h-1zm1 0h1v1h-1zM0 11h1v1H0zm1 0h1v1H1z"/><path fill="#93d4e0" d="M2 11h1v1H2z"/><path fill="#001630" d="M3 11h1v1H3z"/><path fill="#004172" d="M4 11h1v1H4z"/><path fill="#002b4b" d="M5 11h1v1H5zm1 0h1v1H6zm1 0h1v1H7zm1 0h1v1H8zm1 0h1v1H9z"/><path fill="#004172" d="M10 11h1v1h-1z"/><path fill="#007696" d="M11 11h1v1h-1z"/><path fill="#004172" d="M12 11h1v1h-1z"/><path fill="#002b4b" d="M13 11h1v1h-1zm1 0h1v1h-1zm1 0h1v1h-1zm1 0h1v1h-1zm1 0h1v1h-1z"/><path fill="#004172" d="M18 11h1v1h-1z"/><path fill="#001630" d="M19 11h1v1h-1z"/><path fill="#93d4e0" d="M20 11h1v1h-1z"/><path fill="#f4f4e6" d="M21 11h1v1h-1zm1 0h1v1h-1zm1 0h1v1h-1zM0 12h1v1H0z"/><path fill="#93d4e0" d="M1 12h1v1H1zm1 0h1v1H2z"/><path fill="#001630" d="M3 12h1v1H3z"/><path fill="#004172" d="M4 12h1v1H4z"/><path fill="#002b4b" d="M5 12h1v1H5zm1 0h1v1H6zm1 0h1v1H7zm1 0h1v1H8z"/><path fill="#004172" d="M9 12h1v1H9z"/><path fill="#007696" d="M10 12h1v1h-1zm1 0h1v1h-1zm1 0h1v1h-1z"/><path fill="#004172" d="M13 12h1v1h-1z"/><path fill="#002b4b" d="M14 12h1v1h-1zm1 0h1v1h-1zm1 0h1v1h-1zm1 0h1v1h-1z"/><path fill="#004172" d="M18 12h1v1h-1z"/><path fill="#001630" d="M19 12h1v1h-1z"/><path fill="#93d4e0" d="M20 12h1v1h-1zm1 0h1v1h-1z"/><path fill="#f4f4e6" d="M22 12h1v1h-1zm1 0h1v1h-1zM0 13h1v1H0z"/><path fill="#93d4e0" d="M1 13h1v1H1zm1 0h1v1H2z"/><path fill="#001630" d="M3 13h1v1H3z"/><path fill="#004172" d="M4 13h1v1H4z"/><path fill="#002b4b" d="M5 13h1v1H5zm1 0h1v1H6zm1 0h1v1H7z"/><path fill="#004172" d="M8 13h1v1H8z"/><path fill="#007696" d="M9 13h1v1H9z"/><path fill="#001630" d="M10 13h1v1h-1zm1 0h1v1h-1zm1 0h1v1h-1z"/><path fill="#007696" d="M13 13h1v1h-1z"/><path fill="#004172" d="M14 13h1v1h-1z"/><path fill="#002b4b" d="M15 13h1v1h-1zm1 0h1v1h-1zm1 0h1v1h-1z"/><path fill="#004172" d="M18 13h1v1h-1z"/><path fill="#001630" d="M19 13h1v1h-1z"/><path fill="#93d4e0" d="M20 13h1v1h-1zm1 0h1v1h-1z"/><path fill="#f4f4e6" d="M22 13h1v1h-1zm1 0h1v1h-1zM0 14h1v1H0z"/><path fill="#93d4e0" d="M1 14h1v1H1zm1 0h1v1H2z"/><path fill="#001630" d="M3 14h1v1H3z"/><path fill="#004172" d="M4 14h1v1H4z"/><path fill="#002b4b" d="M5 14h1v1H5zm1 0h1v1H6z"/><path fill="#004172" d="M7 14h1v1H7z"/><path fill="#007696" d="M8 14h1v1H8z"/><path fill="#001630" d="M9 14h1v1H9z"/><path fill="#414854" d="M10 14h1v1h-1zm1 0h1v1h-1zm1 0h1v1h-1z"/><path fill="#001630" d="M13 14h1v1h-1z"/><path fill="#007696" d="M14 14h1v1h-1z"/><path fill="#004172" d="M15 14h1v1h-1z"/><path fill="#002b4b" d="M16 14h1v1h-1zm1 0h1v1h-1z"/><path fill="#004172" d="M18 14h1v1h-1z"/><path fill="#001630" d="M19 14h1v1h-1z"/><path fill="#93d4e0" d="M20 14h1v1h-1zm1 0h1v1h-1z"/><path fill="#f4f4e6" d="M22 14h1v1h-1zm1 0h1v1h-1zM0 15h1v1H0z"/><path fill="#93d4e0" d="M1 15h1v1H1zm1 0h1v1H2z"/><path fill="#001630" d="M3 15h1v1H3z"/><path fill="#004172" d="M4 15h1v1H4z"/><path fill="#002b4b" d="M5 15h1v1H5z"/><path fill="#004172" d="M6 15h1v1H6z"/><path fill="#007696" d="M7 15h1v1H7z"/><path fill="#001630" d="M8 15h1v1H8z"/><path fill="#5a6475" d="M9 15h1v1H9zm1 0h1v1h-1zm1 0h1v1h-1zm1 0h1v1h-1zm1 0h1v1h-1z"/><path fill="#001630" d="M14 15h1v1h-1z"/><path fill="#007696" d="M15 15h1v1h-1z"/><path fill="#004172" d="M16 15h1v1h-1z"/><path fill="#002b4b" d="M17 15h1v1h-1z"/><path fill="#004172" d="M18 15h1v1h-1z"/><path fill="#001630" d="M19 15h1v1h-1z"/><path fill="#93d4e0" d="M20 15h1v1h-1zm1 0h1v1h-1z"/><path fill="#f4f4e6" d="M22 15h1v1h-1zm1 0h1v1h-1zM0 16h1v1H0z"/><path fill="#93d4e0" d="M1 16h1v1H1zm1 0h1v1H2z"/><path fill="#001630" d="M3 16h1v1H3z"/><path fill="#004172" d="M4 16h1v1H4zm1 0h1v1H5z"/><path fill="#007696" d="M6 16h1v1H6z"/><path fill="#001630" d="M7 16h1v1H7z"/><path fill="#5a6475" d="M8 16h1v1H8zm1 0h1v1H9zm1 0h1v1h-1zm1 0h1v1h-1zm1 0h1v1h-1zm1 0h1v1h-1zm1 0h1v1h-1z"/><path fill="#001630" d="M15 16h1v1h-1z"/><path fill="#007696" d="M16 16h1v1h-1z"/><path fill="#004172" d="M17 16h1v1h-1zm1 0h1v1h-1z"/><path fill="#001630" d="M19 16h1v1h-1z"/><path fill="#93d4e0" d="M20 16h1v1h-1zm1 0h1v1h-1z"/><path fill="#f4f4e6" d="M22 16h1v1h-1zm1 0h1v1h-1zM0 17h1v1H0z"/><path fill="#93d4e0" d="M1 17h1v1H1zm1 0h1v1H2z"/><path fill="#001630" d="M3 17h1v1H3z"/><path fill="#004172" d="M4 17h1v1H4z"/><path fill="#007696" d="M5 17h1v1H5z"/><path fill="#001630" d="M6 17h1v1H6z"/><path fill="#5a6475" d="M7 17h1v1H7z"/><path fill="#8492ab" d="M8 17h1v1H8zm1 0h1v1H9zm1 0h1v1h-1zm1 0h1v1h-1zm1 0h1v1h-1zm1 0h1v1h-1zm1 0h1v1h-1z"/><path fill="#5a6475" d="M15 17h1v1h-1z"/><path fill="#001630" d="M16 17h1v1h-1z"/><path fill="#007696" d="M17 17h1v1h-1z"/><path fill="#004172" d="M18 17h1v1h-1z"/><path fill="#001630" d="M19 17h1v1h-1z"/><path fill="#93d4e0" d="M20 17h1v1h-1zm1 0h1v1h-1z"/><path fill="#f4f4e6" d="M22 17h1v1h-1zm1 0h1v1h-1zM0 18h1v1H0z"/><path fill="#93d4e0" d="M1 18h1v1H1zm1 0h1v1H2z"/><path fill="#001630" d="M3 18h1v1H3z"/><path fill="#007696" d="M4 18h1v1H4z"/><path fill="#001630" d="M5 18h1v1H5z"/><path fill="#5a6475" d="M6 18h1v1H6z"/><path fill="#21252b" d="M7 18h1v1H7zm1 0h1v1H8z"/><path fill="#8492ab" d="M9 18h1v1H9z"/><path fill="#5a6475" d="M10 18h1v1h-1zm1 0h1v1h-1zm1 0h1v1h-1z"/><path fill="#8492ab" d="M13 18h1v1h-1z"/><path fill="#21252b" d="M14 18h1v1h-1zm1 0h1v1h-1z"/><path fill="#5a6475" d="M16 18h1v1h-1z"/><path fill="#001630" d="M17 18h1v1h-1z"/><path fill="#007696" d="M18 18h1v1h-1z"/><path fill="#001630" d="M19 18h1v1h-1z"/><path fill="#93d4e0" d="M20 18h1v1h-1zm1 0h1v1h-1z"/><path fill="#f4f4e6" d="M22 18h1v1h-1zm1 0h1v1h-1zM0 19h1v1H0z"/><path fill="#93d4e0" d="M1 19h1v1H1zm1 0h1v1H2z"/><path fill="#21252b" d="M3 19h1v1H3zm1 0h1v1H4z"/><path fill="#5a6475" d="M5 19h1v1H5z"/><path fill="#8492ab" d="M6 19h1v1H6z"/><path fill="#414854" d="M7 19h1v1H7zm1 0h1v1H8z"/><path fill="#8492ab" d="M9 19h1v1H9z"/><path fill="#21252b" d="M10 19h1v1h-1zm1 0h1v1h-1zm1 0h1v1h-1z"/><path fill="#8492ab" d="M13 19h1v1h-1z"/><path fill="#414854" d="M14 19h1v1h-1zm1 0h1v1h-1z"/><path fill="#8492ab" d="M16 19h1v1h-1z"/><path fill="#5a6475" d="M17 19h1v1h-1z"/><path fill="#21252b" d="M18 19h1v1h-1zm1 0h1v1h-1z"/><path fill="#93d4e0" d="M20 19h1v1h-1zm1 0h1v1h-1z"/><path fill="#f4f4e6" d="M22 19h1v1h-1zm1 0h1v1h-1zM0 20h1v1H0z"/><path fill="#93d4e0" d="M1 20h1v1H1zm1 0h1v1H2z"/><path fill="#4bb8eb" d="M3 20h1v1H3z"/><path fill="#30363f" d="M4 20h1v1H4z"/><path fill="#5a6475" d="M5 20h1v1H5z"/><path fill="#8492ab" d="M6 20h1v1H6z"/><path fill="#9da9be" d="M7 20h1v1H7zm1 0h1v1H8z"/><path fill="#8492ab" d="M9 20h1v1H9z"/><path fill="#21252b" d="M10 20h1v1h-1zm1 0h1v1h-1zm1 0h1v1h-1z"/><path fill="#8492ab" d="M13 20h1v1h-1z"/><path fill="#9da9be" d="M14 20h1v1h-1zm1 0h1v1h-1z"/><path fill="#8492ab" d="M16 20h1v1h-1z"/><path fill="#5a6475" d="M17 20h1v1h-1z"/><path fill="#414854" d="M18 20h1v1h-1z"/><path fill="#4bb8eb" d="M19 20h1v1h-1z"/><path fill="#93d4e0" d="M20 20h1v1h-1zm1 0h1v1h-1z"/><path fill="#f4f4e6" d="M22 20h1v1h-1zm1 0h1v1h-1zM0 21h1v1H0z"/><path fill="#93d4e0" d="M1 21h1v1H1zm1 0h1v1H2z"/><path fill="#4bb8eb" d="M3 21h1v1H3z"/><path fill="#414854" d="M4 21h1v1H4zm1 0h1v1H5z"/><path fill="#5a6475" d="M6 21h1v1H6zm1 0h1v1H7zm1 0h1v1H8zm1 0h1v1H9z"/><path fill="#21252b" d="M10 21h1v1h-1zm1 0h1v1h-1zm1 0h1v1h-1z"/><path fill="#5a6475" d="M13 21h1v1h-1zm1 0h1v1h-1zm1 0h1v1h-1zm1 0h1v1h-1z"/><path fill="#414854" d="M17 21h1v1h-1zm1 0h1v1h-1z"/><path fill="#4bb8eb" d="M19 21h1v1h-1z"/><path fill="#93d4e0" d="M20 21h1v1h-1zm1 0h1v1h-1z"/><path fill="#f4f4e6" d="M22 21h1v1h-1zm1 0h1v1h-1zM0 22h1v1H0z"/><path fill="#93d4e0" d="M1 22h1v1H1zm1 0h1v1H2z"/><path fill="#4bb8eb" d="M3 22h1v1H3zm1 0h1v1H4zm1 0h1v1H5zm1 0h1v1H6zm1 0h1v1H7zm1 0h1v1H8zm1 0h1v1H9zm1 0h1v1h-1zm1 0h1v1h-1zm1 0h1v1h-1zm1 0h1v1h-1zm1 0h1v1h-1zm1 0h1v1h-1zm1 0h1v1h-1zm1 0h1v1h-1zm1 0h1v1h-1zm1 0h1v1h-1z"/><path fill="#93d4e0" d="M20 22h1v1h-1zm1 0h1v1h-1z"/><path fill="#f4f4e6" d="M22 22h1v1h-1zm1 0h1v1h-1zM0 23h1v1H0z"/><path fill="#93d4e0" d="M1 23h1v1H1zm1 0h1v1H2z"/><path fill="#4bb8eb" d="M3 23h1v1H3zm1 0h1v1H4zm1 0h1v1H5zm1 0h1v1H6zm1 0h1v1H7zm1 0h1v1H8zm1 0h1v1H9zm1 0h1v1h-1zm1 0h1v1h-1zm1 0h1v1h-1zm1 0h1v1h-1zm1 0h1v1h-1zm1 0h1v1h-1zm1 0h1v1h-1zm1 0h1v1h-1zm1 0h1v1h-1zm1 0h1v1h-1z"/><path fill="#93d4e0" d="M20 23h1v1h-1zm1 0h1v1h-1z"/><path fill="#f4f4e6" d="M22 23h1v1h-1zm1 0h1v1h-1z"/></svg>