<svg xmlns="http://www.w3.org/2000/svg" width="24" height="24" shape-rendering="crispEdges"><path fill="#f6f6de" d="M0 0h1v1H0zm1 0h1v1H1zm1 0h1v1H2zm1 0h1v1H3zm1 0h1v1H4zm1 0h1v1H5zm1 0h1v1H6zm1 0h1v1H7zm1 0h1v1H8zm1 0h1v1H9z"/><path fill="#91d1d4" d="M10 0h1v1h-1z"/><path fill="#35a8c6" d="M11 0h1v1h-1zm1 0h1v1h-1z"/><path fill="#91d1d4" d="M13 0h1v1h-1z"/><path fill="#f6f6de" d="M14 0h1v1h-1zm1 0h1v1h-1zm1 0h1v1h-1zm1 0h1v1h-1zm1 0h1v1h-1zm1 0h1v1h-1zm1 0h1v1h-1zm1 0h1v1h-1zm1 0h1v1h-1zm1 0h1v1h-1zM0 1h1v1H0zm1 0h1v1H1zm1 0h1v1H2zm1 0h1v1H3zm1 0h1v1H4zm1 0h1v1H5zm1 0h1v1H6zm1 0h1v1H7zm1 0h1v1H8zm1 0h1v1H9z"/><path fill="#7789b8" d="M10 1h1v1h-1z"/><path fill="#f6f6de" d="M11 1h1v1h-1zm1 0h1v1h-1z"/><path fill="#7789b8" d="M13 1h1v1h-1z"/><path fill="#f6f6de" d="M14 1h1v1h-1zm1 0h1v1h-1zm1 0h1v1h-1zm1 0h1v1h-1zm1 0h1v1h-1z"/><path fill="#91d1d4" d="M19 1h1v1h-1zm1 0h1v1h-1zm1 0h1v1h-1z"/><path fill="#f6f6de" d="M22 1h1v1h-1zm1 0h1v1h-1zM0 2h1v1H0zm1 0h1v1H1zm1 0h1v1H2z"/><path fill="#91d1d4" d="M3 2h1v1H3z"/><path fill="#35a8c6" d="M4 2h1v1H4z"/><path fill="#91d1d4" d="M5 2h1v1H5z"/><path fill="#f6f6de" d="M6 2h1v1H6zm1 0h1v1H7zm1 0h1v1H8z"/><path fill="#7789b8" d="M9 2h1v1H9zm1 0h1v1h-1z"/><path fill="#f6f6de" d="M11 2h1v1h-1zm1 0h1v1h-1z"/><path fill="#7789b8" d="M13 2h1v1h-1zm1 0h1v1h-1z"/><path fill="#f6f6de" d="M15 2h1v1h-1zm1 0h1v1h-1zm1 0h1v1h-1z"/><path fill="#91d1d4" d="M18 2h1v1h-1z"/><path fill="#f6f6de" d="M19 2h1v1h-1zm1 0h1v1h-1z"/><path fill="#35a8c6" d="M21 2h1v1h-1z"/><path fill="#f6f6de" d="M22 2h1v1h-1zm1 0h1v1h-1zM0 3h1v1H0zm1 0h1v1H1z"/><path fill="#91d1d4" d="M2 3h1v1H2z"/><path fill="#35a8c6" d="M3 3h1v1H3z"/><path fill="#f6f6de" d="M4 3h1v1H4zm1 0h1v1H5z"/><path fill="#35a8c6" d="M6 3h1v1H6z"/><path fill="#405397" d="M7 3h1v1H7z"/><path fill="#7789b8" d="M8 3h1v1H8z"/><path fill="#c3e3d9" d="M9 3h1v1H9z"/><path fill="#91d1d4" d="M10 3h1v1h-1z"/><path fill="#f6f6de" d="M11 3h1v1h-1zm1 0h1v1h-1z"/><path fill="#91d1d4" d="M13 3h1v1h-1z"/><path fill="#c3e3d9" d="M14 3h1v1h-1z"/><path fill="#7789b8" d="M15 3h1v1h-1z"/><path fill="#405397" d="M16 3h1v1h-1z"/><path fill="#35a8c6" d="M17 3h1v1h-1z"/><path fill="#f6f6de" d="M18 3h1v1h-1zm1 0h1v1h-1z"/><path fill="#c3e3d9" d="M20 3h1v1h-1z"/><path fill="#7789b8" d="M21 3h1v1h-1z"/><path fill="#f6f6de" d="M22 3h1v1h-1zm1 0h1v1h-1zM0 4h1v1H0zm1 0h1v1H1z"/><path fill="#7789b8" d="M2 4h1v1H2z"/><path fill="#91d1d4" d="M3 4h1v1H3z"/><path fill="#c3e3d9" d="M4 4h1v1H4z"/><path fill="#f6f6de" d="M5 4h1v1H5z"/><path fill="#35a8c6" d="M6 4h1v1H6z"/><path fill="#405397" d="M7 4h1v1H7z"/><path fill="#c3e3d9" d="M8 4h1v1H8z"/><path fill="#f6f6de" d="M9 4h1v1H9z"/><path fill="#35a8c6" d="M10 4h1v1h-1z"/><path fill="#f6f6de" d="M11 4h1v1h-1zm1 0h1v1h-1z"/><path fill="#35a8c6" d="M13 4h1v1h-1z"/><path fill="#f6f6de" d="M14 4h1v1h-1z"/><path fill="#c3e3d9" d="M15 4h1v1h-1z"/><path fill="#405397" d="M16 4h1v1h-1z"/><path fill="#35a8c6" d="M17 4h1v1h-1z"/><path fill="#f6f6de" d="M18 4h1v1h-1z"/><path fill="#c3e3d9" d="M19 4h1v1h-1z"/><path fill="#91d1d4" d="M20 4h1v1h-1z"/><path fill="#7789b8" d="M21 4h1v1h-1z"/><path fill="#f6f6de" d="M22 4h1v1h-1zm1 0h1v1h-1zM0 5h1v1H0zm1 0h1v1H1z"/><path fill="#c3e3d9" d="M2 5h1v1H2z"/><path fill="#7789b8" d="M3 5h1v1H3z"/><path fill="#91d1d4" d="M4 5h1v1H4z"/><path fill="#c3e3d9" d="M5 5h1v1H5z"/><path fill="#35a8c6" d="M6 5h1v1H6z"/><path fill="#91d1d4" d="M7 5h1v1H7z"/><path fill="#f6f6de" d="M8 5h1v1H8zm1 0h1v1H9z"/><path fill="#35a8c6" d="M10 5h1v1h-1z"/><path fill="#f6f6de" d="M11 5h1v1h-1zm1 0h1v1h-1z"/><path fill="#35a8c6" d="M13 5h1v1h-1z"/><path fill="#f6f6de" d="M14 5h1v1h-1zm1 0h1v1h-1z"/><path fill="#91d1d4" d="M16 5h1v1h-1z"/><path fill="#35a8c6" d="M17 5h1v1h-1z"/><path fill="#c3e3d9" d="M18 5h1v1h-1z"/><path fill="#91d1d4" d="M19 5h1v1h-1z"/><path fill="#7789b8" d="M20 5h1v1h-1z"/><path fill="#c3e3d9" d="M21 5h1v1h-1z"/><path fill="#f6f6de" d="M22 5h1v1h-1zm1 0h1v1h-1zM0 6h1v1H0zm1 0h1v1H1z"/><path fill="#c3e3d9" d="M2 6h1v1H2z"/><path fill="#35a8c6" d="M3 6h1v1H3z"/><path fill="#405397" d="M4 6h1v1H4z"/><path fill="#91d1d4" d="M5 6h1v1H5z"/><path fill="#35a8c6" d="M6 6h1v1H6z"/><path fill="#91d1d4" d="M7 6h1v1H7z"/><path fill="#f6f6de" d="M8 6h1v1H8z"/><path fill="#c3e3d9" d="M9 6h1v1H9z"/><path fill="#35a8c6" d="M10 6h1v1h-1z"/><path fill="#91d1d4" d="M11 6h1v1h-1zm1 0h1v1h-1z"/><path fill="#35a8c6" d="M13 6h1v1h-1z"/><path fill="#c3e3d9" d="M14 6h1v1h-1z"/><path fill="#f6f6de" d="M15 6h1v1h-1z"/><path fill="#91d1d4" d="M16 6h1v1h-1z"/><path fill="#35a8c6" d="M17 6h1v1h-1z"/><path fill="#91d1d4" d="M18 6h1v1h-1z"/><path fill="#405397" d="M19 6h1v1h-1z"/><path fill="#35a8c6" d="M20 6h1v1h-1z"/><path fill="#c3e3d9" d="M21 6h1v1h-1z"/><path fill="#f6f6de" d="M22 6h1v1h-1zm1 0h1v1h-1zM0 7h1v1H0zm1 0h1v1H1z"/><path fill="#c3e3d9" d="M2 7h1v1H2z"/><path fill="#35a8c6" d="M3 7h1v1H3z"/><path fill="#91d1d4" d="M4 7h1v1H4z"/><path fill="#405397" d="M5 7h1v1H5z"/><path fill="#35a8c6" d="M6 7h1v1H6z"/><path fill="#f6f6de" d="M7 7h1v1H7z"/><path fill="#91d1d4" d="M8 7h1v1H8z"/><path fill="#35a8c6" d="M9 7h1v1H9z"/><path fill="#405397" d="M10 7h1v1h-1z"/><path fill="#91d1d4" d="M11 7h1v1h-1zm1 0h1v1h-1z"/><path fill="#405397" d="M13 7h1v1h-1z"/><path fill="#35a8c6" d="M14 7h1v1h-1z"/><path fill="#91d1d4" d="M15 7h1v1h-1z"/><path fill="#f6f6de" d="M16 7h1v1h-1z"/><path fill="#35a8c6" d="M17 7h1v1h-1z"/><path fill="#405397" d="M18 7h1v1h-1z"/><path fill="#91d1d4" d="M19 7h1v1h-1z"/><path fill="#35a8c6" d="M20 7h1v1h-1z"/><path fill="#c3e3d9" d="M21 7h1v1h-1z"/><path fill="#f6f6de" d="M22 7h1v1h-1zm1 0h1v1h-1zM0 8h1v1H0z"/><path fill="#35a8c6" d="M1 8h1v1H1zm1 0h1v1H2z"/><path fill="#405397" d="M3 8h1v1H3z"/><path fill="#91d1d4" d="M4 8h1v1H4z"/><path fill="#405397" d="M5 8h1v1H5zm1 0h1v1H6z"/><path fill="#35a8c6" d="M7 8h1v1H7z"/><path fill="#f6f6de" d="M8 8h1v1H8zm1 0h1v1H9z"/><path fill="#7789b8" d="M10 8h1v1h-1z"/><path fill="#91d1d4" d="M11 8h1v1h-1zm1 0h1v1h-1z"/><path fill="#7789b8" d="M13 8h1v1h-1z"/><path fill="#f6f6de" d="M14 8h1v1h-1zm1 0h1v1h-1z"/><path fill="#35a8c6" d="M16 8h1v1h-1z"/><path fill="#405397" d="M17 8h1v1h-1zm1 0h1v1h-1z"/><path fill="#91d1d4" d="M19 8h1v1h-1z"/><path fill="#405397" d="M20 8h1v1h-1z"/><path fill="#35a8c6" d="M21 8h1v1h-1zm1 0h1v1h-1z"/><path fill="#f6f6de" d="M23 8h1v1h-1zM0 9h1v1H0z"/><path fill="#35a8c6" d="M1 9h1v1H1z"/><path fill="#f6f6de" d="M2 9h1v1H2zm1 0h1v1H3z"/><path fill="#35a8c6" d="M4 9h1v1H4z"/><path fill="#7789b8" d="M5 9h1v1H5z"/><path fill="#405397" d="M6 9h1v1H6z"/><path fill="#91d1d4" d="M7 9h1v1H7z"/><path fill="#f6f6de" d="M8 9h1v1H8z"/><path fill="#91d1d4" d="M9 9h1v1H9z"/><path fill="#7789b8" d="M10 9h1v1h-1z"/><path fill="#91d1d4" d="M11 9h1v1h-1zm1 0h1v1h-1z"/><path fill="#7789b8" d="M13 9h1v1h-1z"/><path fill="#91d1d4" d="M14 9h1v1h-1z"/><path fill="#f6f6de" d="M15 9h1v1h-1z"/><path fill="#91d1d4" d="M16 9h1v1h-1z"/><path fill="#405397" d="M17 9h1v1h-1z"/><path fill="#7789b8" d="M18 9h1v1h-1z"/><path fill="#35a8c6" d="M19 9h1v1h-1z"/><path fill="#f6f6de" d="M20 9h1v1h-1zm1 0h1v1h-1z"/><path fill="#35a8c6" d="M22 9h1v1h-1z"/><path fill="#f6f6de" d="M23 9h1v1h-1zM0 10h1v1H0z"/><path fill="#35a8c6" d="M1 10h1v1H1z"/><path fill="#f6f6de" d="M2 10h1v1H2zm1 0h1v1H3z"/><path fill="#c3e3d9" d="M4 10h1v1H4z"/><path fill="#35a8c6" d="M5 10h1v1H5z"/><path fill="#7789b8" d="M6 10h1v1H6z"/><path fill="#91d1d4" d="M7 10h1v1H7zm1 0h1v1H8z"/><path fill="#f6f6de" d="M9 10h1v1H9z"/><path fill="#7789b8" d="M10 10h1v1h-1z"/><path fill="#35a8c6" d="M11 10h1v1h-1zm1 0h1v1h-1z"/><path fill="#7789b8" d="M13 10h1v1h-1z"/><path fill="#f6f6de" d="M14 10h1v1h-1z"/><path fill="#91d1d4" d="M15 10h1v1h-1zm1 0h1v1h-1z"/><path fill="#7789b8" d="M17 10h1v1h-1z"/><path fill="#35a8c6" d="M18 10h1v1h-1z"/><path fill="#c3e3d9" d="M19 10h1v1h-1z"/><path fill="#f6f6de" d="M20 10h1v1h-1zm1 0h1v1h-1z"/><path fill="#35a8c6" d="M22 10h1v1h-1z"/><path fill="#f6f6de" d="M23 10h1v1h-1zM0 11h1v1H0z"/><path fill="#405397" d="M1 11h1v1H1z"/><path fill="#f6f6de" d="M2 11h1v1H2zm1 0h1v1H3z"/><path fill="#c3e3d9" d="M4 11h1v1H4z"/><path fill="#35a8c6" d="M5 11h1v1H5zm1 0h1v1H6zm1 0h1v1H7z"/><path fill="#f6f6de" d="M8 11h1v1H8z"/><path fill="#c3e3d9" d="M9 11h1v1H9z"/><path fill="#405397" d="M10 11h1v1h-1zm1 0h1v1h-1zm1 0h1v1h-1zm1 0h1v1h-1z"/><path fill="#c3e3d9" d="M14 11h1v1h-1z"/><path fill="#f6f6de" d="M15 11h1v1h-1z"/><path fill="#35a8c6" d="M16 11h1v1h-1zm1 0h1v1h-1zm1 0h1v1h-1z"/><path fill="#c3e3d9" d="M19 11h1v1h-1z"/><path fill="#f6f6de" d="M20 11h1v1h-1zm1 0h1v1h-1z"/><path fill="#405397" d="M22 11h1v1h-1z"/><path fill="#f6f6de" d="M23 11h1v1h-1zM0 12h1v1H0z"/><path fill="#405397" d="M1 12h1v1H1z"/><path fill="#f6f6de" d="M2 12h1v1H2zm1 0h1v1H3z"/><path fill="#c3e3d9" d="M4 12h1v1H4z"/><path fill="#35a8c6" d="M5 12h1v1H5zm1 0h1v1H6z"/><path fill="#405397" d="M7 12h1v1H7z"/><path fill="#91d1d4" d="M8 12h1v1H8z"/><path fill="#f6f6de" d="M9 12h1v1H9zm1 0h1v1h-1zm1 0h1v1h-1zm1 0h1v1h-1zm1 0h1v1h-1zm1 0h1v1h-1z"/><path fill="#91d1d4" d="M15 12h1v1h-1z"/><path fill="#405397" d="M16 12h1v1h-1z"/><path fill="#35a8c6" d="M17 12h1v1h-1zm1 0h1v1h-1z"/><path fill="#c3e3d9" d="M19 12h1v1h-1z"/><path fill="#f6f6de" d="M20 12h1v1h-1zm1 0h1v1h-1z"/><path fill="#405397" d="M22 12h1v1h-1z"/><path fill="#f6f6de" d="M23 12h1v1h-1zM0 13h1v1H0zm1 0h1v1H1z"/><path fill="#405397" d="M2 13h1v1H2z"/><path fill="#f6f6de" d="M3 13h1v1H3z"/><path fill="#c3e3d9" d="M4 13h1v1H4z"/><path fill="#35a8c6" d="M5 13h1v1H5z"/><path fill="#7789b8" d="M6 13h1v1H6z"/><path fill="#405397" d="M7 13h1v1H7z"/><path fill="#f6f6de" d="M8 13h1v1H8zm1 0h1v1H9zm1 0h1v1h-1zm1 0h1v1h-1zm1 0h1v1h-1zm1 0h1v1h-1zm1 0h1v1h-1zm1 0h1v1h-1z"/><path fill="#405397" d="M16 13h1v1h-1z"/><path fill="#7789b8" d="M17 13h1v1h-1z"/><path fill="#35a8c6" d="M18 13h1v1h-1z"/><path fill="#c3e3d9" d="M19 13h1v1h-1z"/><path fill="#f6f6de" d="M20 13h1v1h-1z"/><path fill="#405397" d="M21 13h1v1h-1z"/><path fill="#f6f6de" d="M22 13h1v1h-1zm1 0h1v1h-1zM0 14h1v1H0zm1 0h1v1H1z"/><path fill="#c3e3d9" d="M2 14h1v1H2z"/><path fill="#405397" d="M3 14h1v1H3z"/><path fill="#7789b8" d="M4 14h1v1H4z"/><path fill="#91d1d4" d="M5 14h1v1H5zm1 0h1v1H6z"/><path fill="#35a8c6" d="M7 14h1v1H7z"/><path fill="#f6f6de" d="M8 14h1v1H8z"/><path fill="#91d1d4" d="M9 14h1v1H9zm1 0h1v1h-1zm1 0h1v1h-1zm1 0h1v1h-1zm1 0h1v1h-1zm1 0h1v1h-1z"/><path fill="#f6f6de" d="M15 14h1v1h-1z"/><path fill="#35a8c6" d="M16 14h1v1h-1z"/><path fill="#91d1d4" d="M17 14h1v1h-1zm1 0h1v1h-1z"/><path fill="#7789b8" d="M19 14h1v1h-1z"/><path fill="#405397" d="M20 14h1v1h-1z"/><path fill="#c3e3d9" d="M21 14h1v1h-1z"/><path fill="#f6f6de" d="M22 14h1v1h-1zm1 0h1v1h-1zM0 15h1v1H0zm1 0h1v1H1z"/><path fill="#c3e3d9" d="M2 15h1v1H2z"/><path fill="#35a8c6" d="M3 15h1v1H3z"/><path fill="#405397" d="M4 15h1v1H4z"/><path fill="#91d1d4" d="M5 15h1v1H5zm1 0h1v1H6z"/><path fill="#405397" d="M7 15h1v1H7z"/><path fill="#35a8c6" d="M8 15h1v1H8z"/><path fill="#f6f6de" d="M9 15h1v1H9zm1 0h1v1h-1zm1 0h1v1h-1zm1 0h1v1h-1zm1 0h1v1h-1zm1 0h1v1h-1z"/><path fill="#35a8c6" d="M15 15h1v1h-1z"/><path fill="#405397" d="M16 15h1v1h-1z"/><path fill="#91d1d4" d="M17 15h1v1h-1zm1 0h1v1h-1z"/><path fill="#405397" d="M19 15h1v1h-1z"/><path fill="#35a8c6" d="M20 15h1v1h-1z"/><path fill="#c3e3d9" d="M21 15h1v1h-1z"/><path fill="#f6f6de" d="M22 15h1v1h-1zm1 0h1v1h-1zM0 16h1v1H0zm1 0h1v1H1z"/><path fill="#c3e3d9" d="M2 16h1v1H2z"/><path fill="#7789b8" d="M3 16h1v1H3z"/><path fill="#405397" d="M4 16h1v1H4z"/><path fill="#7789b8" d="M5 16h1v1H5z"/><path fill="#405397" d="M6 16h1v1H6z"/><path fill="#35a8c6" d="M7 16h1v1H7z"/><path fill="#f6f6de" d="M8 16h1v1H8zm1 0h1v1H9zm1 0h1v1h-1zm1 0h1v1h-1zm1 0h1v1h-1zm1 0h1v1h-1zm1 0h1v1h-1zm1 0h1v1h-1z"/><path fill="#35a8c6" d="M16 16h1v1h-1z"/><path fill="#405397" d="M17 16h1v1h-1z"/><path fill="#7789b8" d="M18 16h1v1h-1z"/><path fill="#405397" d="M19 16h1v1h-1z"/><path fill="#7789b8" d="M20 16h1v1h-1z"/><path fill="#35a8c6" d="M21 16h1v1h-1z"/><path fill="#f6f6de" d="M22 16h1v1h-1zm1 0h1v1h-1zM0 17h1v1H0z"/><path fill="#c3e3d9" d="M1 17h1v1H1z"/><path fill="#35a8c6" d="M2 17h1v1H2z"/><path fill="#91d1d4" d="M3 17h1v1H3z"/><path fill="#35a8c6" d="M4 17h1v1H4z"/><path fill="#91d1d4" d="M5 17h1v1H5z"/><path fill="#35a8c6" d="M6 17h1v1H6z"/><path fill="#f6f6de" d="M7 17h1v1H7z"/><path fill="#c3e3d9" d="M8 17h1v1H8z"/><path fill="#35a8c6" d="M9 17h1v1H9z"/><path fill="#91d1d4" d="M10 17h1v1h-1z"/><path fill="#c3e3d9" d="M11 17h1v1h-1zm1 0h1v1h-1z"/><path fill="#91d1d4" d="M13 17h1v1h-1z"/><path fill="#35a8c6" d="M14 17h1v1h-1z"/><path fill="#c3e3d9" d="M15 17h1v1h-1z"/><path fill="#f6f6de" d="M16 17h1v1h-1z"/><path fill="#35a8c6" d="M17 17h1v1h-1z"/><path fill="#91d1d4" d="M18 17h1v1h-1z"/><path fill="#35a8c6" d="M19 17h1v1h-1z"/><path fill="#91d1d4" d="M20 17h1v1h-1z"/><path fill="#7789b8" d="M21 17h1v1h-1z"/><path fill="#91d1d4" d="M22 17h1v1h-1z"/><path fill="#f6f6de" d="M23 17h1v1h-1zM0 18h1v1H0zm1 0h1v1H1z"/><path fill="#91d1d4" d="M2 18h1v1H2zm1 0h1v1H3z"/><path fill="#35a8c6" d="M4 18h1v1H4z"/><path fill="#91d1d4" d="M5 18h1v1H5z"/><path fill="#35a8c6" d="M6 18h1v1H6z"/><path fill="#f6f6de" d="M7 18h1v1H7z"/><path fill="#35a8c6" d="M8 18h1v1H8z"/><path fill="#f6f6de" d="M9 18h1v1H9zm1 0h1v1h-1zm1 0h1v1h-1zm1 0h1v1h-1zm1 0h1v1h-1zm1 0h1v1h-1z"/><path fill="#35a8c6" d="M15 18h1v1h-1z"/><path fill="#f6f6de" d="M16 18h1v1h-1z"/><path fill="#35a8c6" d="M17 18h1v1h-1z"/><path fill="#91d1d4" d="M18 18h1v1h-1z"/><path fill="#35a8c6" d="M19 18h1v1h-1z"/><path fill="#91d1d4" d="M20 18h1v1h-1z"/><path fill="#35a8c6" d="M21 18h1v1h-1z"/><path fill="#91d1d4" d="M22 18h1v1h-1z"/><path fill="#f6f6de" d="M23 18h1v1h-1zM0 19h1v1H0zm1 0h1v1H1z"/><path fill="#c3e3d9" d="M2 19h1v1H2z"/><path fill="#91d1d4" d="M3 19h1v1H3z"/><path fill="#35a8c6" d="M4 19h1v1H4z"/><path fill="#91d1d4" d="M5 19h1v1H5z"/><path fill="#35a8c6" d="M6 19h1v1H6z"/><path fill="#f6f6de" d="M7 19h1v1H7z"/><path fill="#91d1d4" d="M8 19h1v1H8z"/><path fill="#f6f6de" d="M9 19h1v1H9z"/><path fill="#91d1d4" d="M10 19h1v1h-1z"/><path fill="#35a8c6" d="M11 19h1v1h-1zm1 0h1v1h-1z"/><path fill="#91d1d4" d="M13 19h1v1h-1z"/><path fill="#f6f6de" d="M14 19h1v1h-1z"/><path fill="#91d1d4" d="M15 19h1v1h-1z"/><path fill="#f6f6de" d="M16 19h1v1h-1z"/><path fill="#35a8c6" d="M17 19h1v1h-1z"/><path fill="#91d1d4" d="M18 19h1v1h-1z"/><path fill="#35a8c6" d="M19 19h1v1h-1z"/><path fill="#91d1d4" d="M20 19h1v1h-1zm1 0h1v1h-1z"/><path fill="#35a8c6" d="M22 19h1v1h-1z"/><path fill="#f6f6de" d="M23 19h1v1h-1zM0 20h1v1H0zm1 0h1v1H1z"/><path fill="#c3e3d9" d="M2 20h1v1H2z"/><path fill="#91d1d4" d="M3 20h1v1H3z"/><path fill="#35a8c6" d="M4 20h1v1H4z"/><path fill="#91d1d4" d="M5 20h1v1H5z"/><path fill="#35a8c6" d="M6 20h1v1H6z"/><path fill="#f6f6de" d="M7 20h1v1H7z"/><path fill="#91d1d4" d="M8 20h1v1H8z"/><path fill="#f6f6de" d="M9 20h1v1H9zm1 0h1v1h-1zm1 0h1v1h-1zm1 0h1v1h-1zm1 0h1v1h-1zm1 0h1v1h-1z"/><path fill="#91d1d4" d="M15 20h1v1h-1z"/><path fill="#f6f6de" d="M16 20h1v1h-1z"/><path fill="#35a8c6" d="M17 20h1v1h-1z"/><path fill="#91d1d4" d="M18 20h1v1h-1z"/><path fill="#35a8c6" d="M19 20h1v1h-1z"/><path fill="#91d1d4" d="M20 20h1v1h-1zm1 0h1v1h-1z"/><path fill="#35a8c6" d="M22 20h1v1h-1z"/><path fill="#f6f6de" d="M23 20h1v1h-1z"/><path fill="#c3e3d9" d="M0 21h1v1H0z"/><path fill="#91d1d4" d="M1 21h1v1H1z"/><path fill="#35a8c6" d="M2 21h1v1H2z"/><path fill="#91d1d4" d="M3 21h1v1H3z"/><path fill="#35a8c6" d="M4 21h1v1H4z"/><path fill="#91d1d4" d="M5 21h1v1H5z"/><path fill="#35a8c6" d="M6 21h1v1H6z"/><path fill="#f6f6de" d="M7 21h1v1H7z"/><path fill="#91d1d4" d="M8 21h1v1H8z"/><path fill="#f6f6de" d="M9 21h1v1H9z"/><path fill="#91d1d4" d="M10 21h1v1h-1z"/><path fill="#35a8c6" d="M11 21h1v1h-1zm1 0h1v1h-1z"/><path fill="#91d1d4" d="M13 21h1v1h-1z"/><path fill="#f6f6de" d="M14 21h1v1h-1z"/><path fill="#91d1d4" d="M15 21h1v1h-1z"/><path fill="#f6f6de" d="M16 21h1v1h-1z"/><path fill="#35a8c6" d="M17 21h1v1h-1z"/><path fill="#91d1d4" d="M18 21h1v1h-1z"/><path fill="#35a8c6" d="M19 21h1v1h-1z"/><path fill="#91d1d4" d="M20 21h1v1h-1zm1 0h1v1h-1z"/><path fill="#7789b8" d="M22 21h1v1h-1z"/><path fill="#c3e3d9" d="M23 21h1v1h-1z"/><path fill="#91d1d4" d="M0 22h1v1H0z"/><path fill="#7789b8" d="M1 22h1v1H1z"/><path fill="#91d1d4" d="M2 22h1v1H2zm1 0h1v1H3z"/><path fill="#35a8c6" d="M4 22h1v1H4z"/><path fill="#91d1d4" d="M5 22h1v1H5z"/><path fill="#35a8c6" d="M6 22h1v1H6z"/><path fill="#f6f6de" d="M7 22h1v1H7z"/><path fill="#91d1d4" d="M8 22h1v1H8z"/><path fill="#f6f6de" d="M9 22h1v1H9zm1 0h1v1h-1zm1 0h1v1h-1zm1 0h1v1h-1zm1 0h1v1h-1zm1 0h1v1h-1z"/><path fill="#91d1d4" d="M15 22h1v1h-1z"/><path fill="#f6f6de" d="M16 22h1v1h-1z"/><path fill="#35a8c6" d="M17 22h1v1h-1z"/><path fill="#91d1d4" d="M18 22h1v1h-1z"/><path fill="#35a8c6" d="M19 22h1v1h-1z"/><path fill="#91d1d4" d="M20 22h1v1h-1zm1 0h1v1h-1z"/><path fill="#7789b8" d="M22 22h1v1h-1z"/><path fill="#91d1d4" d="M23 22h1v1h-1zM0 23h1v1H0z"/><path fill="#405397" d="M1 23h1v1H1z"/><path fill="#91d1d4" d="M2 23h1v1H2zm1 0h1v1H3z"/><path fill="#7789b8" d="M4 23h1v1H4z"/><path fill="#91d1d4" d="M5 23h1v1H5z"/><path fill="#35a8c6" d="M6 23h1v1H6z"/><path fill="#f6f6de" d="M7 23h1v1H7z"/><path fill="#35a8c6" d="M8 23h1v1H8z"/><path fill="#91d1d4" d="M9 23h1v1H9z"/><path fill="#f6f6de" d="M10 23h1v1h-1zm1 0h1v1h-1zm1 0h1v1h-1zm1 0h1v1h-1z"/><path fill="#91d1d4" d="M14 23h1v1h-1z"/><path fill="#35a8c6" d="M15 23h1v1h-1z"/><path fill="#f6f6de" d="M16 23h1v1h-1z"/><path fill="#35a8c6" d="M17 23h1v1h-1z"/><path fill="#91d1d4" d="M18 23h1v1h-1z"/><path fill="#35a8c6" d="M19 23h1v1h-1z"/><path fill="#91d1d4" d="M20 23h1v1h-1zm1 0h1v1h-1z"/><path fill="#405397" d="M22 23h1v1h-1z"/><path fill="#91d1d4" d="M23 23h1v1h-1z"/></svg>