<svg xmlns="http://www.w3.org/2000/svg" width="24" height="24" shape-rendering="crispEdges"><path fill="#5d350d" d="M7 1h1v1H7zm1 0h1v1H8z"/><path fill="#b75a00" d="M9 1h1v1H9zm1 0h1v1h-1zm1 0h1v1h-1z"/><path d="M5 2h1v1H5z"/><path fill="#5d350d" d="M6 2h1v1H6z"/><path fill="#ffcc65" d="M7 2h1v1H7z"/><path fill="#f99833" d="M8 2h1v1H8zm1 0h1v1H9z"/><path fill="#ffcc65" d="M10 2h1v1h-1z"/><path fill="#f99833" d="M11 2h1v1h-1z"/><path fill="#b75a00" d="M12 2h1v1h-1zm1 0h1v1h-1z"/><path d="M4 3h1v1H4z"/><path fill="#f99833" d="M5 3h1v1H5z"/><path fill="#ffcc65" d="M6 3h1v1H6z"/><path fill="#f99833" d="M7 3h1v1H7z"/><path fill="#fff59b" d="M8 3h1v1H8zm1 0h1v1H9z"/><path fill="#ffcc65" d="M10 3h1v1h-1zm1 0h1v1h-1zm1 0h1v1h-1z"/><path fill="#f99833" d="M13 3h1v1h-1z"/><path fill="#b75a00" d="M14 3h1v1h-1z"/><path d="M3 4h1v1H3z"/><path fill="#b75a00" d="M4 4h1v1H4z"/><path fill="#ffcc65" d="M5 4h1v1H5z"/><path fill="#b75a00" d="M6 4h1v1H6z"/><path fill="#fff59b" d="M7 4h1v1H7z"/><path fill="#ffcc65" d="M8 4h1v1H8zm1 0h1v1H9z"/><path fill="#5d350d" d="M10 4h1v1h-1zm1 0h1v1h-1z"/><path fill="#b75a00" d="M12 4h1v1h-1z"/><path fill="#f99833" d="M13 4h1v1h-1zm1 0h1v1h-1z"/><path fill="#5d350d" d="M15 4h1v1h-1z"/><path d="M3 5h1v1H3z"/><path fill="#f99833" d="M4 5h1v1H4z"/><path fill="#b75a00" d="M5 5h1v1H5z"/><path fill="#fff59b" d="M6 5h1v1H6z"/><path fill="#ffcc65" d="M7 5h1v1H7z"/><path fill="#5d350d" d="M8 5h1v1H8zm1 0h1v1H9z"/><path fill="#b75a00" d="M10 5h1v1h-1zm1 0h1v1h-1zm1 0h1v1h-1zm1 0h1v1h-1z"/><path fill="#f99833" d="M14 5h1v1h-1z"/><path fill="#5d350d" d="M15 5h1v1h-1z"/><path d="M3 6h1v1H3z"/><path fill="#b75a00" d="M4 6h1v1H4z"/><path fill="#f99833" d="M5 6h1v1H5z"/><path fill="#5d350d" d="M6 6h1v1H6zm1 0h1v1H7zm1 0h1v1H8zm1 0h1v1H9z"/><path fill="#f99833" d="M10 6h1v1h-1zm1 0h1v1h-1z"/><path fill="#5d350d" d="M12 6h1v1h-1zm1 0h1v1h-1z"/><path fill="#b75a00" d="M14 6h1v1h-1z"/><path d="M15 6h1v1h-1zM3 7h1v1H3z"/><path fill="#5d350d" d="M4 7h1v1H4zm1 0h1v1H5z"/><path fill="#b75a00" d="M6 7h1v1H6z"/><path fill="#9aa0b0" d="M7 7h1v1H7z"/><path d="M8 7h1v1H8zm1 0h1v1H9z"/><path fill="#f99833" d="M10 7h1v1h-1zm1 0h1v1h-1z"/><path d="M12 7h1v1h-1z"/><path fill="#9aa0b0" d="M13 7h1v1h-1z"/><path fill="#b75a00" d="M14 7h1v1h-1z"/><path d="M15 7h1v1h-1zM4 8h1v1H4z"/><path fill="#5d350d" d="M5 8h1v1H5z"/><path fill="#f99833" d="M6 8h1v1H6z"/><path fill="#fff" d="M7 8h1v1H7z"/><path d="M8 8h1v1H8zm1 0h1v1H9z"/><path fill="#fff59b" d="M10 8h1v1h-1zm1 0h1v1h-1z"/><path d="M12 8h1v1h-1z"/><path fill="#fff" d="M13 8h1v1h-1z"/><path d="M14 8h1v1h-1z"/><path fill="#4c5f72" d="M3 9h1v1H3zm1 0h1v1H4z"/><path d="M5 9h1v1H5z"/><path fill="#5d350d" d="M6 9h1v1H6z"/><path fill="#fff" d="M7 9h1v1H7z"/><path fill="#009937" d="M8 9h1v1H8zm1 0h1v1H9z"/><path fill="#fff59b" d="M10 9h1v1h-1zm1 0h1v1h-1z"/><path fill="#009937" d="M12 9h1v1h-1z"/><path fill="#fff59b" d="M13 9h1v1h-1z"/><path d="M14 9h1v1h-1z"/><path fill="#4c5f72" d="M15 9h1v1h-1zM2 10h1v1H2z"/><path fill="#9aa0b0" d="M3 10h1v1H3z"/><path fill="#f1f2f2" d="M4 10h1v1H4z"/><path fill="#9aa0b0" d="M5 10h1v1H5z"/><path fill="#4c5f72" d="M6 10h1v1H6z"/><path fill="#5d350d" d="M7 10h1v1H7z"/><path fill="#f99833" d="M8 10h1v1H8z"/><path fill="#fff59b" d="M9 10h1v1H9zm1 0h1v1h-1zm1 0h1v1h-1z"/><path fill="#f99833" d="M12 10h1v1h-1z"/><path d="M13 10h1v1h-1z"/><path fill="#9aa0b0" d="M14 10h1v1h-1z"/><path fill="#f1f2f2" d="M15 10h1v1h-1z"/><path fill="#4c5f72" d="M16 10h1v1h-1z"/><path d="M1 11h1v1H1z"/><path fill="#9aa0b0" d="M2 11h1v1H2z"/><path fill="#f1f2f2" d="M3 11h1v1H3z"/><path fill="#cccccd" d="M4 11h1v1H4zm1 0h1v1H5z"/><path fill="#9aa0b0" d="M6 11h1v1H6z"/><path fill="#4c5f72" d="M7 11h1v1H7z"/><path fill="#5d350d" d="M8 11h1v1H8zm1 0h1v1H9zm1 0h1v1h-1z"/><path d="M11 11h1v1h-1zm1 0h1v1h-1z"/><path fill="#29323e" d="M13 11h1v1h-1z"/><path fill="#9aa0b0" d="M14 11h1v1h-1z"/><path fill="#cccccd" d="M15 11h1v1h-1z"/><path fill="#f1f2f2" d="M16 11h1v1h-1z"/><path d="M17 11h1v1h-1zM0 12h1v1H0zm1 0h1v1H1zm1 0h1v1H2zm1 0h1v1H3zm1 0h1v1H4zm1 0h1v1H5zm1 0h1v1H6z"/><path fill="#29323e" d="M7 12h1v1H7z"/><path fill="#9aa0b0" d="M8 12h1v1H8z"/><path fill="#cccccd" d="M9 12h1v1H9zm1 0h1v1h-1zm1 0h1v1h-1z"/><path fill="#9aa0b0" d="M12 12h1v1h-1z"/><path fill="#4c5f72" d="M13 12h1v1h-1z"/><path fill="#29323e" d="M14 12h1v1h-1zm1 0h1v1h-1z"/><path d="M16 12h1v1h-1zM0 13h1v1H0z"/><path fill="#fff59b" d="M1 13h1v1H1zm1 0h1v1H2zm1 0h1v1H3zm1 0h1v1H4zm1 0h1v1H5z"/><path fill="#5d350d" d="M6 13h1v1H6z"/><path fill="#005552" d="M7 13h1v1H7z"/><path fill="#4c5f72" d="M8 13h1v1H8zm1 0h1v1H9zm1 0h1v1h-1zm1 0h1v1h-1zm1 0h1v1h-1z"/><path fill="#29323e" d="M13 13h1v1h-1z"/><path fill="#4c5f72" d="M14 13h1v1h-1z"/><path d="M15 13h1v1h-1zM0 14h1v1H0z"/><path fill="#fff59b" d="M1 14h1v1H1z"/><path fill="#005552" d="M2 14h1v1H2zm1 0h1v1H3zm1 0h1v1H4z"/><path fill="#fff59b" d="M5 14h1v1H5z"/><path fill="#5d350d" d="M6 14h1v1H6z"/><path fill="#005552" d="M7 14h1v1H7z"/><path fill="#cccccd" d="M8 14h1v1H8z"/><path fill="#f1f2f2" d="M9 14h1v1H9zm1 0h1v1h-1zm1 0h1v1h-1z"/><path fill="#cccccd" d="M12 14h1v1h-1z"/><path d="M13 14h1v1h-1z"/><path fill="#4c5f72" d="M14 14h1v1h-1zm1 0h1v1h-1z"/><path d="M16 14h1v1h-1zM0 15h1v1H0z"/><path fill="#fff59b" d="M1 15h1v1H1z"/><path fill="#009937" d="M2 15h1v1H2z"/><path fill="#63be25" d="M3 15h1v1H3z"/><path fill="#009937" d="M4 15h1v1H4z"/><path fill="#fff59b" d="M5 15h1v1H5z"/><path fill="#5d350d" d="M6 15h1v1H6z"/><path fill="#005552" d="M7 15h1v1H7z"/><path fill="#9aa0b0" d="M8 15h1v1H8z"/><path fill="#cccccd" d="M9 15h1v1H9zm1 0h1v1h-1zm1 0h1v1h-1z"/><path fill="#9aa0b0" d="M12 15h1v1h-1z"/><path fill="#29323e" d="M13 15h1v1h-1z"/><path fill="#9aa0b0" d="M14 15h1v1h-1z"/><path fill="#f1f2f2" d="M15 15h1v1h-1z"/><path fill="#cccccd" d="M16 15h1v1h-1z"/><path fill="#b75a00" d="M17 15h1v1h-1zm1 0h1v1h-1zm1 0h1v1h-1z"/><path d="M0 16h1v1H0z"/><path fill="#ffcc65" d="M1 16h1v1H1z"/><path fill="#009937" d="M2 16h1v1H2z"/><path fill="#63be25" d="M3 16h1v1H3z"/><path fill="#009937" d="M4 16h1v1H4z"/><path fill="#ffcc65" d="M5 16h1v1H5z"/><path fill="#5d350d" d="M6 16h1v1H6z"/><path d="M7 16h1v1H7zm1 0h1v1H8z"/><path fill="#4c5f72" d="M9 16h1v1H9zm1 0h1v1h-1zm1 0h1v1h-1z"/><path fill="#29323e" d="M12 16h1v1h-1zm1 0h1v1h-1z"/><path fill="#4c5f72" d="M14 16h1v1h-1z"/><path fill="#cccccd" d="M15 16h1v1h-1z"/><path fill="#b75a00" d="M16 16h1v1h-1z"/><path fill="#fff59b" d="M17 16h1v1h-1zm1 0h1v1h-1z"/><path fill="#5d350d" d="M19 16h1v1h-1z"/><path d="M0 17h1v1H0z"/><path fill="#ffcc65" d="M1 17h1v1H1z"/><path fill="#009937" d="M2 17h1v1H2z"/><path fill="#63be25" d="M3 17h1v1H3z"/><path fill="#009937" d="M4 17h1v1H4z"/><path fill="#ffcc65" d="M5 17h1v1H5z"/><path fill="#5d350d" d="M6 17h1v1H6z"/><path fill="#005552" d="M7 17h1v1H7z"/><path fill="#009937" d="M8 17h1v1H8zm1 0h1v1H9zm1 0h1v1h-1zm1 0h1v1h-1zm1 0h1v1h-1z"/><path fill="#005552" d="M13 17h1v1h-1z"/><path d="M14 17h1v1h-1z"/><path fill="#b75a00" d="M15 17h1v1h-1z"/><path fill="#fff59b" d="M16 17h1v1h-1z"/><path fill="#9aa0b0" d="M17 17h1v1h-1z"/><path fill="#4c5f72" d="M18 17h1v1h-1z"/><path d="M19 17h1v1h-1zM0 18h1v1H0z"/><path fill="#ffcc65" d="M1 18h1v1H1z"/><path fill="#009937" d="M2 18h1v1H2z"/><path fill="#63be25" d="M3 18h1v1H3z"/><path fill="#009937" d="M4 18h1v1H4z"/><path fill="#ffcc65" d="M5 18h1v1H5z"/><path fill="#29323e" d="M6 18h1v1H6z"/><path fill="#005552" d="M7 18h1v1H7z"/><path fill="#009937" d="M8 18h1v1H8zm1 0h1v1H9zm1 0h1v1h-1zm1 0h1v1h-1zm1 0h1v1h-1z"/><path fill="#4c5f72" d="M13 18h1v1h-1z"/><path d="M14 18h1v1h-1z"/><path fill="#b75a00" d="M15 18h1v1h-1z"/><path fill="#ffcc65" d="M16 18h1v1h-1z"/><path fill="#4c5f72" d="M17 18h1v1h-1z"/><path fill="#9aa0b0" d="M18 18h1v1h-1z"/><path fill="#f1f2f2" d="M19 18h1v1h-1z"/><path fill="#4c5f72" d="M20 18h1v1h-1z"/><path d="M1 19h1v1H1z"/><path fill="#ffcc65" d="M2 19h1v1H2z"/><path fill="#009937" d="M3 19h1v1H3z"/><path fill="#ffcc65" d="M4 19h1v1H4z"/><path fill="#5d350d" d="M5 19h1v1H5z"/><path fill="#cccccd" d="M6 19h1v1H6z"/><path fill="#29323e" d="M7 19h1v1H7z"/><path fill="#005552" d="M8 19h1v1H8zm1 0h1v1H9zm1 0h1v1h-1z"/><path fill="#29323e" d="M11 19h1v1h-1z"/><path fill="#cccccd" d="M12 19h1v1h-1z"/><path fill="#f1f2f2" d="M13 19h1v1h-1z"/><path d="M14 19h1v1h-1zm1 0h1v1h-1zm1 0h1v1h-1zm1 0h1v1h-1z"/><path fill="#cccccd" d="M18 19h1v1h-1z"/><path fill="#9aa0b0" d="M19 19h1v1h-1z"/><path fill="#f1f2f2" d="M20 19h1v1h-1z"/><path fill="#4c5f72" d="M21 19h1v1h-1z"/><path d="M2 20h1v1H2z"/><path fill="#ffcc65" d="M3 20h1v1H3z"/><path fill="#5d350d" d="M4 20h1v1H4z"/><path fill="#4c5f72" d="M5 20h1v1H5zm1 0h1v1H6z"/><path fill="#29323e" d="M7 20h1v1H7z"/><path d="M8 20h1v1H8zm1 0h1v1H9zm1 0h1v1h-1z"/><path fill="#cccccd" d="M11 20h1v1h-1z"/><path fill="#f1f2f2" d="M12 20h1v1h-1z"/><path fill="#4c5f72" d="M13 20h1v1h-1z"/><path d="M14 20h1v1h-1zm4 0h1v1h-1z"/><path fill="#cccccd" d="M19 20h1v1h-1z"/><path fill="#9aa0b0" d="M20 20h1v1h-1z"/><path fill="#f1f2f2" d="M21 20h1v1h-1z"/><path fill="#4c5f72" d="M22 20h1v1h-1z"/><path d="M1 21h1v1H1zm1 0h1v1H2zm1 0h1v1H3z"/><path fill="#4c5f72" d="M4 21h1v1H4z"/><path fill="#cccccd" d="M5 21h1v1H5zm1 0h1v1H6z"/><path fill="#4c5f72" d="M7 21h1v1H7z"/><path d="M8 21h1v1H8zm1 0h1v1H9zm1 0h1v1h-1z"/><path fill="#9aa0b0" d="M11 21h1v1h-1z"/><path fill="#cccccd" d="M12 21h1v1h-1zm1 0h1v1h-1z"/><path fill="#4c5f72" d="M14 21h1v1h-1z"/><path d="M15 21h1v1h-1zm4 0h1v1h-1z"/><path fill="#cccccd" d="M20 21h1v1h-1z"/><path fill="#9aa0b0" d="M21 21h1v1h-1z"/><path fill="#f1f2f2" d="M22 21h1v1h-1z"/><path fill="#4c5f72" d="M23 21h1v1h-1z"/><path d="M1 22h1v1H1zm1 0h1v1H2zm1 0h1v1H3z"/><path fill="#29323e" d="M4 22h1v1H4z"/><path fill="#f1f2f2" d="M5 22h1v1H5zm1 0h1v1H6z"/><path fill="#29323e" d="M7 22h1v1H7z"/><path d="M8 22h1v1H8zm1 0h1v1H9zm1 0h1v1h-1zm1 0h1v1h-1zm1 0h1v1h-1zm1 0h1v1h-1zm1 0h1v1h-1zm1 0h1v1h-1zm5 0h1v1h-1z"/><path fill="#cccccd" d="M21 22h1v1h-1z"/><path fill="#f1f2f2" d="M22 22h1v1h-1z"/><path d="M23 22h1v1h-1zM3 23h1v1H3zm1 0h1v1H4zm1 0h1v1H5zm1 0h1v1H6zm1 0h1v1H7zm1 0h1v1H8zm1 0h1v1H9zm1 0h1v1h-1zm1 0h1v1h-1zm1 0h1v1h-1zm1 0h1v1h-1zm8 0h1v1h-1zm1 0h1v1h-1zm1 0h1v1h-1z"/></svg>