<svg xmlns="http://www.w3.org/2000/svg" width="24" height="24" shape-rendering="crispEdges"><path fill="#4b4139" d="M0 0h1v1H0zm1 0h1v1H1zm1 0h1v1H2zm1 0h1v1H3zm1 0h1v1H4zm1 0h1v1H5zm1 0h1v1H6zm1 0h1v1H7zm1 0h1v1H8zm1 0h1v1H9zm1 0h1v1h-1zm1 0h1v1h-1zm1 0h1v1h-1zm1 0h1v1h-1zm1 0h1v1h-1zm1 0h1v1h-1zm1 0h1v1h-1zm1 0h1v1h-1zm1 0h1v1h-1zm1 0h1v1h-1zm1 0h1v1h-1zm1 0h1v1h-1zm1 0h1v1h-1zm1 0h1v1h-1z"/><path fill="#d28e44" d="M0 1h1v1H0zm1 0h1v1H1zm1 0h1v1H2zm1 0h1v1H3zm1 0h1v1H4zm1 0h1v1H5zm1 0h1v1H6zm1 0h1v1H7zm1 0h1v1H8zm1 0h1v1H9zm1 0h1v1h-1zm1 0h1v1h-1zm1 0h1v1h-1zm1 0h1v1h-1zm1 0h1v1h-1zm1 0h1v1h-1zm1 0h1v1h-1zm1 0h1v1h-1zm1 0h1v1h-1zm1 0h1v1h-1zm1 0h1v1h-1zm1 0h1v1h-1zm1 0h1v1h-1zm1 0h1v1h-1zM0 2h1v1H0zm1 0h1v1H1zm1 0h1v1H2zm1 0h1v1H3zm1 0h1v1H4zm1 0h1v1H5zm1 0h1v1H6zm1 0h1v1H7zm1 0h1v1H8zm1 0h1v1H9zm1 0h1v1h-1zm1 0h1v1h-1zm1 0h1v1h-1zm1 0h1v1h-1zm1 0h1v1h-1zm1 0h1v1h-1zm1 0h1v1h-1zm1 0h1v1h-1zm1 0h1v1h-1zm1 0h1v1h-1zm1 0h1v1h-1zm1 0h1v1h-1zm1 0h1v1h-1zm1 0h1v1h-1z"/><path fill="#96645a" d="M0 3h1v1H0zm1 0h1v1H1zm1 0h1v1H2zm1 0h1v1H3zm1 0h1v1H4zm1 0h1v1H5zm1 0h1v1H6zm1 0h1v1H7zm1 0h1v1H8zm1 0h1v1H9zm1 0h1v1h-1zm1 0h1v1h-1zm1 0h1v1h-1zm1 0h1v1h-1zm1 0h1v1h-1zm1 0h1v1h-1zm1 0h1v1h-1zm1 0h1v1h-1zm1 0h1v1h-1zm1 0h1v1h-1zm1 0h1v1h-1zm1 0h1v1h-1zm1 0h1v1h-1zm1 0h1v1h-1z"/><path fill="#7d4a1d" d="M0 4h1v1H0zm1 0h1v1H1zm1 0h1v1H2zm1 0h1v1H3zm1 0h1v1H4zm1 0h1v1H5zm1 0h1v1H6zm1 0h1v1H7zm1 0h1v1H8zm1 0h1v1H9zm1 0h1v1h-1zm1 0h1v1h-1zm1 0h1v1h-1zm1 0h1v1h-1zm1 0h1v1h-1zm1 0h1v1h-1zm1 0h1v1h-1zm1 0h1v1h-1zm1 0h1v1h-1zm1 0h1v1h-1zm1 0h1v1h-1zm1 0h1v1h-1zm1 0h1v1h-1zm1 0h1v1h-1z"/><path fill="#96645a" d="M0 5h1v1H0zm1 0h1v1H1zm1 0h1v1H2z"/><path fill="#7d4a1d" d="M3 5h1v1H3z"/><path fill="#96645a" d="M4 5h1v1H4zm1 0h1v1H5zm1 0h1v1H6z"/><path fill="#7d4a1d" d="M7 5h1v1H7z"/><path fill="#96645a" d="M8 5h1v1H8zm1 0h1v1H9zm1 0h1v1h-1z"/><path fill="#7d4a1d" d="M11 5h1v1h-1z"/><path fill="#96645a" d="M12 5h1v1h-1zm1 0h1v1h-1zm1 0h1v1h-1z"/><path fill="#7d4a1d" d="M15 5h1v1h-1z"/><path fill="#96645a" d="M16 5h1v1h-1zm1 0h1v1h-1zm1 0h1v1h-1z"/><path fill="#7d4a1d" d="M19 5h1v1h-1z"/><path fill="#96645a" d="M20 5h1v1h-1zm1 0h1v1h-1zm1 0h1v1h-1z"/><path fill="#7d4a1d" d="M23 5h1v1h-1z"/><path fill="#ac6e53" d="M0 6h1v1H0zm1 0h1v1H1zm1 0h1v1H2z"/><path fill="#96645a" d="M3 6h1v1H3z"/><path fill="#ac6e53" d="M4 6h1v1H4zm1 0h1v1H5zm1 0h1v1H6z"/><path fill="#96645a" d="M7 6h1v1H7z"/><path fill="#ac6e53" d="M8 6h1v1H8zm1 0h1v1H9zm1 0h1v1h-1z"/><path fill="#7d4a1d" d="M11 6h1v1h-1z"/><path fill="#ac6e53" d="M12 6h1v1h-1zm1 0h1v1h-1zm1 0h1v1h-1z"/><path fill="#7d4a1d" d="M15 6h1v1h-1z"/><path fill="#ac6e53" d="M16 6h1v1h-1zm1 0h1v1h-1zm1 0h1v1h-1z"/><path fill="#96645a" d="M19 6h1v1h-1z"/><path fill="#ac6e53" d="M20 6h1v1h-1zm1 0h1v1h-1zm1 0h1v1h-1z"/><path fill="#7d4a1d" d="M23 6h1v1h-1z"/><path fill="#c0784c" d="M0 7h1v1H0zm1 0h1v1H1zm1 0h1v1H2z"/><path fill="#96645a" d="M3 7h1v1H3z"/><path fill="#c0784c" d="M4 7h1v1H4zm1 0h1v1H5zm1 0h1v1H6z"/><path fill="#96645a" d="M7 7h1v1H7z"/><path fill="#c0784c" d="M8 7h1v1H8zm1 0h1v1H9zm1 0h1v1h-1z"/><path fill="#7d4a1d" d="M11 7h1v1h-1z"/><path fill="#c0784c" d="M12 7h1v1h-1zm1 0h1v1h-1zm1 0h1v1h-1z"/><path fill="#96645a" d="M15 7h1v1h-1z"/><path fill="#c0784c" d="M16 7h1v1h-1zm1 0h1v1h-1zm1 0h1v1h-1z"/><path fill="#ac6e53" d="M19 7h1v1h-1z"/><path fill="#c0784c" d="M20 7h1v1h-1zm1 0h1v1h-1zm1 0h1v1h-1z"/><path fill="#96645a" d="M23 7h1v1h-1z"/><path fill="#c0784c" d="M0 8h1v1H0zm1 0h1v1H1zm1 0h1v1H2z"/><path fill="#ac6e53" d="M3 8h1v1H3z"/><path fill="#c0784c" d="M4 8h1v1H4zm1 0h1v1H5zm1 0h1v1H6z"/><path fill="#96645a" d="M7 8h1v1H7z"/><path fill="#c0784c" d="M8 8h1v1H8zm1 0h1v1H9zm1 0h1v1h-1z"/><path fill="#96645a" d="M11 8h1v1h-1z"/><path fill="#c0784c" d="M12 8h1v1h-1zm1 0h1v1h-1zm1 0h1v1h-1z"/><path fill="#ac6e53" d="M15 8h1v1h-1z"/><path fill="#c0784c" d="M16 8h1v1h-1zm1 0h1v1h-1zm1 0h1v1h-1z"/><path fill="#ac6e53" d="M19 8h1v1h-1z"/><path fill="#c0784c" d="M20 8h1v1h-1zm1 0h1v1h-1zm1 0h1v1h-1z"/><path fill="#96645a" d="M23 8h1v1h-1z"/><path fill="#c0784c" d="M0 9h1v1H0zm1 0h1v1H1zm1 0h1v1H2z"/><path fill="#ac6e53" d="M3 9h1v1H3z"/><path fill="#c0784c" d="M4 9h1v1H4zm1 0h1v1H5zm1 0h1v1H6z"/><path fill="#96645a" d="M7 9h1v1H7z"/><path fill="#c0784c" d="M8 9h1v1H8zm1 0h1v1H9zm1 0h1v1h-1z"/><path fill="#7d4a1d" d="M11 9h1v1h-1z"/><path fill="#c0784c" d="M12 9h1v1h-1zm1 0h1v1h-1zm1 0h1v1h-1z"/><path fill="#ac6e53" d="M15 9h1v1h-1z"/><path fill="#c0784c" d="M16 9h1v1h-1zm1 0h1v1h-1zm1 0h1v1h-1z"/><path fill="#96645a" d="M19 9h1v1h-1z"/><path fill="#c0784c" d="M20 9h1v1h-1zm1 0h1v1h-1zm1 0h1v1h-1z"/><path fill="#96645a" d="M23 9h1v1h-1z"/><path fill="#c0784c" d="M0 10h1v1H0zm1 0h1v1H1zm1 0h1v1H2z"/><path fill="#96645a" d="M3 10h1v1H3z"/><path fill="#c0784c" d="M4 10h1v1H4zm1 0h1v1H5zm1 0h1v1H6z"/><path fill="#96645a" d="M7 10h1v1H7z"/><path fill="#c0784c" d="M8 10h1v1H8zm1 0h1v1H9zm1 0h1v1h-1z"/><path fill="#96645a" d="M11 10h1v1h-1z"/><path fill="#c0784c" d="M12 10h1v1h-1zm1 0h1v1h-1zm1 0h1v1h-1z"/><path fill="#ac6e53" d="M15 10h1v1h-1z"/><path fill="#c0784c" d="M16 10h1v1h-1zm1 0h1v1h-1zm1 0h1v1h-1z"/><path fill="#ac6e53" d="M19 10h1v1h-1z"/><path fill="#c0784c" d="M20 10h1v1h-1zm1 0h1v1h-1zm1 0h1v1h-1z"/><path fill="#ac6e53" d="M23 10h1v1h-1z"/><path fill="#c0784c" d="M0 11h1v1H0zm1 0h1v1H1zm1 0h1v1H2z"/><path fill="#96645a" d="M3 11h1v1H3z"/><path fill="#c0784c" d="M4 11h1v1H4zm1 0h1v1H5zm1 0h1v1H6z"/><path fill="#96645a" d="M7 11h1v1H7z"/><path fill="#c0784c" d="M8 11h1v1H8zm1 0h1v1H9zm1 0h1v1h-1z"/><path fill="#96645a" d="M11 11h1v1h-1z"/><path fill="#c0784c" d="M12 11h1v1h-1zm1 0h1v1h-1zm1 0h1v1h-1z"/><path fill="#ac6e53" d="M15 11h1v1h-1z"/><path fill="#c0784c" d="M16 11h1v1h-1zm1 0h1v1h-1zm1 0h1v1h-1z"/><path fill="#96645a" d="M19 11h1v1h-1z"/><path fill="#c0784c" d="M20 11h1v1h-1zm1 0h1v1h-1zm1 0h1v1h-1z"/><path fill="#96645a" d="M23 11h1v1h-1z"/><path fill="#c0784c" d="M0 12h1v1H0zm1 0h1v1H1zm1 0h1v1H2z"/><path fill="#ac6e53" d="M3 12h1v1H3z"/><path fill="#c0784c" d="M4 12h1v1H4zm1 0h1v1H5zm1 0h1v1H6z"/><path fill="#ac6e53" d="M7 12h1v1H7z"/><path fill="#c0784c" d="M8 12h1v1H8zm1 0h1v1H9zm1 0h1v1h-1z"/><path fill="#96645a" d="M11 12h1v1h-1z"/><path fill="#c0784c" d="M12 12h1v1h-1zm1 0h1v1h-1zm1 0h1v1h-1z"/><path fill="#ac6e53" d="M15 12h1v1h-1z"/><path fill="#c0784c" d="M16 12h1v1h-1zm1 0h1v1h-1zm1 0h1v1h-1z"/><path fill="#96645a" d="M19 12h1v1h-1z"/><path fill="#c0784c" d="M20 12h1v1h-1zm1 0h1v1h-1zm1 0h1v1h-1z"/><path fill="#96645a" d="M23 12h1v1h-1z"/><path fill="#c0784c" d="M0 13h1v1H0zm1 0h1v1H1zm1 0h1v1H2z"/><path fill="#96645a" d="M3 13h1v1H3z"/><path fill="#c0784c" d="M4 13h1v1H4zm1 0h1v1H5zm1 0h1v1H6z"/><path fill="#ac6e53" d="M7 13h1v1H7z"/><path fill="#c0784c" d="M8 13h1v1H8zm1 0h1v1H9zm1 0h1v1h-1z"/><path fill="#ac6e53" d="M11 13h1v1h-1z"/><path fill="#c0784c" d="M12 13h1v1h-1zm1 0h1v1h-1zm1 0h1v1h-1z"/><path fill="#ac6e53" d="M15 13h1v1h-1z"/><path fill="#c0784c" d="M16 13h1v1h-1zm1 0h1v1h-1zm1 0h1v1h-1z"/><path fill="#ac6e53" d="M19 13h1v1h-1z"/><path fill="#c0784c" d="M20 13h1v1h-1zm1 0h1v1h-1zm1 0h1v1h-1z"/><path fill="#ac6e53" d="M23 13h1v1h-1z"/><path fill="#c0784c" d="M0 14h1v1H0zm1 0h1v1H1zm1 0h1v1H2z"/><path fill="#96645a" d="M3 14h1v1H3z"/><path fill="#c0784c" d="M4 14h1v1H4zm1 0h1v1H5zm1 0h1v1H6z"/><path fill="#ac6e53" d="M7 14h1v1H7z"/><path fill="#c0784c" d="M8 14h1v1H8zm1 0h1v1H9zm1 0h1v1h-1z"/><path fill="#ac6e53" d="M11 14h1v1h-1z"/><path fill="#c0784c" d="M12 14h1v1h-1zm1 0h1v1h-1zm1 0h1v1h-1z"/><path fill="#ac6e53" d="M15 14h1v1h-1z"/><path fill="#c0784c" d="M16 14h1v1h-1zm1 0h1v1h-1zm1 0h1v1h-1z"/><path fill="#96645a" d="M19 14h1v1h-1z"/><path fill="#c0784c" d="M20 14h1v1h-1zm1 0h1v1h-1zm1 0h1v1h-1z"/><path fill="#ac6e53" d="M23 14h1v1h-1z"/><path fill="#c0784c" d="M0 15h1v1H0zm1 0h1v1H1zm1 0h1v1H2z"/><path fill="#96645a" d="M3 15h1v1H3z"/><path fill="#c0784c" d="M4 15h1v1H4zm1 0h1v1H5zm1 0h1v1H6z"/><path fill="#96645a" d="M7 15h1v1H7z"/><path fill="#c0784c" d="M8 15h1v1H8zm1 0h1v1H9zm1 0h1v1h-1z"/><path fill="#96645a" d="M11 15h1v1h-1z"/><path fill="#c0784c" d="M12 15h1v1h-1zm1 0h1v1h-1zm1 0h1v1h-1z"/><path fill="#ac6e53" d="M15 15h1v1h-1z"/><path fill="#c0784c" d="M16 15h1v1h-1zm1 0h1v1h-1zm1 0h1v1h-1z"/><path fill="#96645a" d="M19 15h1v1h-1z"/><path fill="#c0784c" d="M20 15h1v1h-1zm1 0h1v1h-1zm1 0h1v1h-1z"/><path fill="#96645a" d="M23 15h1v1h-1z"/><path fill="#c0784c" d="M0 16h1v1H0zm1 0h1v1H1zm1 0h1v1H2z"/><path fill="#96645a" d="M3 16h1v1H3z"/><path fill="#c0784c" d="M4 16h1v1H4zm1 0h1v1H5zm1 0h1v1H6z"/><path fill="#7d4a1d" d="M7 16h1v1H7z"/><path fill="#c0784c" d="M8 16h1v1H8zm1 0h1v1H9zm1 0h1v1h-1z"/><path fill="#ac6e53" d="M11 16h1v1h-1z"/><path fill="#c0784c" d="M12 16h1v1h-1zm1 0h1v1h-1zm1 0h1v1h-1z"/><path fill="#96645a" d="M15 16h1v1h-1z"/><path fill="#c0784c" d="M16 16h1v1h-1zm1 0h1v1h-1zm1 0h1v1h-1z"/><path fill="#96645a" d="M19 16h1v1h-1z"/><path fill="#c0784c" d="M20 16h1v1h-1zm1 0h1v1h-1zm1 0h1v1h-1z"/><path fill="#96645a" d="M23 16h1v1h-1z"/><path fill="#c0784c" d="M0 17h1v1H0zm1 0h1v1H1zm1 0h1v1H2z"/><path fill="#96645a" d="M3 17h1v1H3z"/><path fill="#c0784c" d="M4 17h1v1H4zm1 0h1v1H5zm1 0h1v1H6z"/><path fill="#7d4a1d" d="M7 17h1v1H7z"/><path fill="#c0784c" d="M8 17h1v1H8zm1 0h1v1H9zm1 0h1v1h-1z"/><path fill="#96645a" d="M11 17h1v1h-1z"/><path fill="#c0784c" d="M12 17h1v1h-1zm1 0h1v1h-1zm1 0h1v1h-1z"/><path fill="#96645a" d="M15 17h1v1h-1z"/><path fill="#c0784c" d="M16 17h1v1h-1zm1 0h1v1h-1zm1 0h1v1h-1z"/><path fill="#96645a" d="M19 17h1v1h-1z"/><path fill="#c0784c" d="M20 17h1v1h-1zm1 0h1v1h-1zm1 0h1v1h-1z"/><path fill="#96645a" d="M23 17h1v1h-1z"/><path fill="#c0784c" d="M0 18h1v1H0zm1 0h1v1H1zm1 0h1v1H2z"/><path fill="#7d4a1d" d="M3 18h1v1H3z"/><path fill="#c0784c" d="M4 18h1v1H4zm1 0h1v1H5zm1 0h1v1H6z"/><path fill="#7d4a1d" d="M7 18h1v1H7z"/><path fill="#c0784c" d="M8 18h1v1H8zm1 0h1v1H9zm1 0h1v1h-1z"/><path fill="#96645a" d="M11 18h1v1h-1z"/><path fill="#c0784c" d="M12 18h1v1h-1zm1 0h1v1h-1zm1 0h1v1h-1z"/><path fill="#96645a" d="M15 18h1v1h-1z"/><path fill="#c0784c" d="M16 18h1v1h-1zm1 0h1v1h-1zm1 0h1v1h-1z"/><path fill="#96645a" d="M19 18h1v1h-1z"/><path fill="#c0784c" d="M20 18h1v1h-1zm1 0h1v1h-1zm1 0h1v1h-1z"/><path fill="#96645a" d="M23 18h1v1h-1zM0 19h1v1H0zm1 0h1v1H1zm1 0h1v1H2zm1 0h1v1H3zm1 0h1v1H4zm1 0h1v1H5zm1 0h1v1H6zm1 0h1v1H7zm1 0h1v1H8zm1 0h1v1H9zm1 0h1v1h-1zm1 0h1v1h-1zm1 0h1v1h-1zm1 0h1v1h-1zm1 0h1v1h-1zm1 0h1v1h-1zm1 0h1v1h-1zm1 0h1v1h-1zm1 0h1v1h-1zm1 0h1v1h-1zm1 0h1v1h-1zm1 0h1v1h-1zm1 0h1v1h-1zm1 0h1v1h-1z"/><path fill="#d28e44" d="M0 20h1v1H0zm1 0h1v1H1zm1 0h1v1H2zm1 0h1v1H3zm1 0h1v1H4zm1 0h1v1H5zm1 0h1v1H6zm1 0h1v1H7zm1 0h1v1H8zm1 0h1v1H9zm1 0h1v1h-1zm1 0h1v1h-1zm1 0h1v1h-1zm1 0h1v1h-1zm1 0h1v1h-1zm1 0h1v1h-1zm1 0h1v1h-1zm1 0h1v1h-1zm1 0h1v1h-1zm1 0h1v1h-1zm1 0h1v1h-1zm1 0h1v1h-1zm1 0h1v1h-1zm1 0h1v1h-1zM0 21h1v1H0zm1 0h1v1H1zm1 0h1v1H2zm1 0h1v1H3zm1 0h1v1H4zm1 0h1v1H5zm1 0h1v1H6zm1 0h1v1H7zm1 0h1v1H8zm1 0h1v1H9zm1 0h1v1h-1zm1 0h1v1h-1zm1 0h1v1h-1zm1 0h1v1h-1zm1 0h1v1h-1zm1 0h1v1h-1zm1 0h1v1h-1zm1 0h1v1h-1zm1 0h1v1h-1zm1 0h1v1h-1zm1 0h1v1h-1zm1 0h1v1h-1zm1 0h1v1h-1zm1 0h1v1h-1z"/><path fill="#96645a" d="M0 22h1v1H0zm1 0h1v1H1zm1 0h1v1H2zm1 0h1v1H3zm1 0h1v1H4zm1 0h1v1H5zm1 0h1v1H6zm1 0h1v1H7zm1 0h1v1H8zm1 0h1v1H9zm1 0h1v1h-1zm1 0h1v1h-1zm1 0h1v1h-1zm1 0h1v1h-1zm1 0h1v1h-1zm1 0h1v1h-1zm1 0h1v1h-1zm1 0h1v1h-1zm1 0h1v1h-1zm1 0h1v1h-1zm1 0h1v1h-1zm1 0h1v1h-1zm1 0h1v1h-1zm1 0h1v1h-1z"/><path fill="#4b4139" d="M0 23h1v1H0zm1 0h1v1H1zm1 0h1v1H2zm1 0h1v1H3zm1 0h1v1H4zm1 0h1v1H5zm1 0h1v1H6zm1 0h1v1H7zm1 0h1v1H8zm1 0h1v1H9zm1 0h1v1h-1zm1 0h1v1h-1zm1 0h1v1h-1zm1 0h1v1h-1zm1 0h1v1h-1zm1 0h1v1h-1zm1 0h1v1h-1zm1 0h1v1h-1zm1 0h1v1h-1zm1 0h1v1h-1zm1 0h1v1h-1zm1 0h1v1h-1zm1 0h1v1h-1zm1 0h1v1h-1z"/></svg>