<svg xmlns="http://www.w3.org/2000/svg" width="24" height="24" shape-rendering="crispEdges"><path fill="#f4f4e6" d="M0 0h1v1H0zm1 0h1v1H1zm1 0h1v1H2zm1 0h1v1H3zm1 0h1v1H4zm1 0h1v1H5zm1 0h1v1H6zm1 0h1v1H7zm1 0h1v1H8zm1 0h1v1H9zm1 0h1v1h-1zm1 0h1v1h-1zm1 0h1v1h-1zm1 0h1v1h-1zm1 0h1v1h-1zm1 0h1v1h-1zm1 0h1v1h-1zm1 0h1v1h-1zm1 0h1v1h-1zm1 0h1v1h-1zm1 0h1v1h-1zm1 0h1v1h-1zm1 0h1v1h-1zm1 0h1v1h-1zM0 1h1v1H0zm1 0h1v1H1zm1 0h1v1H2zm1 0h1v1H3zm1 0h1v1H4z"/><path fill="#007071" d="M5 1h1v1H5zm1 0h1v1H6z"/><path fill="#f4f4e6" d="M7 1h1v1H7zm1 0h1v1H8zm1 0h1v1H9zm1 0h1v1h-1zm1 0h1v1h-1zm1 0h1v1h-1zm1 0h1v1h-1zm1 0h1v1h-1zm1 0h1v1h-1zm1 0h1v1h-1zm1 0h1v1h-1zm1 0h1v1h-1zm1 0h1v1h-1zm1 0h1v1h-1zm1 0h1v1h-1zm1 0h1v1h-1zm1 0h1v1h-1zM0 2h1v1H0zm1 0h1v1H1zm1 0h1v1H2zm1 0h1v1H3z"/><path fill="#007071" d="M4 2h1v1H4z"/><path fill="#00a837" d="M5 2h1v1H5z"/><path fill="#7cc623" d="M6 2h1v1H6z"/><path fill="#007071" d="M7 2h1v1H7z"/><path fill="#f4f4e6" d="M8 2h1v1H8zm1 0h1v1H9zm1 0h1v1h-1zm1 0h1v1h-1zm1 0h1v1h-1zm1 0h1v1h-1zm1 0h1v1h-1zm1 0h1v1h-1zm1 0h1v1h-1zm1 0h1v1h-1zm1 0h1v1h-1zm1 0h1v1h-1zm1 0h1v1h-1zm1 0h1v1h-1zm1 0h1v1h-1zm1 0h1v1h-1zM0 3h1v1H0zm1 0h1v1H1zm1 0h1v1H2z"/><path fill="#007071" d="M3 3h1v1H3z"/><path fill="#00a837" d="M4 3h1v1H4z"/><path fill="#7cc623" d="M5 3h1v1H5zm1 0h1v1H6zm1 0h1v1H7z"/><path fill="#007071" d="M8 3h1v1H8z"/><path fill="#f4f4e6" d="M9 3h1v1H9zm1 0h1v1h-1zm1 0h1v1h-1zm1 0h1v1h-1zm1 0h1v1h-1zm1 0h1v1h-1zm1 0h1v1h-1zm1 0h1v1h-1zm1 0h1v1h-1zm1 0h1v1h-1zm1 0h1v1h-1zm1 0h1v1h-1zm1 0h1v1h-1zm1 0h1v1h-1zm1 0h1v1h-1zM0 4h1v1H0zm1 0h1v1H1zm1 0h1v1H2z"/><path fill="#005982" d="M3 4h1v1H3z"/><path fill="#00a837" d="M4 4h1v1H4z"/><path fill="#7cc623" d="M5 4h1v1H5zm1 0h1v1H6zm1 0h1v1H7z"/><path fill="#015557" d="M8 4h1v1H8z"/><path fill="#f4f4e6" d="M9 4h1v1H9zm1 0h1v1h-1zm1 0h1v1h-1zm1 0h1v1h-1zm1 0h1v1h-1zm1 0h1v1h-1zm1 0h1v1h-1zm1 0h1v1h-1zm1 0h1v1h-1zm1 0h1v1h-1zm1 0h1v1h-1zm1 0h1v1h-1zm1 0h1v1h-1zm1 0h1v1h-1zm1 0h1v1h-1zM0 5h1v1H0zm1 0h1v1H1z"/><path fill="#005982" d="M2 5h1v1H2z"/><path fill="#00a837" d="M3 5h1v1H3z"/><path fill="#00837f" d="M4 5h1v1H4z"/><path fill="#00a837" d="M5 5h1v1H5zm1 0h1v1H6z"/><path fill="#00837f" d="M7 5h1v1H7z"/><path fill="#7cc623" d="M8 5h1v1H8z"/><path fill="#015557" d="M9 5h1v1H9z"/><path fill="#f4f4e6" d="M10 5h1v1h-1zm1 0h1v1h-1zm1 0h1v1h-1zm1 0h1v1h-1zm1 0h1v1h-1zm1 0h1v1h-1zm1 0h1v1h-1z"/><path fill="#007071" d="M17 5h1v1h-1zm1 0h1v1h-1z"/><path fill="#f4f4e6" d="M19 5h1v1h-1zm1 0h1v1h-1zm1 0h1v1h-1zm1 0h1v1h-1zm1 0h1v1h-1zM0 6h1v1H0zm1 0h1v1H1z"/><path fill="#005982" d="M2 6h1v1H2z"/><path fill="#00a837" d="M3 6h1v1H3z"/><path fill="#7cc623" d="M4 6h1v1H4zm1 0h1v1H5zm1 0h1v1H6zm1 0h1v1H7zm1 0h1v1H8z"/><path fill="#015557" d="M9 6h1v1H9z"/><path fill="#f4f4e6" d="M10 6h1v1h-1zm1 0h1v1h-1zm1 0h1v1h-1zm1 0h1v1h-1zm1 0h1v1h-1zm1 0h1v1h-1z"/><path fill="#007071" d="M16 6h1v1h-1z"/><path fill="#00a837" d="M17 6h1v1h-1z"/><path fill="#7cc623" d="M18 6h1v1h-1z"/><path fill="#007071" d="M19 6h1v1h-1z"/><path fill="#f4f4e6" d="M20 6h1v1h-1zm1 0h1v1h-1zm1 0h1v1h-1zm1 0h1v1h-1zM0 7h1v1H0z"/><path fill="#005982" d="M1 7h1v1H1zm1 0h1v1H2zm1 0h1v1H3z"/><path fill="#00a837" d="M4 7h1v1H4z"/><path fill="#7cc623" d="M5 7h1v1H5zm1 0h1v1H6zm1 0h1v1H7z"/><path fill="#00837f" d="M8 7h1v1H8zm1 0h1v1H9z"/><path fill="#015557" d="M10 7h1v1h-1z"/><path fill="#f4f4e6" d="M11 7h1v1h-1zm1 0h1v1h-1zm1 0h1v1h-1zm1 0h1v1h-1z"/><path fill="#007071" d="M15 7h1v1h-1z"/><path fill="#00a837" d="M16 7h1v1h-1z"/><path fill="#7cc623" d="M17 7h1v1h-1zm1 0h1v1h-1zm1 0h1v1h-1z"/><path fill="#007071" d="M20 7h1v1h-1z"/><path fill="#f4f4e6" d="M21 7h1v1h-1zm1 0h1v1h-1zm1 0h1v1h-1zM0 8h1v1H0z"/><path fill="#005982" d="M1 8h1v1H1z"/><path fill="#00a837" d="M2 8h1v1H2zm1 0h1v1H3z"/><path fill="#005982" d="M4 8h1v1H4zm1 0h1v1H5z"/><path fill="#007f9c" d="M6 8h1v1H6z"/><path fill="#00837f" d="M7 8h1v1H7z"/><path fill="#7cc623" d="M8 8h1v1H8zm1 0h1v1H9z"/><path fill="#015557" d="M10 8h1v1h-1z"/><path fill="#f4f4e6" d="M11 8h1v1h-1zm1 0h1v1h-1zm1 0h1v1h-1zm1 0h1v1h-1z"/><path fill="#005982" d="M15 8h1v1h-1z"/><path fill="#00a837" d="M16 8h1v1h-1z"/><path fill="#7cc623" d="M17 8h1v1h-1zm1 0h1v1h-1zm1 0h1v1h-1z"/><path fill="#015557" d="M20 8h1v1h-1z"/><path fill="#f4f4e6" d="M21 8h1v1h-1zm1 0h1v1h-1zm1 0h1v1h-1zM0 9h1v1H0z"/><path fill="#005982" d="M1 9h1v1H1z"/><path fill="#00a837" d="M2 9h1v1H2zm1 0h1v1H3zm1 0h1v1H4z"/><path fill="#7cc623" d="M5 9h1v1H5zm1 0h1v1H6zm1 0h1v1H7zm1 0h1v1H8z"/><path fill="#00a837" d="M9 9h1v1H9z"/><path fill="#015557" d="M10 9h1v1h-1z"/><path fill="#007071" d="M11 9h1v1h-1zm1 0h1v1h-1z"/><path fill="#f4f4e6" d="M13 9h1v1h-1z"/><path fill="#005982" d="M14 9h1v1h-1z"/><path fill="#00a837" d="M15 9h1v1h-1z"/><path fill="#00837f" d="M16 9h1v1h-1z"/><path fill="#00a837" d="M17 9h1v1h-1zm1 0h1v1h-1z"/><path fill="#00837f" d="M19 9h1v1h-1z"/><path fill="#7cc623" d="M20 9h1v1h-1z"/><path fill="#015557" d="M21 9h1v1h-1z"/><path fill="#f4f4e6" d="M22 9h1v1h-1zm1 0h1v1h-1zM0 10h1v1H0zm1 0h1v1H1z"/><path fill="#005982" d="M2 10h1v1H2zm1 0h1v1H3z"/><path fill="#00a837" d="M4 10h1v1H4zm1 0h1v1H5z"/><path fill="#7cc623" d="M6 10h1v1H6zm1 0h1v1H7z"/><path fill="#015557" d="M8 10h1v1H8zm1 0h1v1H9z"/><path fill="#007071" d="M10 10h1v1h-1z"/><path fill="#00a837" d="M11 10h1v1h-1z"/><path fill="#7cc623" d="M12 10h1v1h-1z"/><path fill="#007071" d="M13 10h1v1h-1z"/><path fill="#005982" d="M14 10h1v1h-1z"/><path fill="#00a837" d="M15 10h1v1h-1z"/><path fill="#7cc623" d="M16 10h1v1h-1zm1 0h1v1h-1zm1 0h1v1h-1zm1 0h1v1h-1zm1 0h1v1h-1z"/><path fill="#015557" d="M21 10h1v1h-1z"/><path fill="#f4f4e6" d="M22 10h1v1h-1zm1 0h1v1h-1zM0 11h1v1H0z"/><path fill="#93d4e0" d="M1 11h1v1H1z"/><path fill="#4bb8eb" d="M2 11h1v1H2z"/><path fill="#425599" d="M3 11h1v1H3z"/><path fill="#005982" d="M4 11h1v1H4z"/><path fill="#be7332" d="M5 11h1v1H5zm1 0h1v1H6z"/><path fill="#015557" d="M7 11h1v1H7z"/><path fill="#425599" d="M8 11h1v1H8z"/><path fill="#007071" d="M9 11h1v1H9z"/><path fill="#00a837" d="M10 11h1v1h-1z"/><path fill="#7cc623" d="M11 11h1v1h-1zm1 0h1v1h-1zm1 0h1v1h-1z"/><path fill="#007071" d="M14 11h1v1h-1z"/><path fill="#005982" d="M15 11h1v1h-1z"/><path fill="#00a837" d="M16 11h1v1h-1z"/><path fill="#7cc623" d="M17 11h1v1h-1zm1 0h1v1h-1zm1 0h1v1h-1z"/><path fill="#00837f" d="M20 11h1v1h-1zm1 0h1v1h-1z"/><path fill="#015557" d="M22 11h1v1h-1z"/><path fill="#f4f4e6" d="M23 11h1v1h-1zM0 12h1v1H0z"/><path fill="#4bb8eb" d="M1 12h1v1H1zm1 0h1v1H2zm1 0h1v1H3z"/><path fill="#7b8ed3" d="M4 12h1v1H4zm1 0h1v1H5zm1 0h1v1H6zm1 0h1v1H7z"/><path fill="#4bb8eb" d="M8 12h1v1H8z"/><path fill="#005982" d="M9 12h1v1H9z"/><path fill="#00a837" d="M10 12h1v1h-1z"/><path fill="#7cc623" d="M11 12h1v1h-1zm1 0h1v1h-1zm1 0h1v1h-1z"/><path fill="#015557" d="M14 12h1v1h-1z"/><path fill="#00a837" d="M15 12h1v1h-1z"/><path fill="#005982" d="M16 12h1v1h-1zm1 0h1v1h-1z"/><path fill="#007f9c" d="M18 12h1v1h-1z"/><path fill="#00837f" d="M19 12h1v1h-1z"/><path fill="#7cc623" d="M20 12h1v1h-1zm1 0h1v1h-1z"/><path fill="#015557" d="M22 12h1v1h-1z"/><path fill="#f4f4e6" d="M23 12h1v1h-1zM0 13h1v1H0z"/><path fill="#93d4e0" d="M1 13h1v1H1z"/><path fill="#4bb8eb" d="M2 13h1v1H2zm1 0h1v1H3zm1 0h1v1H4zm1 0h1v1H5zm1 0h1v1H6zm1 0h1v1H7z"/><path fill="#005982" d="M8 13h1v1H8z"/><path fill="#00a837" d="M9 13h1v1H9z"/><path fill="#00837f" d="M10 13h1v1h-1z"/><path fill="#00a837" d="M11 13h1v1h-1zm1 0h1v1h-1z"/><path fill="#00837f" d="M13 13h1v1h-1z"/><path fill="#7cc623" d="M14 13h1v1h-1z"/><path fill="#015557" d="M15 13h1v1h-1z"/><path fill="#00a837" d="M16 13h1v1h-1z"/><path fill="#7cc623" d="M17 13h1v1h-1zm1 0h1v1h-1zm1 0h1v1h-1zm1 0h1v1h-1z"/><path fill="#00a837" d="M21 13h1v1h-1z"/><path fill="#015557" d="M22 13h1v1h-1z"/><path fill="#f4f4e6" d="M23 13h1v1h-1zM0 14h1v1H0zm1 0h1v1H1zm1 0h1v1H2z"/><path fill="#93d4e0" d="M3 14h1v1H3z"/><path fill="#4bb8eb" d="M4 14h1v1H4zm1 0h1v1H5zm1 0h1v1H6zm1 0h1v1H7z"/><path fill="#005982" d="M8 14h1v1H8z"/><path fill="#00a837" d="M9 14h1v1H9z"/><path fill="#7cc623" d="M10 14h1v1h-1zm1 0h1v1h-1zm1 0h1v1h-1zm1 0h1v1h-1zm1 0h1v1h-1z"/><path fill="#015557" d="M15 14h1v1h-1z"/><path fill="#00a837" d="M16 14h1v1h-1zm1 0h1v1h-1z"/><path fill="#7cc623" d="M18 14h1v1h-1zm1 0h1v1h-1z"/><path fill="#015557" d="M20 14h1v1h-1zm1 0h1v1h-1z"/><path fill="#f4f4e6" d="M22 14h1v1h-1zm1 0h1v1h-1zM0 15h1v1H0zm1 0h1v1H1zm1 0h1v1H2zm1 0h1v1H3zm1 0h1v1H4zm1 0h1v1H5z"/><path fill="#93d4e0" d="M6 15h1v1H6z"/><path fill="#005982" d="M7 15h1v1H7zm1 0h1v1H8zm1 0h1v1H9z"/><path fill="#00a837" d="M10 15h1v1h-1z"/><path fill="#7cc623" d="M11 15h1v1h-1zm1 0h1v1h-1zm1 0h1v1h-1z"/><path fill="#00837f" d="M14 15h1v1h-1zm1 0h1v1h-1z"/><path fill="#015557" d="M16 15h1v1h-1z"/><path fill="#be7332" d="M17 15h1v1h-1zm1 0h1v1h-1z"/><path fill="#015557" d="M19 15h1v1h-1z"/><path fill="#425599" d="M20 15h1v1h-1z"/><path fill="#4bb8eb" d="M21 15h1v1h-1z"/><path fill="#93d4e0" d="M22 15h1v1h-1z"/><path fill="#f4f4e6" d="M23 15h1v1h-1zM0 16h1v1H0zm1 0h1v1H1zm1 0h1v1H2zm1 0h1v1H3zm1 0h1v1H4zm1 0h1v1H5z"/><path fill="#93d4e0" d="M6 16h1v1H6z"/><path fill="#005982" d="M7 16h1v1H7z"/><path fill="#00a837" d="M8 16h1v1H8zm1 0h1v1H9z"/><path fill="#005982" d="M10 16h1v1h-1zm1 0h1v1h-1z"/><path fill="#007f9c" d="M12 16h1v1h-1z"/><path fill="#00837f" d="M13 16h1v1h-1z"/><path fill="#7cc623" d="M14 16h1v1h-1zm1 0h1v1h-1z"/><path fill="#015557" d="M16 16h1v1h-1z"/><path fill="#7b8ed3" d="M17 16h1v1h-1zm1 0h1v1h-1zm1 0h1v1h-1z"/><path fill="#4bb8eb" d="M20 16h1v1h-1zm1 0h1v1h-1zm1 0h1v1h-1z"/><path fill="#f4f4e6" d="M23 16h1v1h-1zM0 17h1v1H0zm1 0h1v1H1zm1 0h1v1H2zm1 0h1v1H3zm1 0h1v1H4zm1 0h1v1H5z"/><path fill="#93d4e0" d="M6 17h1v1H6z"/><path fill="#005982" d="M7 17h1v1H7z"/><path fill="#00a837" d="M8 17h1v1H8zm1 0h1v1H9zm1 0h1v1h-1z"/><path fill="#7cc623" d="M11 17h1v1h-1zm1 0h1v1h-1zm1 0h1v1h-1zm1 0h1v1h-1z"/><path fill="#00a837" d="M15 17h1v1h-1z"/><path fill="#015557" d="M16 17h1v1h-1z"/><path fill="#4bb8eb" d="M17 17h1v1h-1zm1 0h1v1h-1zm1 0h1v1h-1zm1 0h1v1h-1zm1 0h1v1h-1z"/><path fill="#93d4e0" d="M22 17h1v1h-1z"/><path fill="#f4f4e6" d="M23 17h1v1h-1zM0 18h1v1H0zm1 0h1v1H1zm1 0h1v1H2zm1 0h1v1H3zm1 0h1v1H4zm1 0h1v1H5z"/><path fill="#93d4e0" d="M6 18h1v1H6z"/><path fill="#4bb8eb" d="M7 18h1v1H7z"/><path fill="#005982" d="M8 18h1v1H8zm1 0h1v1H9z"/><path fill="#00a837" d="M10 18h1v1h-1zm1 0h1v1h-1z"/><path fill="#7cc623" d="M12 18h1v1h-1zm1 0h1v1h-1z"/><path fill="#015557" d="M14 18h1v1h-1zm1 0h1v1h-1z"/><path fill="#4bb8eb" d="M16 18h1v1h-1zm1 0h1v1h-1zm1 0h1v1h-1zm1 0h1v1h-1z"/><path fill="#93d4e0" d="M20 18h1v1h-1z"/><path fill="#f4f4e6" d="M21 18h1v1h-1zm1 0h1v1h-1zm1 0h1v1h-1zM0 19h1v1H0zm1 0h1v1H1zm1 0h1v1H2zm1 0h1v1H3zm1 0h1v1H4zm1 0h1v1H5zm1 0h1v1H6z"/><path fill="#93d4e0" d="M7 19h1v1H7z"/><path fill="#4bb8eb" d="M8 19h1v1H8z"/><path fill="#425599" d="M9 19h1v1H9z"/><path fill="#005982" d="M10 19h1v1h-1z"/><path fill="#be7332" d="M11 19h1v1h-1zm1 0h1v1h-1z"/><path fill="#015557" d="M13 19h1v1h-1z"/><path fill="#425599" d="M14 19h1v1h-1z"/><path fill="#4bb8eb" d="M15 19h1v1h-1z"/><path fill="#93d4e0" d="M16 19h1v1h-1z"/><path fill="#f4f4e6" d="M17 19h1v1h-1zm1 0h1v1h-1zm1 0h1v1h-1zm1 0h1v1h-1zm1 0h1v1h-1zm1 0h1v1h-1zm1 0h1v1h-1zM0 20h1v1H0zm1 0h1v1H1zm1 0h1v1H2zm1 0h1v1H3zm1 0h1v1H4zm1 0h1v1H5zm1 0h1v1H6z"/><path fill="#4bb8eb" d="M7 20h1v1H7zm1 0h1v1H8zm1 0h1v1H9z"/><path fill="#7b8ed3" d="M10 20h1v1h-1zm1 0h1v1h-1zm1 0h1v1h-1zm1 0h1v1h-1z"/><path fill="#4bb8eb" d="M14 20h1v1h-1zm1 0h1v1h-1zm1 0h1v1h-1z"/><path fill="#f4f4e6" d="M17 20h1v1h-1zm1 0h1v1h-1zm1 0h1v1h-1zm1 0h1v1h-1zm1 0h1v1h-1zm1 0h1v1h-1zm1 0h1v1h-1zM0 21h1v1H0zm1 0h1v1H1zm1 0h1v1H2zm1 0h1v1H3zm1 0h1v1H4zm1 0h1v1H5zm1 0h1v1H6z"/><path fill="#93d4e0" d="M7 21h1v1H7z"/><path fill="#4bb8eb" d="M8 21h1v1H8zm1 0h1v1H9zm1 0h1v1h-1zm1 0h1v1h-1zm1 0h1v1h-1zm1 0h1v1h-1zm1 0h1v1h-1zm1 0h1v1h-1z"/><path fill="#93d4e0" d="M16 21h1v1h-1z"/><path fill="#f4f4e6" d="M17 21h1v1h-1zm1 0h1v1h-1zm1 0h1v1h-1zm1 0h1v1h-1zm1 0h1v1h-1zm1 0h1v1h-1zm1 0h1v1h-1zM0 22h1v1H0zm1 0h1v1H1zm1 0h1v1H2zm1 0h1v1H3zm1 0h1v1H4zm1 0h1v1H5zm1 0h1v1H6zm1 0h1v1H7zm1 0h1v1H8z"/><path fill="#93d4e0" d="M9 22h1v1H9z"/><path fill="#4bb8eb" d="M10 22h1v1h-1zm1 0h1v1h-1zm1 0h1v1h-1zm1 0h1v1h-1z"/><path fill="#93d4e0" d="M14 22h1v1h-1z"/><path fill="#f4f4e6" d="M15 22h1v1h-1zm1 0h1v1h-1zm1 0h1v1h-1zm1 0h1v1h-1zm1 0h1v1h-1zm1 0h1v1h-1zm1 0h1v1h-1zm1 0h1v1h-1zm1 0h1v1h-1zM0 23h1v1H0zm1 0h1v1H1zm1 0h1v1H2zm1 0h1v1H3zm1 0h1v1H4zm1 0h1v1H5zm1 0h1v1H6zm1 0h1v1H7zm1 0h1v1H8zm1 0h1v1H9zm1 0h1v1h-1zm1 0h1v1h-1zm1 0h1v1h-1zm1 0h1v1h-1zm1 0h1v1h-1zm1 0h1v1h-1zm1 0h1v1h-1zm1 0h1v1h-1zm1 0h1v1h-1zm1 0h1v1h-1zm1 0h1v1h-1zm1 0h1v1h-1zm1 0h1v1h-1zm1 0h1v1h-1z"/></svg>