<svg xmlns="http://www.w3.org/2000/svg" width="24" height="24" shape-rendering="crispEdges"><path fill="#f4f4e6" d="M0 0h1v1H0zm1 0h1v1H1zm1 0h1v1H2zm1 0h1v1H3zm1 0h1v1H4zm1 0h1v1H5zm1 0h1v1H6zm1 0h1v1H7zm1 0h1v1H8zm1 0h1v1H9zm1 0h1v1h-1zm1 0h1v1h-1zm1 0h1v1h-1zm1 0h1v1h-1zm1 0h1v1h-1zm1 0h1v1h-1zm1 0h1v1h-1zm1 0h1v1h-1zm1 0h1v1h-1zm1 0h1v1h-1zm1 0h1v1h-1zm1 0h1v1h-1zm1 0h1v1h-1z"/><path fill="#f6f6de" d="M23 0h1v1h-1z"/><path fill="#f4f4e6" d="M0 1h1v1H0zm1 0h1v1H1zm1 0h1v1H2zm1 0h1v1H3zm1 0h1v1H4zm1 0h1v1H5zm1 0h1v1H6zm1 0h1v1H7zm1 0h1v1H8zm1 0h1v1H9zm1 0h1v1h-1zm1 0h1v1h-1zm1 0h1v1h-1zm1 0h1v1h-1zm1 0h1v1h-1zm1 0h1v1h-1zm1 0h1v1h-1zm1 0h1v1h-1zm1 0h1v1h-1zm1 0h1v1h-1zm1 0h1v1h-1zm1 0h1v1h-1zm1 0h1v1h-1zm1 0h1v1h-1zM0 2h1v1H0zm1 0h1v1H1zm1 0h1v1H2zm1 0h1v1H3zm1 0h1v1H4zm1 0h1v1H5zm1 0h1v1H6zm1 0h1v1H7zm1 0h1v1H8zm1 0h1v1H9zm1 0h1v1h-1zm1 0h1v1h-1zm1 0h1v1h-1zm1 0h1v1h-1zm1 0h1v1h-1zm1 0h1v1h-1zm1 0h1v1h-1zm1 0h1v1h-1zm1 0h1v1h-1zm1 0h1v1h-1zm1 0h1v1h-1zm1 0h1v1h-1zm1 0h1v1h-1z"/><path fill="#f6f6de" d="M23 2h1v1h-1z"/><path fill="#f4f4e6" d="M0 3h1v1H0zm1 0h1v1H1zm1 0h1v1H2zm1 0h1v1H3zm1 0h1v1H4zm1 0h1v1H5zm1 0h1v1H6zm1 0h1v1H7z"/><path fill="#2e3542" d="M8 3h1v1H8zm1 0h1v1H9z"/><path fill="#f4f4e6" d="M10 3h1v1h-1zm1 0h1v1h-1zm1 0h1v1h-1zm1 0h1v1h-1z"/><path fill="#2e3542" d="M14 3h1v1h-1zm1 0h1v1h-1zm1 0h1v1h-1zm1 0h1v1h-1z"/><path fill="#f4f4e6" d="M18 3h1v1h-1zm1 0h1v1h-1zm1 0h1v1h-1zm1 0h1v1h-1zm1 0h1v1h-1zm1 0h1v1h-1zM0 4h1v1H0zm1 0h1v1H1zm1 0h1v1H2zm1 0h1v1H3zm1 0h1v1H4zm1 0h1v1H5z"/><path fill="#93d4e0" d="M6 4h1v1H6z"/><path fill="#2e3542" d="M7 4h1v1H7z"/><path fill="#bdc4d0" d="M8 4h1v1H8zm1 0h1v1H9z"/><path fill="#2e3542" d="M10 4h1v1h-1z"/><path fill="#93d4e0" d="M11 4h1v1h-1zm1 0h1v1h-1z"/><path fill="#2e3542" d="M13 4h1v1h-1z"/><path fill="#9da9be" d="M14 4h1v1h-1z"/><path fill="#bdc4d0" d="M15 4h1v1h-1z"/><path fill="#8492ab" d="M16 4h1v1h-1zm1 0h1v1h-1z"/><path fill="#2e3542" d="M18 4h1v1h-1z"/><path fill="#f4f4e6" d="M19 4h1v1h-1zm1 0h1v1h-1zm1 0h1v1h-1zm1 0h1v1h-1z"/><path fill="#f6f6de" d="M23 4h1v1h-1z"/><path fill="#f4f4e6" d="M0 5h1v1H0zm1 0h1v1H1zm1 0h1v1H2zm1 0h1v1H3z"/><path fill="#93d4e0" d="M4 5h1v1H4z"/><path fill="#2e3542" d="M5 5h1v1H5zm1 0h1v1H6z"/><path fill="#bdc4d0" d="M7 5h1v1H7z"/><path fill="#414854" d="M8 5h1v1H8z"/><path fill="#8492ab" d="M9 5h1v1H9z"/><path fill="#2e3542" d="M10 5h1v1h-1zm1 0h1v1h-1zm1 0h1v1h-1z"/><path fill="#8492ab" d="M13 5h1v1h-1z"/><path fill="#5b6577" d="M14 5h1v1h-1z"/><path fill="#2e3542" d="M15 5h1v1h-1zm1 0h1v1h-1z"/><path fill="#8492ab" d="M17 5h1v1h-1z"/><path fill="#2e3542" d="M18 5h1v1h-1z"/><path fill="#f4f4e6" d="M19 5h1v1h-1zm1 0h1v1h-1zm1 0h1v1h-1zm1 0h1v1h-1zm1 0h1v1h-1zM0 6h1v1H0zm1 0h1v1H1zm1 0h1v1H2zm1 0h1v1H3z"/><path fill="#2e3542" d="M4 6h1v1H4z"/><path fill="#8492ab" d="M5 6h1v1H5zm1 0h1v1H6z"/><path fill="#2e3542" d="M7 6h1v1H7z"/><path fill="#5b6577" d="M8 6h1v1H8z"/><path fill="#414854" d="M9 6h1v1H9z"/><path fill="#8492ab" d="M10 6h1v1h-1zm1 0h1v1h-1zm1 0h1v1h-1z"/><path fill="#5b6577" d="M13 6h1v1h-1z"/><path fill="#2e3542" d="M14 6h1v1h-1zm1 0h1v1h-1z"/><path d="M16 6h1v1h-1z"/><path fill="#8492ab" d="M17 6h1v1h-1z"/><path fill="#414854" d="M18 6h1v1h-1z"/><path fill="#f4f4e6" d="M19 6h1v1h-1zm1 0h1v1h-1zm1 0h1v1h-1zm1 0h1v1h-1z"/><path fill="#f6f6de" d="M23 6h1v1h-1z"/><path fill="#f4f4e6" d="M0 7h1v1H0zm1 0h1v1H1zm1 0h1v1H2z"/><path fill="#93d4e0" d="M3 7h1v1H3z"/><path fill="#2e3542" d="M4 7h1v1H4z"/><path fill="#8492ab" d="M5 7h1v1H5z"/><path fill="#2e3542" d="M6 7h1v1H6z"/><path fill="#5b6577" d="M7 7h1v1H7zm1 0h1v1H8zm1 0h1v1H9z"/><path fill="#414854" d="M10 7h1v1h-1z"/><path fill="#2e3542" d="M11 7h1v1h-1zm1 0h1v1h-1zm1 0h1v1h-1zm1 0h1v1h-1z"/><path fill="#5b6577" d="M15 7h1v1h-1zm1 0h1v1h-1zm1 0h1v1h-1z"/><path fill="#414854" d="M18 7h1v1h-1z"/><path fill="#93d4e0" d="M19 7h1v1h-1z"/><path fill="#f4f4e6" d="M20 7h1v1h-1zm1 0h1v1h-1zm1 0h1v1h-1zm1 0h1v1h-1zM0 8h1v1H0zm1 0h1v1H1zm1 0h1v1H2z"/><path fill="#39afbd" d="M3 8h1v1H3z"/><path fill="#2e3542" d="M4 8h1v1H4z"/><path fill="#414854" d="M5 8h1v1H5z"/><path d="M6 8h1v1H6z"/><path fill="#5b6577" d="M7 8h1v1H7zm1 0h1v1H8zm1 0h1v1H9zm1 0h1v1h-1z"/><path fill="#414854" d="M11 8h1v1h-1zm1 0h1v1h-1z"/><path fill="#2e3542" d="M13 8h1v1h-1z"/><path fill="#8492ab" d="M14 8h1v1h-1z"/><path fill="#9da9be" d="M15 8h1v1h-1z"/><path fill="#8492ab" d="M16 8h1v1h-1z"/><path fill="#5b6577" d="M17 8h1v1h-1z"/><path fill="#414854" d="M18 8h1v1h-1z"/><path fill="#5b6577" d="M19 8h1v1h-1z"/><path fill="#f4f4e6" d="M20 8h1v1h-1zm1 0h1v1h-1zm1 0h1v1h-1z"/><path fill="#f6f6de" d="M23 8h1v1h-1z"/><path fill="#f4f4e6" d="M0 9h1v1H0zm1 0h1v1H1z"/><path fill="#39afbd" d="M2 9h1v1H2z"/><path fill="#5b6577" d="M3 9h1v1H3z"/><path fill="#2e3542" d="M4 9h1v1H4z"/><path fill="#414854" d="M5 9h1v1H5z"/><path d="M6 9h1v1H6z"/><path fill="#2e3542" d="M7 9h1v1H7z"/><path fill="#5b6577" d="M8 9h1v1H8zm1 0h1v1H9zm1 0h1v1h-1zm1 0h1v1h-1z"/><path fill="#414854" d="M12 9h1v1h-1z"/><path fill="#5b6577" d="M13 9h1v1h-1z"/><path fill="#9da9be" d="M14 9h1v1h-1zm1 0h1v1h-1z"/><path fill="#8492ab" d="M16 9h1v1h-1z"/><path fill="#2e3542" d="M17 9h1v1h-1z"/><path fill="#414854" d="M18 9h1v1h-1z"/><path fill="#8492ab" d="M19 9h1v1h-1z"/><path fill="#5b6577" d="M20 9h1v1h-1z"/><path fill="#f4f4e6" d="M21 9h1v1h-1zm1 0h1v1h-1zm1 0h1v1h-1zM0 10h1v1H0zm1 0h1v1H1z"/><path fill="#5b6577" d="M2 10h1v1H2z"/><path fill="#8492ab" d="M3 10h1v1H3z"/><path fill="#2e3542" d="M4 10h1v1H4z"/><path fill="#8492ab" d="M5 10h1v1H5z"/><path d="M6 10h1v1H6z"/><path fill="#2e3542" d="M7 10h1v1H7zm1 0h1v1H8zm1 0h1v1H9zm1 0h1v1h-1zm1 0h1v1h-1zm1 0h1v1h-1zm1 0h1v1h-1z"/><path fill="#5b6577" d="M14 10h1v1h-1zm1 0h1v1h-1z"/><path fill="#2e3542" d="M16 10h1v1h-1z"/><path fill="#8492ab" d="M17 10h1v1h-1z"/><path fill="#414854" d="M18 10h1v1h-1z"/><path fill="#8492ab" d="M19 10h1v1h-1z"/><path fill="#2e3542" d="M20 10h1v1h-1z"/><path fill="#f4f4e6" d="M21 10h1v1h-1zm1 0h1v1h-1z"/><path fill="#f6f6de" d="M23 10h1v1h-1z"/><path fill="#f4f4e6" d="M0 11h1v1H0z"/><path fill="#5b6577" d="M1 11h1v1H1z"/><path fill="#bdc4d0" d="M2 11h1v1H2z"/><path fill="#8492ab" d="M3 11h1v1H3z"/><path fill="#2e3542" d="M4 11h1v1H4z"/><path fill="#5b6577" d="M5 11h1v1H5z"/><path d="M6 11h1v1H6z"/><path fill="#2e3542" d="M7 11h1v1H7z"/><path fill="#5b6577" d="M8 11h1v1H8zm1 0h1v1H9zm1 0h1v1h-1zm1 0h1v1h-1zm1 0h1v1h-1z"/><path fill="#414854" d="M13 11h1v1h-1z"/><path fill="#2e3542" d="M14 11h1v1h-1zm1 0h1v1h-1z"/><path d="M16 11h1v1h-1z"/><path fill="#8492ab" d="M17 11h1v1h-1z"/><path fill="#414854" d="M18 11h1v1h-1z"/><path fill="#2e3542" d="M19 11h1v1h-1z"/><path fill="#93d4e0" d="M20 11h1v1h-1z"/><path fill="#f4f4e6" d="M21 11h1v1h-1zm1 0h1v1h-1zm1 0h1v1h-1zM0 12h1v1H0z"/><path fill="#5b6577" d="M1 12h1v1H1z"/><path fill="#bdc4d0" d="M2 12h1v1H2z"/><path fill="#8492ab" d="M3 12h1v1H3z"/><path fill="#2e3542" d="M4 12h1v1H4z"/><path fill="#8492ab" d="M5 12h1v1H5z"/><path d="M6 12h1v1H6z"/><path fill="#2e3542" d="M7 12h1v1H7z"/><path fill="#5b6577" d="M8 12h1v1H8zm1 0h1v1H9zm1 0h1v1h-1zm1 0h1v1h-1zm1 0h1v1h-1z"/><path fill="#2e3542" d="M13 12h1v1h-1z"/><path fill="#9da9be" d="M14 12h1v1h-1z"/><path fill="#8492ab" d="M15 12h1v1h-1z"/><path fill="#2e3542" d="M16 12h1v1h-1z"/><path fill="#8492ab" d="M17 12h1v1h-1z"/><path fill="#414854" d="M18 12h1v1h-1z"/><path fill="#8492ab" d="M19 12h1v1h-1z"/><path fill="#f4f4e6" d="M20 12h1v1h-1zm1 0h1v1h-1zm1 0h1v1h-1z"/><path fill="#f6f6de" d="M23 12h1v1h-1z"/><path fill="#f4f4e6" d="M0 13h1v1H0z"/><path fill="#2e3542" d="M1 13h1v1H1z"/><path fill="#5b6577" d="M2 13h1v1H2zm1 0h1v1H3z"/><path fill="#2e3542" d="M4 13h1v1H4z"/><path fill="#8492ab" d="M5 13h1v1H5z"/><path d="M6 13h1v1H6z"/><path fill="#2e3542" d="M7 13h1v1H7z"/><path fill="#5b6577" d="M8 13h1v1H8zm1 0h1v1H9zm1 0h1v1h-1zm1 0h1v1h-1zm1 0h1v1h-1zm1 0h1v1h-1zm1 0h1v1h-1z"/><path fill="#2e3542" d="M15 13h1v1h-1zm1 0h1v1h-1z"/><path fill="#8492ab" d="M17 13h1v1h-1zm1 0h1v1h-1z"/><path fill="#bdc4d0" d="M19 13h1v1h-1z"/><path fill="#39afbd" d="M20 13h1v1h-1z"/><path fill="#f4f4e6" d="M21 13h1v1h-1zm1 0h1v1h-1zm1 0h1v1h-1zM0 14h1v1H0z"/><path fill="#93d4e0" d="M1 14h1v1H1z"/><path fill="#2e3542" d="M2 14h1v1H2zm1 0h1v1H3zm1 0h1v1H4z"/><path fill="#8492ab" d="M5 14h1v1H5z"/><path d="M6 14h1v1H6z"/><path fill="#2e3542" d="M7 14h1v1H7z"/><path fill="#5b6577" d="M8 14h1v1H8zm1 0h1v1H9zm1 0h1v1h-1zm1 0h1v1h-1zm1 0h1v1h-1zm1 0h1v1h-1zm1 0h1v1h-1zm1 0h1v1h-1zm1 0h1v1h-1zm1 0h1v1h-1zm1 0h1v1h-1z"/><path fill="#8492ab" d="M19 14h1v1h-1z"/><path fill="#5b6577" d="M20 14h1v1h-1z"/><path fill="#f4f4e6" d="M21 14h1v1h-1zm1 0h1v1h-1z"/><path fill="#f6f6de" d="M23 14h1v1h-1z"/><path fill="#f4f4e6" d="M0 15h1v1H0zm1 0h1v1H1z"/><path fill="#39afbd" d="M2 15h1v1H2z"/><path fill="#5b6577" d="M3 15h1v1H3z"/><path fill="#2e3542" d="M4 15h1v1H4z"/><path fill="#8492ab" d="M5 15h1v1H5z"/><path d="M6 15h1v1H6zm1 0h1v1H7zm1 0h1v1H8z"/><path fill="#5b6577" d="M9 15h1v1H9zm1 0h1v1h-1zm1 0h1v1h-1z"/><path d="M12 15h1v1h-1zm1 0h1v1h-1z"/><path fill="#5b6577" d="M14 15h1v1h-1zm1 0h1v1h-1z"/><path fill="#414854" d="M16 15h1v1h-1zm1 0h1v1h-1zm1 0h1v1h-1z"/><path fill="#2e3542" d="M19 15h1v1h-1z"/><path fill="#39afbd" d="M20 15h1v1h-1z"/><path fill="#f4f4e6" d="M21 15h1v1h-1zm1 0h1v1h-1zm1 0h1v1h-1zM0 16h1v1H0zm1 0h1v1H1z"/><path fill="#93d4e0" d="M2 16h1v1H2z"/><path fill="#5b6577" d="M3 16h1v1H3z"/><path fill="#2e3542" d="M4 16h1v1H4z"/><path fill="#8492ab" d="M5 16h1v1H5z"/><path fill="#9da9be" d="M6 16h1v1H6z"/><path fill="#bdc4d0" d="M7 16h1v1H7z"/><path fill="#9da9be" d="M8 16h1v1H8z"/><path d="M9 16h1v1H9z"/><path fill="#414854" d="M10 16h1v1h-1z"/><path d="M11 16h1v1h-1z"/><path fill="#5b6577" d="M12 16h1v1h-1z"/><path fill="#8492ab" d="M13 16h1v1h-1z"/><path fill="#414854" d="M14 16h1v1h-1zm1 0h1v1h-1z"/><path d="M16 16h1v1h-1z"/><path fill="#5b6577" d="M17 16h1v1h-1z"/><path fill="#414854" d="M18 16h1v1h-1z"/><path fill="#39afbd" d="M19 16h1v1h-1z"/><path fill="#93d4e0" d="M20 16h1v1h-1z"/><path fill="#f4f4e6" d="M21 16h1v1h-1zm1 0h1v1h-1z"/><path fill="#f6f6de" d="M23 16h1v1h-1z"/><path fill="#f4f4e6" d="M0 17h1v1H0z"/><path fill="#93d4e0" d="M1 17h1v1H1z"/><path fill="#39afbd" d="M2 17h1v1H2z"/><path fill="#8492ab" d="M3 17h1v1H3z"/><path fill="#2e3542" d="M4 17h1v1H4z"/><path fill="#5b6577" d="M5 17h1v1H5z"/><path fill="#8492ab" d="M6 17h1v1H6z"/><path d="M7 17h1v1H7zm1 0h1v1H8z"/><path fill="#8492ab" d="M9 17h1v1H9z"/><path fill="#414854" d="M10 17h1v1h-1z"/><path d="M11 17h1v1h-1z"/><path fill="#5b6577" d="M12 17h1v1h-1z"/><path fill="#8492ab" d="M13 17h1v1h-1z"/><path fill="#414854" d="M14 17h1v1h-1zm1 0h1v1h-1z"/><path fill="#8492ab" d="M16 17h1v1h-1z"/><path fill="#5b6577" d="M17 17h1v1h-1z"/><path fill="#414854" d="M18 17h1v1h-1z"/><path fill="#39afbd" d="M19 17h1v1h-1z"/><path fill="#93d4e0" d="M20 17h1v1h-1z"/><path fill="#f4f4e6" d="M21 17h1v1h-1zm1 0h1v1h-1zm1 0h1v1h-1zM0 18h1v1H0z"/><path fill="#39afbd" d="M1 18h1v1H1z"/><path fill="#5b6577" d="M2 18h1v1H2z"/><path fill="#8492ab" d="M3 18h1v1H3z"/><path fill="#2e3542" d="M4 18h1v1H4z"/><path fill="#5b6577" d="M5 18h1v1H5z"/><path fill="#8492ab" d="M6 18h1v1H6z"/><path fill="#414854" d="M7 18h1v1H7zm1 0h1v1H8z"/><path fill="#8492ab" d="M9 18h1v1H9z"/><path d="M10 18h1v1h-1zm1 0h1v1h-1z"/><path fill="#414854" d="M12 18h1v1h-1z"/><path fill="#8492ab" d="M13 18h1v1h-1z"/><path d="M14 18h1v1h-1zm1 0h1v1h-1z"/><path fill="#8492ab" d="M16 18h1v1h-1z"/><path fill="#5b6577" d="M17 18h1v1h-1z"/><path fill="#414854" d="M18 18h1v1h-1z"/><path fill="#39afbd" d="M19 18h1v1h-1z"/><path fill="#93d4e0" d="M20 18h1v1h-1z"/><path fill="#f4f4e6" d="M21 18h1v1h-1zm1 0h1v1h-1z"/><path fill="#f6f6de" d="M23 18h1v1h-1z"/><path fill="#f4f4e6" d="M0 19h1v1H0z"/><path fill="#39afbd" d="M1 19h1v1H1z"/><path fill="#5b6577" d="M2 19h1v1H2z"/><path fill="#2e3542" d="M3 19h1v1H3zm1 0h1v1H4z"/><path fill="#5b6577" d="M5 19h1v1H5z"/><path fill="#8492ab" d="M6 19h1v1H6z"/><path fill="#9da9be" d="M7 19h1v1H7zm1 0h1v1H8z"/><path fill="#8492ab" d="M9 19h1v1H9z"/><path d="M10 19h1v1h-1zm1 0h1v1h-1zm1 0h1v1h-1z"/><path fill="#8492ab" d="M13 19h1v1h-1z"/><path fill="#9da9be" d="M14 19h1v1h-1zm1 0h1v1h-1z"/><path fill="#8492ab" d="M16 19h1v1h-1z"/><path fill="#5b6577" d="M17 19h1v1h-1z"/><path fill="#414854" d="M18 19h1v1h-1z"/><path fill="#39afbd" d="M19 19h1v1h-1z"/><path fill="#93d4e0" d="M20 19h1v1h-1z"/><path fill="#f4f4e6" d="M21 19h1v1h-1zm1 0h1v1h-1zm1 0h1v1h-1zM0 20h1v1H0z"/><path fill="#93d4e0" d="M1 20h1v1H1z"/><path fill="#39afbd" d="M2 20h1v1H2zm1 0h1v1H3zm1 0h1v1H4z"/><path fill="#414854" d="M5 20h1v1H5z"/><path fill="#5b6577" d="M6 20h1v1H6zm1 0h1v1H7zm1 0h1v1H8zm1 0h1v1H9z"/><path d="M10 20h1v1h-1zm1 0h1v1h-1zm1 0h1v1h-1z"/><path fill="#5b6577" d="M13 20h1v1h-1zm1 0h1v1h-1zm1 0h1v1h-1zm1 0h1v1h-1z"/><path fill="#414854" d="M17 20h1v1h-1z"/><path fill="#39afbd" d="M18 20h1v1h-1zm1 0h1v1h-1z"/><path fill="#93d4e0" d="M20 20h1v1h-1z"/><path fill="#f4f4e6" d="M21 20h1v1h-1zm1 0h1v1h-1z"/><path fill="#f6f6de" d="M23 20h1v1h-1z"/><path fill="#f4f4e6" d="M0 21h1v1H0zm1 0h1v1H1z"/><path fill="#93d4e0" d="M2 21h1v1H2z"/><path fill="#39afbd" d="M3 21h1v1H3zm1 0h1v1H4zm1 0h1v1H5zm1 0h1v1H6zm1 0h1v1H7zm1 0h1v1H8z"/><path fill="#93d4e0" d="M9 21h1v1H9zm1 0h1v1h-1zm1 0h1v1h-1zm1 0h1v1h-1zm1 0h1v1h-1z"/><path fill="#39afbd" d="M14 21h1v1h-1zm1 0h1v1h-1zm1 0h1v1h-1zm1 0h1v1h-1zm1 0h1v1h-1z"/><path fill="#93d4e0" d="M19 21h1v1h-1z"/><path fill="#f4f4e6" d="M20 21h1v1h-1zm1 0h1v1h-1zm1 0h1v1h-1zm1 0h1v1h-1zM0 22h1v1H0zm1 0h1v1H1zm1 0h1v1H2zm1 0h1v1H3z"/><path fill="#93d4e0" d="M4 22h1v1H4zm1 0h1v1H5zm1 0h1v1H6zm1 0h1v1H7z"/><path fill="#f4f4e6" d="M8 22h1v1H8zm1 0h1v1H9zm1 0h1v1h-1zm1 0h1v1h-1zm1 0h1v1h-1zm1 0h1v1h-1zm1 0h1v1h-1z"/><path fill="#93d4e0" d="M15 22h1v1h-1zm1 0h1v1h-1zm1 0h1v1h-1zm1 0h1v1h-1z"/><path fill="#f4f4e6" d="M19 22h1v1h-1zm1 0h1v1h-1zm1 0h1v1h-1zm1 0h1v1h-1z"/><path fill="#f6f6de" d="M23 22h1v1h-1z"/><path fill="#f4f4e6" d="M0 23h1v1H0zm1 0h1v1H1zm1 0h1v1H2zm1 0h1v1H3z"/><path fill="#93d4e0" d="M4 23h1v1H4zm1 0h1v1H5zm1 0h1v1H6zm1 0h1v1H7z"/><path fill="#f4f4e6" d="M8 23h1v1H8zm1 0h1v1H9zm1 0h1v1h-1zm1 0h1v1h-1zm1 0h1v1h-1zm1 0h1v1h-1zm1 0h1v1h-1z"/><path fill="#93d4e0" d="M15 23h1v1h-1zm1 0h1v1h-1zm1 0h1v1h-1zm1 0h1v1h-1z"/><path fill="#f4f4e6" d="M19 23h1v1h-1zm1 0h1v1h-1zm1 0h1v1h-1zm1 0h1v1h-1zm1 0h1v1h-1z"/></svg>